<?xml version="1.0" encoding="utf-8" standalone="no"?>
<!DOCTYPE svg PUBLIC "-//W3C//DTD SVG 1.1//EN"
  "http://www.w3.org/Graphics/SVG/1.1/DTD/svg11.dtd">
<svg xmlns:xlink="http://www.w3.org/1999/xlink" width="1288.510937pt" height="568.02375pt" viewBox="0 0 1288.510937 568.02375" xmlns="http://www.w3.org/2000/svg" version="1.1">
 <metadata>
  <rdf:RDF xmlns:dc="http://purl.org/dc/elements/1.1/" xmlns:cc="http://creativecommons.org/ns#" xmlns:rdf="http://www.w3.org/1999/02/22-rdf-syntax-ns#">
   <cc:Work>
    <dc:type rdf:resource="http://purl.org/dc/dcmitype/StillImage"/>
    <dc:date>2024-08-01T10:52:59.461912</dc:date>
    <dc:format>image/svg+xml</dc:format>
    <dc:creator>
     <cc:Agent>
      <dc:title>Matplotlib v3.7.2, https://matplotlib.org/</dc:title>
     </cc:Agent>
    </dc:creator>
   </cc:Work>
  </rdf:RDF>
 </metadata>
 <defs>
  <style type="text/css">*{stroke-linejoin: round; stroke-linecap: butt}</style>
 </defs>
 <g id="figure_1">
  <g id="patch_1">
   <path d="M 0 568.02375 
L 1288.510937 568.02375 
L 1288.510937 0 
L 0 0 
z
" style="fill: #ffffff"/>
  </g>
  <g id="axes_1">
   <g id="patch_2">
    <path d="M 55.370938 515.7575 
L 1281.310938 515.7575 
L 1281.310938 39.3575 
L 55.370938 39.3575 
z
" style="fill: #ffffff"/>
   </g>
   <g id="PathCollection_1">
    <defs>
     <path id="m2f8f91a0bf" d="M 0 3 
C 0.795609 3 1.55874 2.683901 2.12132 2.12132 
C 2.683901 1.55874 3 0.795609 3 0 
C 3 -0.795609 2.683901 -1.55874 2.12132 -2.12132 
C 1.55874 -2.683901 0.795609 -3 0 -3 
C -0.795609 -3 -1.55874 -2.683901 -2.12132 -2.12132 
C -2.683901 -1.55874 -3 -0.795609 -3 0 
C -3 0.795609 -2.683901 1.55874 -2.12132 2.12132 
C -1.55874 2.683901 -0.795609 3 0 3 
z
" style="stroke: #ffffff; stroke-opacity: 0.6; stroke-width: 0.5"/>
    </defs>
    <g clip-path="url(#p710bb0779d)">
     <use xlink:href="#m2f8f91a0bf" x="166.798094" y="365.08898" style="fill: #008080; fill-opacity: 0.6; stroke: #ffffff; stroke-opacity: 0.6; stroke-width: 0.5"/>
     <use xlink:href="#m2f8f91a0bf" x="203.186216" y="251.289254" style="fill: #008080; fill-opacity: 0.6; stroke: #ffffff; stroke-opacity: 0.6; stroke-width: 0.5"/>
     <use xlink:href="#m2f8f91a0bf" x="158.497833" y="422.506964" style="fill: #008080; fill-opacity: 0.6; stroke: #ffffff; stroke-opacity: 0.6; stroke-width: 0.5"/>
     <use xlink:href="#m2f8f91a0bf" x="144.231431" y="393.906543" style="fill: #008080; fill-opacity: 0.6; stroke: #ffffff; stroke-opacity: 0.6; stroke-width: 0.5"/>
     <use xlink:href="#m2f8f91a0bf" x="281.512213" y="413.596239" style="fill: #008080; fill-opacity: 0.6; stroke: #ffffff; stroke-opacity: 0.6; stroke-width: 0.5"/>
     <use xlink:href="#m2f8f91a0bf" x="272.308768" y="330.98608" style="fill: #008080; fill-opacity: 0.6; stroke: #ffffff; stroke-opacity: 0.6; stroke-width: 0.5"/>
     <use xlink:href="#m2f8f91a0bf" x="198.568852" y="382.391196" style="fill: #008080; fill-opacity: 0.6; stroke: #ffffff; stroke-opacity: 0.6; stroke-width: 0.5"/>
     <use xlink:href="#m2f8f91a0bf" x="175.061554" y="351.434186" style="fill: #008080; fill-opacity: 0.6; stroke: #ffffff; stroke-opacity: 0.6; stroke-width: 0.5"/>
     <use xlink:href="#m2f8f91a0bf" x="155.234183" y="284.012829" style="fill: #008080; fill-opacity: 0.6; stroke: #ffffff; stroke-opacity: 0.6; stroke-width: 0.5"/>
     <use xlink:href="#m2f8f91a0bf" x="146.020429" y="357.130965" style="fill: #008080; fill-opacity: 0.6; stroke: #ffffff; stroke-opacity: 0.6; stroke-width: 0.5"/>
     <use xlink:href="#m2f8f91a0bf" x="165.069586" y="349.368207" style="fill: #008080; fill-opacity: 0.6; stroke: #ffffff; stroke-opacity: 0.6; stroke-width: 0.5"/>
     <use xlink:href="#m2f8f91a0bf" x="142.560386" y="370.240608" style="fill: #008080; fill-opacity: 0.6; stroke: #ffffff; stroke-opacity: 0.6; stroke-width: 0.5"/>
     <use xlink:href="#m2f8f91a0bf" x="124.949277" y="445.0641" style="fill: #008080; fill-opacity: 0.6; stroke: #ffffff; stroke-opacity: 0.6; stroke-width: 0.5"/>
     <use xlink:href="#m2f8f91a0bf" x="128.85021" y="440.977672" style="fill: #008080; fill-opacity: 0.6; stroke: #ffffff; stroke-opacity: 0.6; stroke-width: 0.5"/>
     <use xlink:href="#m2f8f91a0bf" x="126.433776" y="462.60872" style="fill: #008080; fill-opacity: 0.6; stroke: #ffffff; stroke-opacity: 0.6; stroke-width: 0.5"/>
     <use xlink:href="#m2f8f91a0bf" x="133.68922" y="327.696363" style="fill: #008080; fill-opacity: 0.6; stroke: #ffffff; stroke-opacity: 0.6; stroke-width: 0.5"/>
     <use xlink:href="#m2f8f91a0bf" x="123.146802" y="480.40127" style="fill: #008080; fill-opacity: 0.6; stroke: #ffffff; stroke-opacity: 0.6; stroke-width: 0.5"/>
     <use xlink:href="#m2f8f91a0bf" x="154.532249" y="401.438206" style="fill: #008080; fill-opacity: 0.6; stroke: #ffffff; stroke-opacity: 0.6; stroke-width: 0.5"/>
     <use xlink:href="#m2f8f91a0bf" x="236.567525" y="402.844936" style="fill: #008080; fill-opacity: 0.6; stroke: #ffffff; stroke-opacity: 0.6; stroke-width: 0.5"/>
     <use xlink:href="#m2f8f91a0bf" x="152.125187" y="460.974868" style="fill: #008080; fill-opacity: 0.6; stroke: #ffffff; stroke-opacity: 0.6; stroke-width: 0.5"/>
     <use xlink:href="#m2f8f91a0bf" x="143.389818" y="401.653397" style="fill: #008080; fill-opacity: 0.6; stroke: #ffffff; stroke-opacity: 0.6; stroke-width: 0.5"/>
     <use xlink:href="#m2f8f91a0bf" x="141.645514" y="411.431986" style="fill: #008080; fill-opacity: 0.6; stroke: #ffffff; stroke-opacity: 0.6; stroke-width: 0.5"/>
     <use xlink:href="#m2f8f91a0bf" x="191.278299" y="354.192605" style="fill: #008080; fill-opacity: 0.6; stroke: #ffffff; stroke-opacity: 0.6; stroke-width: 0.5"/>
     <use xlink:href="#m2f8f91a0bf" x="152.328719" y="398.278474" style="fill: #008080; fill-opacity: 0.6; stroke: #ffffff; stroke-opacity: 0.6; stroke-width: 0.5"/>
     <use xlink:href="#m2f8f91a0bf" x="144.521066" y="454.557944" style="fill: #008080; fill-opacity: 0.6; stroke: #ffffff; stroke-opacity: 0.6; stroke-width: 0.5"/>
     <use xlink:href="#m2f8f91a0bf" x="146.767141" y="456.450232" style="fill: #008080; fill-opacity: 0.6; stroke: #ffffff; stroke-opacity: 0.6; stroke-width: 0.5"/>
     <use xlink:href="#m2f8f91a0bf" x="133.34001" y="459.302418" style="fill: #008080; fill-opacity: 0.6; stroke: #ffffff; stroke-opacity: 0.6; stroke-width: 0.5"/>
     <use xlink:href="#m2f8f91a0bf" x="130.114851" y="453.216046" style="fill: #008080; fill-opacity: 0.6; stroke: #ffffff; stroke-opacity: 0.6; stroke-width: 0.5"/>
     <use xlink:href="#m2f8f91a0bf" x="134.047924" y="458.088184" style="fill: #008080; fill-opacity: 0.6; stroke: #ffffff; stroke-opacity: 0.6; stroke-width: 0.5"/>
     <use xlink:href="#m2f8f91a0bf" x="128.766613" y="444.234258" style="fill: #008080; fill-opacity: 0.6; stroke: #ffffff; stroke-opacity: 0.6; stroke-width: 0.5"/>
     <use xlink:href="#m2f8f91a0bf" x="132.861147" y="462.499582" style="fill: #008080; fill-opacity: 0.6; stroke: #ffffff; stroke-opacity: 0.6; stroke-width: 0.5"/>
     <use xlink:href="#m2f8f91a0bf" x="153.626213" y="346.66461" style="fill: #008080; fill-opacity: 0.6; stroke: #ffffff; stroke-opacity: 0.6; stroke-width: 0.5"/>
     <use xlink:href="#m2f8f91a0bf" x="141.093164" y="375.919602" style="fill: #008080; fill-opacity: 0.6; stroke: #ffffff; stroke-opacity: 0.6; stroke-width: 0.5"/>
     <use xlink:href="#m2f8f91a0bf" x="136.328393" y="445.227519" style="fill: #008080; fill-opacity: 0.6; stroke: #ffffff; stroke-opacity: 0.6; stroke-width: 0.5"/>
     <use xlink:href="#m2f8f91a0bf" x="131.958643" y="409.843264" style="fill: #008080; fill-opacity: 0.6; stroke: #ffffff; stroke-opacity: 0.6; stroke-width: 0.5"/>
     <use xlink:href="#m2f8f91a0bf" x="127.080768" y="470.395929" style="fill: #008080; fill-opacity: 0.6; stroke: #ffffff; stroke-opacity: 0.6; stroke-width: 0.5"/>
     <use xlink:href="#m2f8f91a0bf" x="131.3329" y="404.574597" style="fill: #008080; fill-opacity: 0.6; stroke: #ffffff; stroke-opacity: 0.6; stroke-width: 0.5"/>
     <use xlink:href="#m2f8f91a0bf" x="146.632099" y="426.558358" style="fill: #008080; fill-opacity: 0.6; stroke: #ffffff; stroke-opacity: 0.6; stroke-width: 0.5"/>
     <use xlink:href="#m2f8f91a0bf" x="123.704978" y="481.382905" style="fill: #008080; fill-opacity: 0.6; stroke: #ffffff; stroke-opacity: 0.6; stroke-width: 0.5"/>
     <use xlink:href="#m2f8f91a0bf" x="147.441035" y="434.640078" style="fill: #008080; fill-opacity: 0.6; stroke: #ffffff; stroke-opacity: 0.6; stroke-width: 0.5"/>
     <use xlink:href="#m2f8f91a0bf" x="132.924412" y="462.149689" style="fill: #008080; fill-opacity: 0.6; stroke: #ffffff; stroke-opacity: 0.6; stroke-width: 0.5"/>
     <use xlink:href="#m2f8f91a0bf" x="132.081881" y="444.616484" style="fill: #008080; fill-opacity: 0.6; stroke: #ffffff; stroke-opacity: 0.6; stroke-width: 0.5"/>
     <use xlink:href="#m2f8f91a0bf" x="135.229005" y="381.781044" style="fill: #008080; fill-opacity: 0.6; stroke: #ffffff; stroke-opacity: 0.6; stroke-width: 0.5"/>
     <use xlink:href="#m2f8f91a0bf" x="130.227212" y="465.419918" style="fill: #008080; fill-opacity: 0.6; stroke: #ffffff; stroke-opacity: 0.6; stroke-width: 0.5"/>
     <use xlink:href="#m2f8f91a0bf" x="126.888953" y="452.942882" style="fill: #008080; fill-opacity: 0.6; stroke: #ffffff; stroke-opacity: 0.6; stroke-width: 0.5"/>
     <use xlink:href="#m2f8f91a0bf" x="134.184967" y="385.161195" style="fill: #008080; fill-opacity: 0.6; stroke: #ffffff; stroke-opacity: 0.6; stroke-width: 0.5"/>
     <use xlink:href="#m2f8f91a0bf" x="133.145609" y="404.48554" style="fill: #008080; fill-opacity: 0.6; stroke: #ffffff; stroke-opacity: 0.6; stroke-width: 0.5"/>
     <use xlink:href="#m2f8f91a0bf" x="146.485631" y="392.207934" style="fill: #008080; fill-opacity: 0.6; stroke: #ffffff; stroke-opacity: 0.6; stroke-width: 0.5"/>
     <use xlink:href="#m2f8f91a0bf" x="125.447471" y="449.350638" style="fill: #008080; fill-opacity: 0.6; stroke: #ffffff; stroke-opacity: 0.6; stroke-width: 0.5"/>
     <use xlink:href="#m2f8f91a0bf" x="126.215185" y="480.192665" style="fill: #008080; fill-opacity: 0.6; stroke: #ffffff; stroke-opacity: 0.6; stroke-width: 0.5"/>
     <use xlink:href="#m2f8f91a0bf" x="132.395933" y="476.183802" style="fill: #008080; fill-opacity: 0.6; stroke: #ffffff; stroke-opacity: 0.6; stroke-width: 0.5"/>
     <use xlink:href="#m2f8f91a0bf" x="121.720966" y="480.173061" style="fill: #008080; fill-opacity: 0.6; stroke: #ffffff; stroke-opacity: 0.6; stroke-width: 0.5"/>
     <use xlink:href="#m2f8f91a0bf" x="121.725054" y="458.60817" style="fill: #008080; fill-opacity: 0.6; stroke: #ffffff; stroke-opacity: 0.6; stroke-width: 0.5"/>
     <use xlink:href="#m2f8f91a0bf" x="121.284828" y="481.141169" style="fill: #008080; fill-opacity: 0.6; stroke: #ffffff; stroke-opacity: 0.6; stroke-width: 0.5"/>
     <use xlink:href="#m2f8f91a0bf" x="111.416287" y="489.66487" style="fill: #008080; fill-opacity: 0.6; stroke: #ffffff; stroke-opacity: 0.6; stroke-width: 0.5"/>
     <use xlink:href="#m2f8f91a0bf" x="114.52239" y="475.02056" style="fill: #008080; fill-opacity: 0.6; stroke: #ffffff; stroke-opacity: 0.6; stroke-width: 0.5"/>
     <use xlink:href="#m2f8f91a0bf" x="140.284997" y="451.160134" style="fill: #008080; fill-opacity: 0.6; stroke: #ffffff; stroke-opacity: 0.6; stroke-width: 0.5"/>
     <use xlink:href="#m2f8f91a0bf" x="150.256128" y="397.515909" style="fill: #008080; fill-opacity: 0.6; stroke: #ffffff; stroke-opacity: 0.6; stroke-width: 0.5"/>
     <use xlink:href="#m2f8f91a0bf" x="122.944746" y="459.004179" style="fill: #008080; fill-opacity: 0.6; stroke: #ffffff; stroke-opacity: 0.6; stroke-width: 0.5"/>
     <use xlink:href="#m2f8f91a0bf" x="141.513161" y="396.882303" style="fill: #008080; fill-opacity: 0.6; stroke: #ffffff; stroke-opacity: 0.6; stroke-width: 0.5"/>
     <use xlink:href="#m2f8f91a0bf" x="143.333479" y="410.945817" style="fill: #008080; fill-opacity: 0.6; stroke: #ffffff; stroke-opacity: 0.6; stroke-width: 0.5"/>
     <use xlink:href="#m2f8f91a0bf" x="140.049605" y="471.88843" style="fill: #008080; fill-opacity: 0.6; stroke: #ffffff; stroke-opacity: 0.6; stroke-width: 0.5"/>
     <use xlink:href="#m2f8f91a0bf" x="131.538083" y="429.647784" style="fill: #008080; fill-opacity: 0.6; stroke: #ffffff; stroke-opacity: 0.6; stroke-width: 0.5"/>
     <use xlink:href="#m2f8f91a0bf" x="150.936682" y="431.524166" style="fill: #008080; fill-opacity: 0.6; stroke: #ffffff; stroke-opacity: 0.6; stroke-width: 0.5"/>
     <use xlink:href="#m2f8f91a0bf" x="131.862733" y="455.052636" style="fill: #008080; fill-opacity: 0.6; stroke: #ffffff; stroke-opacity: 0.6; stroke-width: 0.5"/>
     <use xlink:href="#m2f8f91a0bf" x="144.200257" y="435.325808" style="fill: #008080; fill-opacity: 0.6; stroke: #ffffff; stroke-opacity: 0.6; stroke-width: 0.5"/>
     <use xlink:href="#m2f8f91a0bf" x="134.57607" y="447.787536" style="fill: #008080; fill-opacity: 0.6; stroke: #ffffff; stroke-opacity: 0.6; stroke-width: 0.5"/>
     <use xlink:href="#m2f8f91a0bf" x="146.459306" y="371.372685" style="fill: #008080; fill-opacity: 0.6; stroke: #ffffff; stroke-opacity: 0.6; stroke-width: 0.5"/>
     <use xlink:href="#m2f8f91a0bf" x="156.580112" y="439.991279" style="fill: #008080; fill-opacity: 0.6; stroke: #ffffff; stroke-opacity: 0.6; stroke-width: 0.5"/>
     <use xlink:href="#m2f8f91a0bf" x="133.011411" y="455.40082" style="fill: #008080; fill-opacity: 0.6; stroke: #ffffff; stroke-opacity: 0.6; stroke-width: 0.5"/>
     <use xlink:href="#m2f8f91a0bf" x="138.956655" y="384.927499" style="fill: #008080; fill-opacity: 0.6; stroke: #ffffff; stroke-opacity: 0.6; stroke-width: 0.5"/>
     <use xlink:href="#m2f8f91a0bf" x="147.857503" y="385.194507" style="fill: #008080; fill-opacity: 0.6; stroke: #ffffff; stroke-opacity: 0.6; stroke-width: 0.5"/>
     <use xlink:href="#m2f8f91a0bf" x="145.739689" y="450.700747" style="fill: #008080; fill-opacity: 0.6; stroke: #ffffff; stroke-opacity: 0.6; stroke-width: 0.5"/>
     <use xlink:href="#m2f8f91a0bf" x="134.730311" y="395.685151" style="fill: #008080; fill-opacity: 0.6; stroke: #ffffff; stroke-opacity: 0.6; stroke-width: 0.5"/>
     <use xlink:href="#m2f8f91a0bf" x="142.445724" y="450.768915" style="fill: #008080; fill-opacity: 0.6; stroke: #ffffff; stroke-opacity: 0.6; stroke-width: 0.5"/>
     <use xlink:href="#m2f8f91a0bf" x="135.461395" y="405.039219" style="fill: #008080; fill-opacity: 0.6; stroke: #ffffff; stroke-opacity: 0.6; stroke-width: 0.5"/>
     <use xlink:href="#m2f8f91a0bf" x="137.36585" y="457.372331" style="fill: #008080; fill-opacity: 0.6; stroke: #ffffff; stroke-opacity: 0.6; stroke-width: 0.5"/>
     <use xlink:href="#m2f8f91a0bf" x="126.469876" y="465.610704" style="fill: #008080; fill-opacity: 0.6; stroke: #ffffff; stroke-opacity: 0.6; stroke-width: 0.5"/>
     <use xlink:href="#m2f8f91a0bf" x="129.348341" y="460.851833" style="fill: #008080; fill-opacity: 0.6; stroke: #ffffff; stroke-opacity: 0.6; stroke-width: 0.5"/>
     <use xlink:href="#m2f8f91a0bf" x="122.246849" y="426.110353" style="fill: #008080; fill-opacity: 0.6; stroke: #ffffff; stroke-opacity: 0.6; stroke-width: 0.5"/>
     <use xlink:href="#m2f8f91a0bf" x="123.776918" y="463.339027" style="fill: #008080; fill-opacity: 0.6; stroke: #ffffff; stroke-opacity: 0.6; stroke-width: 0.5"/>
     <use xlink:href="#m2f8f91a0bf" x="145.220542" y="438.172246" style="fill: #008080; fill-opacity: 0.6; stroke: #ffffff; stroke-opacity: 0.6; stroke-width: 0.5"/>
     <use xlink:href="#m2f8f91a0bf" x="126.857224" y="476.243556" style="fill: #008080; fill-opacity: 0.6; stroke: #ffffff; stroke-opacity: 0.6; stroke-width: 0.5"/>
     <use xlink:href="#m2f8f91a0bf" x="118.079462" y="474.162611" style="fill: #008080; fill-opacity: 0.6; stroke: #ffffff; stroke-opacity: 0.6; stroke-width: 0.5"/>
     <use xlink:href="#m2f8f91a0bf" x="119.637418" y="468.806564" style="fill: #008080; fill-opacity: 0.6; stroke: #ffffff; stroke-opacity: 0.6; stroke-width: 0.5"/>
     <use xlink:href="#m2f8f91a0bf" x="130.841655" y="489.152305" style="fill: #008080; fill-opacity: 0.6; stroke: #ffffff; stroke-opacity: 0.6; stroke-width: 0.5"/>
     <use xlink:href="#m2f8f91a0bf" x="127.083447" y="431.736903" style="fill: #008080; fill-opacity: 0.6; stroke: #ffffff; stroke-opacity: 0.6; stroke-width: 0.5"/>
     <use xlink:href="#m2f8f91a0bf" x="129.678441" y="465.906637" style="fill: #008080; fill-opacity: 0.6; stroke: #ffffff; stroke-opacity: 0.6; stroke-width: 0.5"/>
     <use xlink:href="#m2f8f91a0bf" x="119.069775" y="470.011916" style="fill: #008080; fill-opacity: 0.6; stroke: #ffffff; stroke-opacity: 0.6; stroke-width: 0.5"/>
     <use xlink:href="#m2f8f91a0bf" x="130.148959" y="391.802897" style="fill: #008080; fill-opacity: 0.6; stroke: #ffffff; stroke-opacity: 0.6; stroke-width: 0.5"/>
     <use xlink:href="#m2f8f91a0bf" x="138.757041" y="480.8453" style="fill: #008080; fill-opacity: 0.6; stroke: #ffffff; stroke-opacity: 0.6; stroke-width: 0.5"/>
     <use xlink:href="#m2f8f91a0bf" x="125.711256" y="414.930505" style="fill: #008080; fill-opacity: 0.6; stroke: #ffffff; stroke-opacity: 0.6; stroke-width: 0.5"/>
     <use xlink:href="#m2f8f91a0bf" x="119.615068" y="479.689464" style="fill: #008080; fill-opacity: 0.6; stroke: #ffffff; stroke-opacity: 0.6; stroke-width: 0.5"/>
     <use xlink:href="#m2f8f91a0bf" x="122.763751" y="442.354039" style="fill: #008080; fill-opacity: 0.6; stroke: #ffffff; stroke-opacity: 0.6; stroke-width: 0.5"/>
     <use xlink:href="#m2f8f91a0bf" x="111.095483" y="488.268882" style="fill: #008080; fill-opacity: 0.6; stroke: #ffffff; stroke-opacity: 0.6; stroke-width: 0.5"/>
     <use xlink:href="#m2f8f91a0bf" x="114.814251" y="488.204812" style="fill: #008080; fill-opacity: 0.6; stroke: #ffffff; stroke-opacity: 0.6; stroke-width: 0.5"/>
     <use xlink:href="#m2f8f91a0bf" x="595.836878" y="398.458174" style="fill: #008080; fill-opacity: 0.6; stroke: #ffffff; stroke-opacity: 0.6; stroke-width: 0.5"/>
     <use xlink:href="#m2f8f91a0bf" x="477.251454" y="276.70963" style="fill: #008080; fill-opacity: 0.6; stroke: #ffffff; stroke-opacity: 0.6; stroke-width: 0.5"/>
     <use xlink:href="#m2f8f91a0bf" x="130.587178" y="490.306016" style="fill: #008080; fill-opacity: 0.6; stroke: #ffffff; stroke-opacity: 0.6; stroke-width: 0.5"/>
     <use xlink:href="#m2f8f91a0bf" x="495.839463" y="152.984424" style="fill: #008080; fill-opacity: 0.6; stroke: #ffffff; stroke-opacity: 0.6; stroke-width: 0.5"/>
     <use xlink:href="#m2f8f91a0bf" x="451.959095" y="347.104682" style="fill: #008080; fill-opacity: 0.6; stroke: #ffffff; stroke-opacity: 0.6; stroke-width: 0.5"/>
     <use xlink:href="#m2f8f91a0bf" x="338.856234" y="321.713766" style="fill: #008080; fill-opacity: 0.6; stroke: #ffffff; stroke-opacity: 0.6; stroke-width: 0.5"/>
     <use xlink:href="#m2f8f91a0bf" x="236.698536" y="409.506303" style="fill: #008080; fill-opacity: 0.6; stroke: #ffffff; stroke-opacity: 0.6; stroke-width: 0.5"/>
     <use xlink:href="#m2f8f91a0bf" x="232.526911" y="279.808303" style="fill: #008080; fill-opacity: 0.6; stroke: #ffffff; stroke-opacity: 0.6; stroke-width: 0.5"/>
     <use xlink:href="#m2f8f91a0bf" x="275.392549" y="381.781125" style="fill: #008080; fill-opacity: 0.6; stroke: #ffffff; stroke-opacity: 0.6; stroke-width: 0.5"/>
     <use xlink:href="#m2f8f91a0bf" x="473.854235" y="352.081535" style="fill: #008080; fill-opacity: 0.6; stroke: #ffffff; stroke-opacity: 0.6; stroke-width: 0.5"/>
     <use xlink:href="#m2f8f91a0bf" x="391.15146" y="409.739149" style="fill: #008080; fill-opacity: 0.6; stroke: #ffffff; stroke-opacity: 0.6; stroke-width: 0.5"/>
     <use xlink:href="#m2f8f91a0bf" x="716.08219" y="252.816203" style="fill: #008080; fill-opacity: 0.6; stroke: #ffffff; stroke-opacity: 0.6; stroke-width: 0.5"/>
     <use xlink:href="#m2f8f91a0bf" x="1225.586392" y="336.463011" style="fill: #008080; fill-opacity: 0.6; stroke: #ffffff; stroke-opacity: 0.6; stroke-width: 0.5"/>
     <use xlink:href="#m2f8f91a0bf" x="211.506221" y="484.726214" style="fill: #008080; fill-opacity: 0.6; stroke: #ffffff; stroke-opacity: 0.6; stroke-width: 0.5"/>
     <use xlink:href="#m2f8f91a0bf" x="431.69282" y="410.168258" style="fill: #008080; fill-opacity: 0.6; stroke: #ffffff; stroke-opacity: 0.6; stroke-width: 0.5"/>
     <use xlink:href="#m2f8f91a0bf" x="488.041247" y="447.220605" style="fill: #008080; fill-opacity: 0.6; stroke: #ffffff; stroke-opacity: 0.6; stroke-width: 0.5"/>
     <use xlink:href="#m2f8f91a0bf" x="796.017771" y="450.89286" style="fill: #008080; fill-opacity: 0.6; stroke: #ffffff; stroke-opacity: 0.6; stroke-width: 0.5"/>
     <use xlink:href="#m2f8f91a0bf" x="522.354001" y="447.300138" style="fill: #008080; fill-opacity: 0.6; stroke: #ffffff; stroke-opacity: 0.6; stroke-width: 0.5"/>
     <use xlink:href="#m2f8f91a0bf" x="338.642702" y="392.171037" style="fill: #008080; fill-opacity: 0.6; stroke: #ffffff; stroke-opacity: 0.6; stroke-width: 0.5"/>
     <use xlink:href="#m2f8f91a0bf" x="228.239752" y="473.129215" style="fill: #008080; fill-opacity: 0.6; stroke: #ffffff; stroke-opacity: 0.6; stroke-width: 0.5"/>
     <use xlink:href="#m2f8f91a0bf" x="374.929739" y="419.424851" style="fill: #008080; fill-opacity: 0.6; stroke: #ffffff; stroke-opacity: 0.6; stroke-width: 0.5"/>
     <use xlink:href="#m2f8f91a0bf" x="636.355635" y="298.078095" style="fill: #008080; fill-opacity: 0.6; stroke: #ffffff; stroke-opacity: 0.6; stroke-width: 0.5"/>
     <use xlink:href="#m2f8f91a0bf" x="389.275866" y="448.275583" style="fill: #008080; fill-opacity: 0.6; stroke: #ffffff; stroke-opacity: 0.6; stroke-width: 0.5"/>
     <use xlink:href="#m2f8f91a0bf" x="201.040791" y="444.025293" style="fill: #008080; fill-opacity: 0.6; stroke: #ffffff; stroke-opacity: 0.6; stroke-width: 0.5"/>
     <use xlink:href="#m2f8f91a0bf" x="195.28146" y="457.235447" style="fill: #008080; fill-opacity: 0.6; stroke: #ffffff; stroke-opacity: 0.6; stroke-width: 0.5"/>
     <use xlink:href="#m2f8f91a0bf" x="150.914607" y="418.755617" style="fill: #008080; fill-opacity: 0.6; stroke: #ffffff; stroke-opacity: 0.6; stroke-width: 0.5"/>
     <use xlink:href="#m2f8f91a0bf" x="201.270852" y="338.106906" style="fill: #008080; fill-opacity: 0.6; stroke: #ffffff; stroke-opacity: 0.6; stroke-width: 0.5"/>
     <use xlink:href="#m2f8f91a0bf" x="172.399168" y="397.388686" style="fill: #008080; fill-opacity: 0.6; stroke: #ffffff; stroke-opacity: 0.6; stroke-width: 0.5"/>
     <use xlink:href="#m2f8f91a0bf" x="225.961686" y="432.302847" style="fill: #008080; fill-opacity: 0.6; stroke: #ffffff; stroke-opacity: 0.6; stroke-width: 0.5"/>
     <use xlink:href="#m2f8f91a0bf" x="168.140991" y="421.642183" style="fill: #008080; fill-opacity: 0.6; stroke: #ffffff; stroke-opacity: 0.6; stroke-width: 0.5"/>
     <use xlink:href="#m2f8f91a0bf" x="185.538703" y="461.968506" style="fill: #008080; fill-opacity: 0.6; stroke: #ffffff; stroke-opacity: 0.6; stroke-width: 0.5"/>
     <use xlink:href="#m2f8f91a0bf" x="152.998594" y="452.903145" style="fill: #008080; fill-opacity: 0.6; stroke: #ffffff; stroke-opacity: 0.6; stroke-width: 0.5"/>
     <use xlink:href="#m2f8f91a0bf" x="147.168311" y="434.738971" style="fill: #008080; fill-opacity: 0.6; stroke: #ffffff; stroke-opacity: 0.6; stroke-width: 0.5"/>
     <use xlink:href="#m2f8f91a0bf" x="118.772519" y="489.345555" style="fill: #008080; fill-opacity: 0.6; stroke: #ffffff; stroke-opacity: 0.6; stroke-width: 0.5"/>
     <use xlink:href="#m2f8f91a0bf" x="126.011822" y="470.220365" style="fill: #008080; fill-opacity: 0.6; stroke: #ffffff; stroke-opacity: 0.6; stroke-width: 0.5"/>
     <use xlink:href="#m2f8f91a0bf" x="146.283915" y="285.451379" style="fill: #008080; fill-opacity: 0.6; stroke: #ffffff; stroke-opacity: 0.6; stroke-width: 0.5"/>
     <use xlink:href="#m2f8f91a0bf" x="163.83054" y="371.044451" style="fill: #008080; fill-opacity: 0.6; stroke: #ffffff; stroke-opacity: 0.6; stroke-width: 0.5"/>
     <use xlink:href="#m2f8f91a0bf" x="139.632828" y="446.032312" style="fill: #008080; fill-opacity: 0.6; stroke: #ffffff; stroke-opacity: 0.6; stroke-width: 0.5"/>
     <use xlink:href="#m2f8f91a0bf" x="150.364461" y="409.148273" style="fill: #008080; fill-opacity: 0.6; stroke: #ffffff; stroke-opacity: 0.6; stroke-width: 0.5"/>
     <use xlink:href="#m2f8f91a0bf" x="144.598219" y="340.091913" style="fill: #008080; fill-opacity: 0.6; stroke: #ffffff; stroke-opacity: 0.6; stroke-width: 0.5"/>
     <use xlink:href="#m2f8f91a0bf" x="120.278032" y="415.653132" style="fill: #008080; fill-opacity: 0.6; stroke: #ffffff; stroke-opacity: 0.6; stroke-width: 0.5"/>
     <use xlink:href="#m2f8f91a0bf" x="195.341873" y="417.183915" style="fill: #008080; fill-opacity: 0.6; stroke: #ffffff; stroke-opacity: 0.6; stroke-width: 0.5"/>
     <use xlink:href="#m2f8f91a0bf" x="137.015461" y="471.993576" style="fill: #008080; fill-opacity: 0.6; stroke: #ffffff; stroke-opacity: 0.6; stroke-width: 0.5"/>
     <use xlink:href="#m2f8f91a0bf" x="132.279717" y="445.739336" style="fill: #008080; fill-opacity: 0.6; stroke: #ffffff; stroke-opacity: 0.6; stroke-width: 0.5"/>
     <use xlink:href="#m2f8f91a0bf" x="111.987475" y="488.535696" style="fill: #008080; fill-opacity: 0.6; stroke: #ffffff; stroke-opacity: 0.6; stroke-width: 0.5"/>
     <use xlink:href="#m2f8f91a0bf" x="139.200929" y="483.323365" style="fill: #008080; fill-opacity: 0.6; stroke: #ffffff; stroke-opacity: 0.6; stroke-width: 0.5"/>
     <use xlink:href="#m2f8f91a0bf" x="124.797685" y="458.766032" style="fill: #008080; fill-opacity: 0.6; stroke: #ffffff; stroke-opacity: 0.6; stroke-width: 0.5"/>
     <use xlink:href="#m2f8f91a0bf" x="136.930293" y="445.17373" style="fill: #008080; fill-opacity: 0.6; stroke: #ffffff; stroke-opacity: 0.6; stroke-width: 0.5"/>
     <use xlink:href="#m2f8f91a0bf" x="145.384723" y="408.140107" style="fill: #008080; fill-opacity: 0.6; stroke: #ffffff; stroke-opacity: 0.6; stroke-width: 0.5"/>
     <use xlink:href="#m2f8f91a0bf" x="139.868479" y="444.328387" style="fill: #008080; fill-opacity: 0.6; stroke: #ffffff; stroke-opacity: 0.6; stroke-width: 0.5"/>
     <use xlink:href="#m2f8f91a0bf" x="124.953181" y="467.235507" style="fill: #008080; fill-opacity: 0.6; stroke: #ffffff; stroke-opacity: 0.6; stroke-width: 0.5"/>
     <use xlink:href="#m2f8f91a0bf" x="135.89052" y="469.190023" style="fill: #008080; fill-opacity: 0.6; stroke: #ffffff; stroke-opacity: 0.6; stroke-width: 0.5"/>
     <use xlink:href="#m2f8f91a0bf" x="124.001957" y="483.528499" style="fill: #008080; fill-opacity: 0.6; stroke: #ffffff; stroke-opacity: 0.6; stroke-width: 0.5"/>
     <use xlink:href="#m2f8f91a0bf" x="121.912887" y="460.208589" style="fill: #008080; fill-opacity: 0.6; stroke: #ffffff; stroke-opacity: 0.6; stroke-width: 0.5"/>
     <use xlink:href="#m2f8f91a0bf" x="140.037909" y="426.042602" style="fill: #008080; fill-opacity: 0.6; stroke: #ffffff; stroke-opacity: 0.6; stroke-width: 0.5"/>
     <use xlink:href="#m2f8f91a0bf" x="139.762489" y="470.071104" style="fill: #008080; fill-opacity: 0.6; stroke: #ffffff; stroke-opacity: 0.6; stroke-width: 0.5"/>
     <use xlink:href="#m2f8f91a0bf" x="123.47527" y="460.288138" style="fill: #008080; fill-opacity: 0.6; stroke: #ffffff; stroke-opacity: 0.6; stroke-width: 0.5"/>
     <use xlink:href="#m2f8f91a0bf" x="118.25581" y="466.433492" style="fill: #008080; fill-opacity: 0.6; stroke: #ffffff; stroke-opacity: 0.6; stroke-width: 0.5"/>
     <use xlink:href="#m2f8f91a0bf" x="120.772029" y="480.365885" style="fill: #008080; fill-opacity: 0.6; stroke: #ffffff; stroke-opacity: 0.6; stroke-width: 0.5"/>
     <use xlink:href="#m2f8f91a0bf" x="125.026668" y="462.194147" style="fill: #008080; fill-opacity: 0.6; stroke: #ffffff; stroke-opacity: 0.6; stroke-width: 0.5"/>
     <use xlink:href="#m2f8f91a0bf" x="122.370077" y="476.789301" style="fill: #008080; fill-opacity: 0.6; stroke: #ffffff; stroke-opacity: 0.6; stroke-width: 0.5"/>
     <use xlink:href="#m2f8f91a0bf" x="121.339467" y="481.95422" style="fill: #008080; fill-opacity: 0.6; stroke: #ffffff; stroke-opacity: 0.6; stroke-width: 0.5"/>
     <use xlink:href="#m2f8f91a0bf" x="159.794522" y="401.614878" style="fill: #008080; fill-opacity: 0.6; stroke: #ffffff; stroke-opacity: 0.6; stroke-width: 0.5"/>
     <use xlink:href="#m2f8f91a0bf" x="128.877978" y="471.424464" style="fill: #008080; fill-opacity: 0.6; stroke: #ffffff; stroke-opacity: 0.6; stroke-width: 0.5"/>
     <use xlink:href="#m2f8f91a0bf" x="129.176111" y="484.147313" style="fill: #008080; fill-opacity: 0.6; stroke: #ffffff; stroke-opacity: 0.6; stroke-width: 0.5"/>
     <use xlink:href="#m2f8f91a0bf" x="121.464426" y="465.377384" style="fill: #008080; fill-opacity: 0.6; stroke: #ffffff; stroke-opacity: 0.6; stroke-width: 0.5"/>
     <use xlink:href="#m2f8f91a0bf" x="118.955041" y="433.187817" style="fill: #008080; fill-opacity: 0.6; stroke: #ffffff; stroke-opacity: 0.6; stroke-width: 0.5"/>
     <use xlink:href="#m2f8f91a0bf" x="127.836343" y="461.500143" style="fill: #008080; fill-opacity: 0.6; stroke: #ffffff; stroke-opacity: 0.6; stroke-width: 0.5"/>
     <use xlink:href="#m2f8f91a0bf" x="130.802001" y="466.489324" style="fill: #008080; fill-opacity: 0.6; stroke: #ffffff; stroke-opacity: 0.6; stroke-width: 0.5"/>
     <use xlink:href="#m2f8f91a0bf" x="124.050335" y="464.418896" style="fill: #008080; fill-opacity: 0.6; stroke: #ffffff; stroke-opacity: 0.6; stroke-width: 0.5"/>
     <use xlink:href="#m2f8f91a0bf" x="121.424443" y="443.790055" style="fill: #008080; fill-opacity: 0.6; stroke: #ffffff; stroke-opacity: 0.6; stroke-width: 0.5"/>
     <use xlink:href="#m2f8f91a0bf" x="122.90348" y="466.220986" style="fill: #008080; fill-opacity: 0.6; stroke: #ffffff; stroke-opacity: 0.6; stroke-width: 0.5"/>
     <use xlink:href="#m2f8f91a0bf" x="122.945699" y="468.197454" style="fill: #008080; fill-opacity: 0.6; stroke: #ffffff; stroke-opacity: 0.6; stroke-width: 0.5"/>
     <use xlink:href="#m2f8f91a0bf" x="119.629524" y="471.7075" style="fill: #008080; fill-opacity: 0.6; stroke: #ffffff; stroke-opacity: 0.6; stroke-width: 0.5"/>
     <use xlink:href="#m2f8f91a0bf" x="119.323869" y="488.208165" style="fill: #008080; fill-opacity: 0.6; stroke: #ffffff; stroke-opacity: 0.6; stroke-width: 0.5"/>
     <use xlink:href="#m2f8f91a0bf" x="116.882823" y="486.312875" style="fill: #008080; fill-opacity: 0.6; stroke: #ffffff; stroke-opacity: 0.6; stroke-width: 0.5"/>
     <use xlink:href="#m2f8f91a0bf" x="120.171543" y="462.655333" style="fill: #008080; fill-opacity: 0.6; stroke: #ffffff; stroke-opacity: 0.6; stroke-width: 0.5"/>
     <use xlink:href="#m2f8f91a0bf" x="120.7005" y="469.554581" style="fill: #008080; fill-opacity: 0.6; stroke: #ffffff; stroke-opacity: 0.6; stroke-width: 0.5"/>
     <use xlink:href="#m2f8f91a0bf" x="118.563508" y="466.145956" style="fill: #008080; fill-opacity: 0.6; stroke: #ffffff; stroke-opacity: 0.6; stroke-width: 0.5"/>
     <use xlink:href="#m2f8f91a0bf" x="120.115693" y="474.616746" style="fill: #008080; fill-opacity: 0.6; stroke: #ffffff; stroke-opacity: 0.6; stroke-width: 0.5"/>
     <use xlink:href="#m2f8f91a0bf" x="138.711828" y="410.719699" style="fill: #008080; fill-opacity: 0.6; stroke: #ffffff; stroke-opacity: 0.6; stroke-width: 0.5"/>
     <use xlink:href="#m2f8f91a0bf" x="118.74396" y="470.58327" style="fill: #008080; fill-opacity: 0.6; stroke: #ffffff; stroke-opacity: 0.6; stroke-width: 0.5"/>
     <use xlink:href="#m2f8f91a0bf" x="118.803633" y="464.837509" style="fill: #008080; fill-opacity: 0.6; stroke: #ffffff; stroke-opacity: 0.6; stroke-width: 0.5"/>
     <use xlink:href="#m2f8f91a0bf" x="121.073491" y="485.03292" style="fill: #008080; fill-opacity: 0.6; stroke: #ffffff; stroke-opacity: 0.6; stroke-width: 0.5"/>
     <use xlink:href="#m2f8f91a0bf" x="116.775734" y="480.281805" style="fill: #008080; fill-opacity: 0.6; stroke: #ffffff; stroke-opacity: 0.6; stroke-width: 0.5"/>
     <use xlink:href="#m2f8f91a0bf" x="118.086865" y="450.004579" style="fill: #008080; fill-opacity: 0.6; stroke: #ffffff; stroke-opacity: 0.6; stroke-width: 0.5"/>
     <use xlink:href="#m2f8f91a0bf" x="122.710956" y="477.233779" style="fill: #008080; fill-opacity: 0.6; stroke: #ffffff; stroke-opacity: 0.6; stroke-width: 0.5"/>
     <use xlink:href="#m2f8f91a0bf" x="119.149189" y="479.390073" style="fill: #008080; fill-opacity: 0.6; stroke: #ffffff; stroke-opacity: 0.6; stroke-width: 0.5"/>
     <use xlink:href="#m2f8f91a0bf" x="116.890733" y="478.460342" style="fill: #008080; fill-opacity: 0.6; stroke: #ffffff; stroke-opacity: 0.6; stroke-width: 0.5"/>
     <use xlink:href="#m2f8f91a0bf" x="115.084415" y="484.607329" style="fill: #008080; fill-opacity: 0.6; stroke: #ffffff; stroke-opacity: 0.6; stroke-width: 0.5"/>
     <use xlink:href="#m2f8f91a0bf" x="115.666802" y="484.939611" style="fill: #008080; fill-opacity: 0.6; stroke: #ffffff; stroke-opacity: 0.6; stroke-width: 0.5"/>
     <use xlink:href="#m2f8f91a0bf" x="117.234495" y="492.11917" style="fill: #008080; fill-opacity: 0.6; stroke: #ffffff; stroke-opacity: 0.6; stroke-width: 0.5"/>
     <use xlink:href="#m2f8f91a0bf" x="114.63068" y="477.921645" style="fill: #008080; fill-opacity: 0.6; stroke: #ffffff; stroke-opacity: 0.6; stroke-width: 0.5"/>
     <use xlink:href="#m2f8f91a0bf" x="120.663121" y="409.578714" style="fill: #008080; fill-opacity: 0.6; stroke: #ffffff; stroke-opacity: 0.6; stroke-width: 0.5"/>
     <use xlink:href="#m2f8f91a0bf" x="120.31538" y="457.158695" style="fill: #008080; fill-opacity: 0.6; stroke: #ffffff; stroke-opacity: 0.6; stroke-width: 0.5"/>
     <use xlink:href="#m2f8f91a0bf" x="116.110986" y="475.837021" style="fill: #008080; fill-opacity: 0.6; stroke: #ffffff; stroke-opacity: 0.6; stroke-width: 0.5"/>
     <use xlink:href="#m2f8f91a0bf" x="133.337067" y="494.102955" style="fill: #008080; fill-opacity: 0.6; stroke: #ffffff; stroke-opacity: 0.6; stroke-width: 0.5"/>
     <use xlink:href="#m2f8f91a0bf" x="124.465446" y="446.889481" style="fill: #008080; fill-opacity: 0.6; stroke: #ffffff; stroke-opacity: 0.6; stroke-width: 0.5"/>
     <use xlink:href="#m2f8f91a0bf" x="119.315211" y="466.367669" style="fill: #008080; fill-opacity: 0.6; stroke: #ffffff; stroke-opacity: 0.6; stroke-width: 0.5"/>
     <use xlink:href="#m2f8f91a0bf" x="117.567297" y="455.56182" style="fill: #008080; fill-opacity: 0.6; stroke: #ffffff; stroke-opacity: 0.6; stroke-width: 0.5"/>
     <use xlink:href="#m2f8f91a0bf" x="116.241916" y="462.453211" style="fill: #008080; fill-opacity: 0.6; stroke: #ffffff; stroke-opacity: 0.6; stroke-width: 0.5"/>
     <use xlink:href="#m2f8f91a0bf" x="115.284186" y="487.556976" style="fill: #008080; fill-opacity: 0.6; stroke: #ffffff; stroke-opacity: 0.6; stroke-width: 0.5"/>
     <use xlink:href="#m2f8f91a0bf" x="116.517501" y="463.057828" style="fill: #008080; fill-opacity: 0.6; stroke: #ffffff; stroke-opacity: 0.6; stroke-width: 0.5"/>
     <use xlink:href="#m2f8f91a0bf" x="114.434383" y="482.794924" style="fill: #008080; fill-opacity: 0.6; stroke: #ffffff; stroke-opacity: 0.6; stroke-width: 0.5"/>
     <use xlink:href="#m2f8f91a0bf" x="117.035199" y="463.940163" style="fill: #008080; fill-opacity: 0.6; stroke: #ffffff; stroke-opacity: 0.6; stroke-width: 0.5"/>
     <use xlink:href="#m2f8f91a0bf" x="116.428189" y="464.292363" style="fill: #008080; fill-opacity: 0.6; stroke: #ffffff; stroke-opacity: 0.6; stroke-width: 0.5"/>
     <use xlink:href="#m2f8f91a0bf" x="114.405215" y="490.1619" style="fill: #008080; fill-opacity: 0.6; stroke: #ffffff; stroke-opacity: 0.6; stroke-width: 0.5"/>
     <use xlink:href="#m2f8f91a0bf" x="115.857713" y="490.158065" style="fill: #008080; fill-opacity: 0.6; stroke: #ffffff; stroke-opacity: 0.6; stroke-width: 0.5"/>
     <use xlink:href="#m2f8f91a0bf" x="114.566258" y="482.680007" style="fill: #008080; fill-opacity: 0.6; stroke: #ffffff; stroke-opacity: 0.6; stroke-width: 0.5"/>
     <use xlink:href="#m2f8f91a0bf" x="115.514906" y="489.67662" style="fill: #008080; fill-opacity: 0.6; stroke: #ffffff; stroke-opacity: 0.6; stroke-width: 0.5"/>
     <use xlink:href="#m2f8f91a0bf" x="115.550582" y="491.723839" style="fill: #008080; fill-opacity: 0.6; stroke: #ffffff; stroke-opacity: 0.6; stroke-width: 0.5"/>
     <use xlink:href="#m2f8f91a0bf" x="113.804893" y="476.138054" style="fill: #008080; fill-opacity: 0.6; stroke: #ffffff; stroke-opacity: 0.6; stroke-width: 0.5"/>
     <use xlink:href="#m2f8f91a0bf" x="114.027005" y="477.264287" style="fill: #008080; fill-opacity: 0.6; stroke: #ffffff; stroke-opacity: 0.6; stroke-width: 0.5"/>
     <use xlink:href="#m2f8f91a0bf" x="113.040888" y="490.285289" style="fill: #008080; fill-opacity: 0.6; stroke: #ffffff; stroke-opacity: 0.6; stroke-width: 0.5"/>
    </g>
   </g>
   <g id="PolyCollection_1">
    <path d="M 111.095483 440.329035 
L 111.095483 454.994266 
L 122.352967 451.360745 
L 133.610451 448.218253 
L 144.867935 445.560605 
L 156.125419 443.341169 
L 167.382903 441.311824 
L 178.640387 439.532856 
L 189.89787 437.858284 
L 201.155354 436.144923 
L 212.412838 434.621993 
L 223.670322 432.962806 
L 234.927806 431.308364 
L 246.18529 429.867897 
L 257.442774 428.419007 
L 268.700258 427.077197 
L 279.957742 425.673602 
L 291.215226 424.348447 
L 302.47271 423.00359 
L 313.730194 421.510532 
L 324.987678 420.234534 
L 336.245162 418.847189 
L 347.502645 417.370511 
L 358.760129 415.893192 
L 370.017613 414.522315 
L 381.275097 413.030342 
L 392.532581 411.536477 
L 403.790065 410.042611 
L 415.047549 408.548746 
L 426.305033 407.082224 
L 437.562517 405.682139 
L 448.820001 404.281743 
L 460.077485 402.836585 
L 471.334969 401.335278 
L 482.592453 399.862045 
L 493.849937 398.388813 
L 505.107421 397.026422 
L 516.364904 395.668486 
L 527.622388 394.309626 
L 538.879872 392.95067 
L 550.137356 391.580473 
L 561.39484 390.143451 
L 572.652324 388.703771 
L 583.909808 387.294373 
L 595.167292 385.83106 
L 606.424776 384.465512 
L 617.68226 383.115883 
L 628.939744 381.766254 
L 640.197228 380.35611 
L 651.454712 378.910684 
L 662.712196 377.465084 
L 673.969679 376.018381 
L 685.227163 374.703065 
L 696.484647 373.428134 
L 707.742131 371.967488 
L 718.999615 370.504498 
L 730.257099 369.178067 
L 741.514583 367.873509 
L 752.772067 366.532692 
L 764.029551 365.136932 
L 775.287035 363.741172 
L 786.544519 362.345412 
L 797.802003 360.949652 
L 809.059487 359.553892 
L 820.316971 358.158132 
L 831.574454 356.76315 
L 842.831938 355.448451 
L 854.089422 354.13307 
L 865.346906 352.817248 
L 876.60439 351.501426 
L 887.861874 350.185604 
L 899.119358 348.869781 
L 910.376842 347.553959 
L 921.634326 346.238137 
L 932.89181 344.922315 
L 944.149294 343.606493 
L 955.406778 342.290671 
L 966.664262 340.974849 
L 977.921746 339.659027 
L 989.17923 338.343205 
L 1000.436713 337.027383 
L 1011.694197 335.711442 
L 1022.951681 334.395375 
L 1034.209165 333.078215 
L 1045.466649 331.760561 
L 1056.724133 330.362699 
L 1067.981617 328.944948 
L 1079.239101 327.527196 
L 1090.496585 326.10846 
L 1101.754069 324.689661 
L 1113.011553 323.270862 
L 1124.269037 321.852064 
L 1135.526521 320.433265 
L 1146.784005 319.014466 
L 1158.041488 317.595667 
L 1169.298972 316.176869 
L 1180.556456 314.75807 
L 1191.81394 313.339271 
L 1203.071424 311.920473 
L 1214.328908 310.501674 
L 1225.586392 309.082875 
L 1225.586392 61.012045 
L 1225.586392 61.012045 
L 1214.328908 64.982085 
L 1203.071424 68.952124 
L 1191.81394 72.922163 
L 1180.556456 76.892203 
L 1169.298972 80.862242 
L 1158.041488 84.832281 
L 1146.784005 88.80232 
L 1135.526521 92.77236 
L 1124.269037 96.742399 
L 1113.011553 100.712438 
L 1101.754069 104.682478 
L 1090.496585 108.652517 
L 1079.239101 112.622556 
L 1067.981617 116.592595 
L 1056.724133 120.562635 
L 1045.466649 124.532674 
L 1034.209165 128.502713 
L 1022.951681 132.472753 
L 1011.694197 136.442792 
L 1000.436713 140.340012 
L 989.17923 144.218599 
L 977.921746 148.097186 
L 966.664262 151.975773 
L 955.406778 155.85436 
L 944.149294 159.732947 
L 932.89181 163.611534 
L 921.634326 167.490121 
L 910.376842 171.368708 
L 899.119358 175.247294 
L 887.861874 179.125881 
L 876.60439 183.004468 
L 865.346906 186.883055 
L 854.089422 190.761642 
L 842.831938 194.640229 
L 831.574454 198.518816 
L 820.316971 202.397403 
L 809.059487 206.27599 
L 797.802003 210.154577 
L 786.544519 214.033164 
L 775.287035 217.91175 
L 764.029551 221.790337 
L 752.772067 225.668924 
L 741.514583 229.547511 
L 730.257099 233.426098 
L 718.999615 237.304685 
L 707.742131 241.183272 
L 696.484647 245.061859 
L 685.227163 248.940446 
L 673.969679 252.820359 
L 662.712196 256.701015 
L 651.454712 260.581671 
L 640.197228 264.462327 
L 628.939744 268.342983 
L 617.68226 272.22364 
L 606.424776 276.104296 
L 595.167292 280.044461 
L 583.909808 284.112971 
L 572.652324 288.18148 
L 561.39484 292.24999 
L 550.137356 296.318499 
L 538.879872 300.387135 
L 527.622388 304.458518 
L 516.364904 308.529902 
L 505.107421 312.601286 
L 493.849937 316.672669 
L 482.592453 320.744053 
L 471.334969 324.81863 
L 460.077485 328.893525 
L 448.820001 332.968421 
L 437.562517 337.043316 
L 426.305033 341.118212 
L 415.047549 345.054888 
L 403.790065 348.913907 
L 392.532581 352.772926 
L 381.275097 356.632516 
L 370.017613 360.618052 
L 358.760129 364.569403 
L 347.502645 368.417113 
L 336.245162 372.264823 
L 324.987678 376.112533 
L 313.730194 380.04472 
L 302.47271 384.009824 
L 291.215226 387.751652 
L 279.957742 391.518456 
L 268.700258 395.355599 
L 257.442774 399.376741 
L 246.18529 403.386303 
L 234.927806 407.144751 
L 223.670322 411.09725 
L 212.412838 414.939665 
L 201.155354 418.796067 
L 189.89787 422.323963 
L 178.640387 425.924778 
L 167.382903 429.347286 
L 156.125419 432.115067 
L 144.867935 434.555683 
L 133.610451 436.68786 
L 122.352967 438.628311 
L 111.095483 440.329035 
z
" clip-path="url(#p710bb0779d)" style="fill: #daa520; fill-opacity: 0.15"/>
   </g>
   <g id="matplotlib.axis_1">
    <g id="xtick_1">
     <g id="line2d_1">
      <path d="M 109.900481 515.7575 
L 109.900481 39.3575 
" clip-path="url(#p710bb0779d)" style="fill: none; stroke: #b0b0b0; stroke-width: 0.8; stroke-linecap: square"/>
     </g>
     <g id="line2d_2">
      <defs>
       <path id="m0134989284" d="M 0 0 
L 0 3.5 
" style="stroke: #000000; stroke-width: 0.8"/>
      </defs>
      <g>
       <use xlink:href="#m0134989284" x="109.900481" y="515.7575" style="stroke: #000000; stroke-width: 0.8"/>
      </g>
     </g>
     <g id="text_1">
      <!-- 0.0 -->
      <g transform="translate(101.723918 530.355937) scale(0.1 -0.1)">
       <defs>
        <path id="Verdana-30" d="M 3647 2328 
Q 3647 1075 3255 489 
Q 2863 -97 2038 -97 
Q 1200 -97 814 497 
Q 428 1091 428 2322 
Q 428 3563 818 4155 
Q 1209 4747 2038 4747 
Q 2875 4747 3261 4145 
Q 3647 3544 3647 2328 
z
M 2825 909 
Q 2934 1163 2973 1505 
Q 3013 1847 3013 2328 
Q 3013 2803 2973 3153 
Q 2934 3503 2822 3747 
Q 2713 3988 2523 4109 
Q 2334 4231 2038 4231 
Q 1744 4231 1551 4109 
Q 1359 3988 1247 3741 
Q 1141 3509 1102 3137 
Q 1063 2766 1063 2322 
Q 1063 1834 1097 1506 
Q 1131 1178 1244 919 
Q 1347 675 1536 547 
Q 1725 419 2038 419 
Q 2331 419 2525 541 
Q 2719 663 2825 909 
z
" transform="scale(0.015625)"/>
        <path id="Verdana-2e" d="M 1538 0 
L 791 0 
L 791 891 
L 1538 891 
L 1538 0 
z
" transform="scale(0.015625)"/>
       </defs>
       <use xlink:href="#Verdana-30"/>
       <use xlink:href="#Verdana-2e" x="63.574219"/>
       <use xlink:href="#Verdana-30" x="99.951172"/>
      </g>
     </g>
    </g>
    <g id="xtick_2">
     <g id="line2d_3">
      <path d="M 381.930288 515.7575 
L 381.930288 39.3575 
" clip-path="url(#p710bb0779d)" style="fill: none; stroke: #b0b0b0; stroke-width: 0.8; stroke-linecap: square"/>
     </g>
     <g id="line2d_4">
      <g>
       <use xlink:href="#m0134989284" x="381.930288" y="515.7575" style="stroke: #000000; stroke-width: 0.8"/>
      </g>
     </g>
     <g id="text_2">
      <!-- 0.5 -->
      <g transform="translate(373.753726 530.355937) scale(0.1 -0.1)">
       <defs>
        <path id="Verdana-35" d="M 3616 1478 
Q 3616 1153 3497 856 
Q 3378 559 3172 356 
Q 2947 138 2636 20 
Q 2325 -97 1916 -97 
Q 1534 -97 1181 -17 
Q 828 63 584 175 
L 584 834 
L 628 834 
Q 884 672 1228 558 
Q 1572 444 1903 444 
Q 2125 444 2333 506 
Q 2541 569 2703 725 
Q 2841 859 2911 1046 
Q 2981 1234 2981 1481 
Q 2981 1722 2898 1887 
Q 2816 2053 2669 2153 
Q 2506 2272 2273 2320 
Q 2041 2369 1753 2369 
Q 1478 2369 1223 2331 
Q 969 2294 784 2256 
L 784 4653 
L 3584 4653 
L 3584 4106 
L 1388 4106 
L 1388 2869 
Q 1522 2881 1662 2887 
Q 1803 2894 1906 2894 
Q 2284 2894 2568 2830 
Q 2853 2766 3091 2603 
Q 3341 2431 3478 2159 
Q 3616 1888 3616 1478 
z
" transform="scale(0.015625)"/>
       </defs>
       <use xlink:href="#Verdana-30"/>
       <use xlink:href="#Verdana-2e" x="63.574219"/>
       <use xlink:href="#Verdana-35" x="99.951172"/>
      </g>
     </g>
    </g>
    <g id="xtick_3">
     <g id="line2d_5">
      <path d="M 653.960096 515.7575 
L 653.960096 39.3575 
" clip-path="url(#p710bb0779d)" style="fill: none; stroke: #b0b0b0; stroke-width: 0.8; stroke-linecap: square"/>
     </g>
     <g id="line2d_6">
      <g>
       <use xlink:href="#m0134989284" x="653.960096" y="515.7575" style="stroke: #000000; stroke-width: 0.8"/>
      </g>
     </g>
     <g id="text_3">
      <!-- 1.0 -->
      <g transform="translate(645.783533 530.355937) scale(0.1 -0.1)">
       <defs>
        <path id="Verdana-31" d="M 3388 0 
L 869 0 
L 869 475 
L 1838 475 
L 1838 3594 
L 869 3594 
L 869 4019 
Q 1066 4019 1291 4051 
Q 1516 4084 1631 4147 
Q 1775 4225 1858 4345 
Q 1941 4466 1953 4669 
L 2438 4669 
L 2438 475 
L 3388 475 
L 3388 0 
z
" transform="scale(0.015625)"/>
       </defs>
       <use xlink:href="#Verdana-31"/>
       <use xlink:href="#Verdana-2e" x="63.574219"/>
       <use xlink:href="#Verdana-30" x="99.951172"/>
      </g>
     </g>
    </g>
    <g id="xtick_4">
     <g id="line2d_7">
      <path d="M 925.989903 515.7575 
L 925.989903 39.3575 
" clip-path="url(#p710bb0779d)" style="fill: none; stroke: #b0b0b0; stroke-width: 0.8; stroke-linecap: square"/>
     </g>
     <g id="line2d_8">
      <g>
       <use xlink:href="#m0134989284" x="925.989903" y="515.7575" style="stroke: #000000; stroke-width: 0.8"/>
      </g>
     </g>
     <g id="text_4">
      <!-- 1.5 -->
      <g transform="translate(917.813341 530.355937) scale(0.1 -0.1)">
       <use xlink:href="#Verdana-31"/>
       <use xlink:href="#Verdana-2e" x="63.574219"/>
       <use xlink:href="#Verdana-35" x="99.951172"/>
      </g>
     </g>
    </g>
    <g id="xtick_5">
     <g id="line2d_9">
      <path d="M 1198.019711 515.7575 
L 1198.019711 39.3575 
" clip-path="url(#p710bb0779d)" style="fill: none; stroke: #b0b0b0; stroke-width: 0.8; stroke-linecap: square"/>
     </g>
     <g id="line2d_10">
      <g>
       <use xlink:href="#m0134989284" x="1198.019711" y="515.7575" style="stroke: #000000; stroke-width: 0.8"/>
      </g>
     </g>
     <g id="text_5">
      <!-- 2.0 -->
      <g transform="translate(1189.843148 530.355937) scale(0.1 -0.1)">
       <defs>
        <path id="Verdana-32" d="M 3653 0 
L 503 0 
L 503 653 
Q 831 934 1161 1215 
Q 1491 1497 1775 1775 
Q 2375 2356 2597 2698 
Q 2819 3041 2819 3438 
Q 2819 3800 2580 4004 
Q 2341 4209 1913 4209 
Q 1628 4209 1297 4109 
Q 966 4009 650 3803 
L 619 3803 
L 619 4459 
Q 841 4569 1211 4659 
Q 1581 4750 1928 4750 
Q 2644 4750 3050 4404 
Q 3456 4059 3456 3469 
Q 3456 3203 3389 2973 
Q 3322 2744 3191 2538 
Q 3069 2344 2905 2156 
Q 2741 1969 2506 1741 
Q 2172 1413 1815 1105 
Q 1459 797 1150 534 
L 3653 534 
L 3653 0 
z
" transform="scale(0.015625)"/>
       </defs>
       <use xlink:href="#Verdana-32"/>
       <use xlink:href="#Verdana-2e" x="63.574219"/>
       <use xlink:href="#Verdana-30" x="99.951172"/>
      </g>
     </g>
    </g>
    <g id="text_6">
     <!-- Assessed Total Value per km² -->
     <g transform="translate(551.334844 558.00625) scale(0.14 -0.14)">
      <defs>
       <path id="Verdana-Bold-41" d="M 4894 0 
L 3653 0 
L 3331 941 
L 1606 941 
L 1284 0 
L 75 0 
L 1794 4653 
L 3175 4653 
L 4894 0 
z
M 3041 1794 
L 2469 3463 
L 1897 1794 
L 3041 1794 
z
" transform="scale(0.015625)"/>
       <path id="Verdana-Bold-73" d="M 3581 1113 
Q 3581 569 3093 236 
Q 2606 -97 1759 -97 
Q 1291 -97 909 -9 
Q 528 78 297 184 
L 297 1109 
L 400 1109 
Q 484 1050 595 979 
Q 706 909 909 828 
Q 1084 756 1306 704 
Q 1528 653 1781 653 
Q 2113 653 2272 726 
Q 2431 800 2431 944 
Q 2431 1072 2337 1130 
Q 2244 1188 1981 1241 
Q 1856 1269 1642 1301 
Q 1428 1334 1253 1381 
Q 775 1506 544 1770 
Q 313 2034 313 2428 
Q 313 2934 792 3270 
Q 1272 3606 2103 3606 
Q 2497 3606 2858 3526 
Q 3219 3447 3422 3356 
L 3422 2469 
L 3325 2469 
Q 3075 2641 2754 2748 
Q 2434 2856 2106 2856 
Q 1834 2856 1648 2781 
Q 1463 2706 1463 2569 
Q 1463 2444 1547 2378 
Q 1631 2313 1944 2247 
Q 2116 2213 2314 2180 
Q 2513 2147 2713 2097 
Q 3156 1981 3368 1732 
Q 3581 1484 3581 1113 
z
" transform="scale(0.015625)"/>
       <path id="Verdana-Bold-65" d="M 3988 1547 
L 1413 1547 
Q 1438 1134 1727 915 
Q 2016 697 2578 697 
Q 2934 697 3268 825 
Q 3603 953 3797 1100 
L 3922 1100 
L 3922 197 
Q 3541 44 3203 -25 
Q 2866 -94 2456 -94 
Q 1400 -94 837 381 
Q 275 856 275 1734 
Q 275 2603 808 3111 
Q 1341 3619 2269 3619 
Q 3125 3619 3556 3186 
Q 3988 2753 3988 1941 
L 3988 1547 
z
M 2869 2206 
Q 2859 2559 2693 2737 
Q 2528 2916 2178 2916 
Q 1853 2916 1643 2747 
Q 1434 2578 1409 2206 
L 2869 2206 
z
" transform="scale(0.015625)"/>
       <path id="Verdana-Bold-64" d="M 3944 0 
L 2819 0 
L 2819 366 
Q 2528 128 2275 15 
Q 2022 -97 1691 -97 
Q 1050 -97 665 397 
Q 281 891 281 1728 
Q 281 2175 411 2520 
Q 541 2866 766 3113 
Q 978 3347 1281 3476 
Q 1584 3606 1888 3606 
Q 2203 3606 2404 3539 
Q 2606 3472 2819 3369 
L 2819 4863 
L 3944 4863 
L 3944 0 
z
M 2819 969 
L 2819 2691 
Q 2700 2741 2569 2762 
Q 2438 2784 2328 2784 
Q 1884 2784 1662 2507 
Q 1441 2231 1441 1741 
Q 1441 1225 1619 992 
Q 1797 759 2191 759 
Q 2344 759 2516 817 
Q 2688 875 2819 969 
z
" transform="scale(0.015625)"/>
       <path id="Verdana-Bold-20" transform="scale(0.015625)"/>
       <path id="Verdana-Bold-54" d="M 4234 3753 
L 2781 3753 
L 2781 0 
L 1581 0 
L 1581 3753 
L 128 3753 
L 128 4653 
L 4234 4653 
L 4234 3753 
z
" transform="scale(0.015625)"/>
       <path id="Verdana-Bold-6f" d="M 4119 1753 
Q 4119 888 3614 389 
Q 3109 -109 2197 -109 
Q 1284 -109 779 389 
Q 275 888 275 1753 
Q 275 2625 783 3122 
Q 1291 3619 2197 3619 
Q 3116 3619 3617 3119 
Q 4119 2619 4119 1753 
z
M 2734 900 
Q 2844 1034 2898 1223 
Q 2953 1413 2953 1747 
Q 2953 2056 2897 2265 
Q 2841 2475 2741 2600 
Q 2641 2728 2500 2781 
Q 2359 2834 2197 2834 
Q 2034 2834 1907 2790 
Q 1781 2747 1666 2616 
Q 1563 2494 1502 2281 
Q 1441 2069 1441 1747 
Q 1441 1459 1494 1248 
Q 1547 1038 1650 909 
Q 1750 788 1889 731 
Q 2028 675 2206 675 
Q 2359 675 2498 726 
Q 2638 778 2734 900 
z
" transform="scale(0.015625)"/>
       <path id="Verdana-Bold-74" d="M 2775 31 
Q 2594 -16 2391 -42 
Q 2188 -69 1894 -69 
Q 1238 -69 917 197 
Q 597 463 597 1106 
L 597 2747 
L 134 2747 
L 134 3509 
L 597 3509 
L 597 4513 
L 1722 4513 
L 1722 3509 
L 2775 3509 
L 2775 2747 
L 1722 2747 
L 1722 1503 
Q 1722 1319 1725 1181 
Q 1728 1044 1775 934 
Q 1819 825 1930 761 
Q 2041 697 2253 697 
Q 2341 697 2483 734 
Q 2625 772 2681 803 
L 2775 803 
L 2775 31 
z
" transform="scale(0.015625)"/>
       <path id="Verdana-Bold-61" d="M 2656 916 
L 2656 1647 
Q 2428 1628 2162 1595 
Q 1897 1563 1759 1519 
Q 1591 1466 1502 1364 
Q 1413 1263 1413 1097 
Q 1413 988 1431 919 
Q 1450 850 1525 788 
Q 1597 725 1697 695 
Q 1797 666 2009 666 
Q 2178 666 2351 734 
Q 2525 803 2656 916 
z
M 2656 372 
Q 2566 303 2431 206 
Q 2297 109 2178 53 
Q 2013 -22 1834 -58 
Q 1656 -94 1444 -94 
Q 944 -94 606 215 
Q 269 525 269 1006 
Q 269 1391 441 1634 
Q 613 1878 928 2019 
Q 1241 2159 1703 2218 
Q 2166 2278 2663 2306 
L 2663 2325 
Q 2663 2616 2425 2727 
Q 2188 2838 1725 2838 
Q 1447 2838 1131 2739 
Q 816 2641 678 2588 
L 575 2588 
L 575 3434 
Q 753 3481 1154 3545 
Q 1556 3609 1959 3609 
Q 2919 3609 3345 3314 
Q 3772 3019 3772 2388 
L 3772 0 
L 2656 0 
L 2656 372 
z
" transform="scale(0.015625)"/>
       <path id="Verdana-Bold-6c" d="M 1656 0 
L 531 0 
L 531 4863 
L 1656 4863 
L 1656 0 
z
" transform="scale(0.015625)"/>
       <path id="Verdana-Bold-56" d="M 4813 4653 
L 3116 0 
L 1772 0 
L 75 4653 
L 1334 4653 
L 2459 1384 
L 3584 4653 
L 4813 4653 
z
" transform="scale(0.015625)"/>
       <path id="Verdana-Bold-75" d="M 4028 0 
L 2903 0 
L 2903 388 
Q 2591 150 2331 26 
Q 2072 -97 1713 -97 
Q 1131 -97 817 237 
Q 503 572 503 1225 
L 503 3509 
L 1634 3509 
L 1634 1769 
Q 1634 1503 1651 1326 
Q 1669 1150 1731 1034 
Q 1791 919 1911 866 
Q 2031 813 2247 813 
Q 2391 813 2566 866 
Q 2741 919 2903 1022 
L 2903 3509 
L 4028 3509 
L 4028 0 
z
" transform="scale(0.015625)"/>
       <path id="Verdana-Bold-70" d="M 4194 1803 
Q 4194 1369 4061 1012 
Q 3928 656 3713 425 
Q 3488 181 3203 56 
Q 2919 -69 2594 -69 
Q 2294 -69 2084 -5 
Q 1875 59 1656 175 
L 1656 -1288 
L 531 -1288 
L 531 3509 
L 1656 3509 
L 1656 3144 
Q 1916 3350 2186 3478 
Q 2456 3606 2809 3606 
Q 3466 3606 3830 3125 
Q 4194 2644 4194 1803 
z
M 3034 1781 
Q 3034 2294 2859 2525 
Q 2684 2756 2306 2756 
Q 2147 2756 1978 2707 
Q 1809 2659 1656 2569 
L 1656 803 
Q 1769 759 1897 746 
Q 2025 734 2150 734 
Q 2597 734 2815 995 
Q 3034 1256 3034 1781 
z
" transform="scale(0.015625)"/>
       <path id="Verdana-Bold-72" d="M 3075 2438 
L 2975 2438 
Q 2903 2463 2743 2475 
Q 2584 2488 2478 2488 
Q 2238 2488 2053 2456 
Q 1869 2425 1656 2350 
L 1656 0 
L 531 0 
L 531 3509 
L 1656 3509 
L 1656 2994 
Q 2028 3313 2303 3417 
Q 2578 3522 2809 3522 
Q 2869 3522 2944 3519 
Q 3019 3516 3075 3509 
L 3075 2438 
z
" transform="scale(0.015625)"/>
       <path id="Verdana-Bold-6b" d="M 4256 0 
L 2947 0 
L 1963 1528 
L 1656 1156 
L 1656 0 
L 531 0 
L 531 4863 
L 1656 4863 
L 1656 1959 
L 2869 3509 
L 4166 3509 
L 2903 1997 
L 4256 0 
z
" transform="scale(0.015625)"/>
       <path id="Verdana-Bold-6d" d="M 3963 2488 
L 3963 0 
L 2831 0 
L 2831 1753 
Q 2831 2009 2818 2189 
Q 2806 2369 2750 2481 
Q 2694 2594 2580 2645 
Q 2466 2697 2259 2697 
Q 2094 2697 1937 2630 
Q 1781 2563 1656 2488 
L 1656 0 
L 531 0 
L 531 3509 
L 1656 3509 
L 1656 3122 
Q 1947 3350 2212 3478 
Q 2478 3606 2800 3606 
Q 3147 3606 3412 3451 
Q 3678 3297 3828 2997 
Q 4166 3281 4484 3443 
Q 4803 3606 5109 3606 
Q 5678 3606 5973 3265 
Q 6269 2925 6269 2284 
L 6269 0 
L 5138 0 
L 5138 1753 
Q 5138 2013 5127 2191 
Q 5116 2369 5059 2481 
Q 5006 2594 4890 2645 
Q 4775 2697 4566 2697 
Q 4425 2697 4290 2648 
Q 4156 2600 3963 2488 
z
" transform="scale(0.015625)"/>
       <path id="Verdana-Bold-b2" d="M 3241 1769 
L 719 1769 
L 719 2359 
Q 934 2488 1168 2638 
Q 1403 2788 1566 2916 
Q 1916 3188 2002 3352 
Q 2088 3516 2088 3684 
Q 2088 3869 1961 3967 
Q 1834 4066 1588 4066 
Q 1409 4066 1195 3991 
Q 981 3916 809 3816 
L 738 3816 
L 738 4556 
Q 941 4628 1239 4687 
Q 1538 4747 1838 4747 
Q 2416 4747 2730 4519 
Q 3044 4291 3044 3853 
Q 3044 3600 2934 3369 
Q 2825 3138 2450 2809 
Q 2344 2716 2189 2605 
Q 2034 2494 1922 2413 
L 3241 2413 
L 3241 1769 
z
" transform="scale(0.015625)"/>
      </defs>
      <use xlink:href="#Verdana-Bold-41"/>
      <use xlink:href="#Verdana-Bold-73" x="77.636719"/>
      <use xlink:href="#Verdana-Bold-73" x="136.962891"/>
      <use xlink:href="#Verdana-Bold-65" x="196.289062"/>
      <use xlink:href="#Verdana-Bold-73" x="262.695312"/>
      <use xlink:href="#Verdana-Bold-73" x="322.021484"/>
      <use xlink:href="#Verdana-Bold-65" x="381.347656"/>
      <use xlink:href="#Verdana-Bold-64" x="447.753906"/>
      <use xlink:href="#Verdana-Bold-20" x="517.675781"/>
      <use xlink:href="#Verdana-Bold-54" x="551.855469"/>
      <use xlink:href="#Verdana-Bold-6f" x="620.019531"/>
      <use xlink:href="#Verdana-Bold-74" x="688.671875"/>
      <use xlink:href="#Verdana-Bold-61" x="734.228516"/>
      <use xlink:href="#Verdana-Bold-6c" x="801.025391"/>
      <use xlink:href="#Verdana-Bold-20" x="835.205078"/>
      <use xlink:href="#Verdana-Bold-56" x="869.384766"/>
      <use xlink:href="#Verdana-Bold-61" x="945.751953"/>
      <use xlink:href="#Verdana-Bold-6c" x="1012.548828"/>
      <use xlink:href="#Verdana-Bold-75" x="1046.728516"/>
      <use xlink:href="#Verdana-Bold-65" x="1117.96875"/>
      <use xlink:href="#Verdana-Bold-20" x="1184.375"/>
      <use xlink:href="#Verdana-Bold-70" x="1218.554688"/>
      <use xlink:href="#Verdana-Bold-65" x="1288.476562"/>
      <use xlink:href="#Verdana-Bold-72" x="1354.882812"/>
      <use xlink:href="#Verdana-Bold-20" x="1404.589844"/>
      <use xlink:href="#Verdana-Bold-6b" x="1438.769531"/>
      <use xlink:href="#Verdana-Bold-6d" x="1505.859375"/>
      <use xlink:href="#Verdana-Bold-b2" x="1611.669922"/>
     </g>
    </g>
    <g id="text_7">
     <!-- 1e10 -->
     <g transform="translate(1256.279688 542.966875) scale(0.1 -0.1)">
      <defs>
       <path id="Verdana-65" d="M 3500 1684 
L 928 1684 
Q 928 1363 1025 1123 
Q 1122 884 1291 731 
Q 1453 581 1676 506 
Q 1900 431 2169 431 
Q 2525 431 2886 573 
Q 3247 716 3400 853 
L 3431 853 
L 3431 213 
Q 3134 88 2825 3 
Q 2516 -81 2175 -81 
Q 1306 -81 818 389 
Q 331 859 331 1725 
Q 331 2581 798 3084 
Q 1266 3588 2028 3588 
Q 2734 3588 3117 3175 
Q 3500 2763 3500 2003 
L 3500 1684 
z
M 2928 2134 
Q 2925 2597 2695 2850 
Q 2466 3103 1997 3103 
Q 1525 3103 1245 2825 
Q 966 2547 928 2134 
L 2928 2134 
z
" transform="scale(0.015625)"/>
      </defs>
      <use xlink:href="#Verdana-31"/>
      <use xlink:href="#Verdana-65" x="63.574219"/>
      <use xlink:href="#Verdana-31" x="123.144531"/>
      <use xlink:href="#Verdana-30" x="186.71875"/>
     </g>
    </g>
   </g>
   <g id="matplotlib.axis_2">
    <g id="ytick_1">
     <g id="line2d_11">
      <path d="M 55.370938 495.156391 
L 1281.310938 495.156391 
" clip-path="url(#p710bb0779d)" style="fill: none; stroke: #b0b0b0; stroke-width: 0.8; stroke-linecap: square"/>
     </g>
     <g id="line2d_12">
      <defs>
       <path id="mc192e2c837" d="M 0 0 
L -3.5 0 
" style="stroke: #000000; stroke-width: 0.8"/>
      </defs>
      <g>
       <use xlink:href="#mc192e2c837" x="55.370938" y="495.156391" style="stroke: #000000; stroke-width: 0.8"/>
      </g>
     </g>
     <g id="text_8">
      <!-- 0 -->
      <g transform="translate(42.013125 498.95561) scale(0.1 -0.1)">
       <use xlink:href="#Verdana-30"/>
      </g>
     </g>
    </g>
    <g id="ytick_2">
     <g id="line2d_13">
      <path d="M 55.370938 441.16221 
L 1281.310938 441.16221 
" clip-path="url(#p710bb0779d)" style="fill: none; stroke: #b0b0b0; stroke-width: 0.8; stroke-linecap: square"/>
     </g>
     <g id="line2d_14">
      <g>
       <use xlink:href="#mc192e2c837" x="55.370938" y="441.16221" style="stroke: #000000; stroke-width: 0.8"/>
      </g>
     </g>
     <g id="text_9">
      <!-- 10 -->
      <g transform="translate(35.655313 444.961429) scale(0.1 -0.1)">
       <use xlink:href="#Verdana-31"/>
       <use xlink:href="#Verdana-30" x="63.574219"/>
      </g>
     </g>
    </g>
    <g id="ytick_3">
     <g id="line2d_15">
      <path d="M 55.370938 387.168029 
L 1281.310938 387.168029 
" clip-path="url(#p710bb0779d)" style="fill: none; stroke: #b0b0b0; stroke-width: 0.8; stroke-linecap: square"/>
     </g>
     <g id="line2d_16">
      <g>
       <use xlink:href="#mc192e2c837" x="55.370938" y="387.168029" style="stroke: #000000; stroke-width: 0.8"/>
      </g>
     </g>
     <g id="text_10">
      <!-- 20 -->
      <g transform="translate(35.655313 390.967247) scale(0.1 -0.1)">
       <use xlink:href="#Verdana-32"/>
       <use xlink:href="#Verdana-30" x="63.574219"/>
      </g>
     </g>
    </g>
    <g id="ytick_4">
     <g id="line2d_17">
      <path d="M 55.370938 333.173848 
L 1281.310938 333.173848 
" clip-path="url(#p710bb0779d)" style="fill: none; stroke: #b0b0b0; stroke-width: 0.8; stroke-linecap: square"/>
     </g>
     <g id="line2d_18">
      <g>
       <use xlink:href="#mc192e2c837" x="55.370938" y="333.173848" style="stroke: #000000; stroke-width: 0.8"/>
      </g>
     </g>
     <g id="text_11">
      <!-- 30 -->
      <g transform="translate(35.655313 336.973066) scale(0.1 -0.1)">
       <defs>
        <path id="Verdana-33" d="M 3244 2241 
Q 3394 2106 3491 1903 
Q 3588 1700 3588 1378 
Q 3588 1059 3472 793 
Q 3356 528 3147 331 
Q 2913 113 2595 8 
Q 2278 -97 1900 -97 
Q 1513 -97 1138 -4 
Q 763 88 522 197 
L 522 850 
L 569 850 
Q 834 675 1193 559 
Q 1553 444 1888 444 
Q 2084 444 2306 509 
Q 2528 575 2666 703 
Q 2809 841 2879 1006 
Q 2950 1172 2950 1425 
Q 2950 1675 2870 1839 
Q 2791 2003 2650 2097 
Q 2509 2194 2309 2230 
Q 2109 2266 1878 2266 
L 1597 2266 
L 1597 2784 
L 1816 2784 
Q 2291 2784 2573 2982 
Q 2856 3181 2856 3563 
Q 2856 3731 2784 3857 
Q 2713 3984 2584 4066 
Q 2450 4147 2297 4178 
Q 2144 4209 1950 4209 
Q 1653 4209 1318 4103 
Q 984 3997 688 3803 
L 656 3803 
L 656 4456 
Q 878 4566 1248 4658 
Q 1619 4750 1966 4750 
Q 2306 4750 2565 4687 
Q 2825 4625 3034 4488 
Q 3259 4338 3375 4125 
Q 3491 3913 3491 3628 
Q 3491 3241 3217 2952 
Q 2944 2663 2572 2588 
L 2572 2544 
Q 2722 2519 2915 2439 
Q 3109 2359 3244 2241 
z
" transform="scale(0.015625)"/>
       </defs>
       <use xlink:href="#Verdana-33"/>
       <use xlink:href="#Verdana-30" x="63.574219"/>
      </g>
     </g>
    </g>
    <g id="ytick_5">
     <g id="line2d_19">
      <path d="M 55.370938 279.179666 
L 1281.310938 279.179666 
" clip-path="url(#p710bb0779d)" style="fill: none; stroke: #b0b0b0; stroke-width: 0.8; stroke-linecap: square"/>
     </g>
     <g id="line2d_20">
      <g>
       <use xlink:href="#mc192e2c837" x="55.370938" y="279.179666" style="stroke: #000000; stroke-width: 0.8"/>
      </g>
     </g>
     <g id="text_12">
      <!-- 40 -->
      <g transform="translate(35.655313 282.978885) scale(0.1 -0.1)">
       <defs>
        <path id="Verdana-34" d="M 3759 1309 
L 3069 1309 
L 3069 0 
L 2469 0 
L 2469 1309 
L 241 1309 
L 241 2028 
L 2494 4653 
L 3069 4653 
L 3069 1809 
L 3759 1809 
L 3759 1309 
z
M 2469 1809 
L 2469 3909 
L 666 1809 
L 2469 1809 
z
" transform="scale(0.015625)"/>
       </defs>
       <use xlink:href="#Verdana-34"/>
       <use xlink:href="#Verdana-30" x="63.574219"/>
      </g>
     </g>
    </g>
    <g id="ytick_6">
     <g id="line2d_21">
      <path d="M 55.370938 225.185485 
L 1281.310938 225.185485 
" clip-path="url(#p710bb0779d)" style="fill: none; stroke: #b0b0b0; stroke-width: 0.8; stroke-linecap: square"/>
     </g>
     <g id="line2d_22">
      <g>
       <use xlink:href="#mc192e2c837" x="55.370938" y="225.185485" style="stroke: #000000; stroke-width: 0.8"/>
      </g>
     </g>
     <g id="text_13">
      <!-- 50 -->
      <g transform="translate(35.655313 228.984704) scale(0.1 -0.1)">
       <use xlink:href="#Verdana-35"/>
       <use xlink:href="#Verdana-30" x="63.574219"/>
      </g>
     </g>
    </g>
    <g id="ytick_7">
     <g id="line2d_23">
      <path d="M 55.370938 171.191304 
L 1281.310938 171.191304 
" clip-path="url(#p710bb0779d)" style="fill: none; stroke: #b0b0b0; stroke-width: 0.8; stroke-linecap: square"/>
     </g>
     <g id="line2d_24">
      <g>
       <use xlink:href="#mc192e2c837" x="55.370938" y="171.191304" style="stroke: #000000; stroke-width: 0.8"/>
      </g>
     </g>
     <g id="text_14">
      <!-- 60 -->
      <g transform="translate(35.655313 174.990523) scale(0.1 -0.1)">
       <defs>
        <path id="Verdana-36" d="M 3722 1509 
Q 3722 800 3255 351 
Q 2788 -97 2109 -97 
Q 1766 -97 1484 9 
Q 1203 116 988 325 
Q 719 584 573 1012 
Q 428 1441 428 2044 
Q 428 2663 561 3141 
Q 694 3619 984 3991 
Q 1259 4344 1693 4542 
Q 2128 4741 2706 4741 
Q 2891 4741 3016 4725 
Q 3141 4709 3269 4669 
L 3269 4072 
L 3238 4072 
Q 3150 4119 2973 4161 
Q 2797 4203 2613 4203 
Q 1941 4203 1541 3783 
Q 1141 3363 1075 2647 
Q 1338 2806 1592 2889 
Q 1847 2972 2181 2972 
Q 2478 2972 2704 2917 
Q 2931 2863 3169 2697 
Q 3444 2506 3583 2215 
Q 3722 1925 3722 1509 
z
M 3088 1484 
Q 3088 1775 3002 1965 
Q 2916 2156 2719 2297 
Q 2575 2397 2400 2428 
Q 2225 2459 2034 2459 
Q 1769 2459 1541 2396 
Q 1313 2334 1072 2203 
Q 1066 2134 1062 2070 
Q 1059 2006 1059 1909 
Q 1059 1416 1161 1130 
Q 1263 844 1441 678 
Q 1584 541 1751 477 
Q 1919 413 2116 413 
Q 2569 413 2828 689 
Q 3088 966 3088 1484 
z
" transform="scale(0.015625)"/>
       </defs>
       <use xlink:href="#Verdana-36"/>
       <use xlink:href="#Verdana-30" x="63.574219"/>
      </g>
     </g>
    </g>
    <g id="ytick_8">
     <g id="line2d_25">
      <path d="M 55.370938 117.197123 
L 1281.310938 117.197123 
" clip-path="url(#p710bb0779d)" style="fill: none; stroke: #b0b0b0; stroke-width: 0.8; stroke-linecap: square"/>
     </g>
     <g id="line2d_26">
      <g>
       <use xlink:href="#mc192e2c837" x="55.370938" y="117.197123" style="stroke: #000000; stroke-width: 0.8"/>
      </g>
     </g>
     <g id="text_15">
      <!-- 70 -->
      <g transform="translate(35.655313 120.996342) scale(0.1 -0.1)">
       <defs>
        <path id="Verdana-37" d="M 3666 3956 
L 1559 0 
L 891 0 
L 3131 4106 
L 481 4106 
L 481 4653 
L 3666 4653 
L 3666 3956 
z
" transform="scale(0.015625)"/>
       </defs>
       <use xlink:href="#Verdana-37"/>
       <use xlink:href="#Verdana-30" x="63.574219"/>
      </g>
     </g>
    </g>
    <g id="ytick_9">
     <g id="line2d_27">
      <path d="M 55.370938 63.202942 
L 1281.310938 63.202942 
" clip-path="url(#p710bb0779d)" style="fill: none; stroke: #b0b0b0; stroke-width: 0.8; stroke-linecap: square"/>
     </g>
     <g id="line2d_28">
      <g>
       <use xlink:href="#mc192e2c837" x="55.370938" y="63.202942" style="stroke: #000000; stroke-width: 0.8"/>
      </g>
     </g>
     <g id="text_16">
      <!-- 80 -->
      <g transform="translate(35.655313 67.002161) scale(0.1 -0.1)">
       <defs>
        <path id="Verdana-38" d="M 3688 1297 
Q 3688 694 3217 294 
Q 2747 -106 2034 -106 
Q 1278 -106 829 284 
Q 381 675 381 1284 
Q 381 1672 606 1986 
Q 831 2300 1241 2484 
L 1241 2503 
Q 866 2703 686 2940 
Q 506 3178 506 3534 
Q 506 4059 937 4409 
Q 1369 4759 2034 4759 
Q 2731 4759 3147 4425 
Q 3563 4091 3563 3575 
Q 3563 3259 3366 2954 
Q 3169 2650 2788 2478 
L 2788 2459 
Q 3225 2272 3456 1997 
Q 3688 1722 3688 1297 
z
M 2947 3569 
Q 2947 3903 2689 4101 
Q 2431 4300 2031 4300 
Q 1638 4300 1386 4112 
Q 1134 3925 1134 3606 
Q 1134 3381 1261 3217 
Q 1388 3053 1644 2925 
Q 1759 2869 1976 2778 
Q 2194 2688 2400 2628 
Q 2709 2834 2828 3056 
Q 2947 3278 2947 3569 
z
M 3044 1238 
Q 3044 1525 2917 1698 
Q 2791 1872 2422 2047 
Q 2275 2116 2100 2175 
Q 1925 2234 1634 2341 
Q 1353 2188 1183 1925 
Q 1013 1663 1013 1331 
Q 1013 909 1303 634 
Q 1594 359 2041 359 
Q 2497 359 2770 593 
Q 3044 828 3044 1238 
z
" transform="scale(0.015625)"/>
       </defs>
       <use xlink:href="#Verdana-38"/>
       <use xlink:href="#Verdana-30" x="63.574219"/>
      </g>
     </g>
    </g>
    <g id="text_17">
     <!-- Active Permits per km² -->
     <g transform="translate(17.837813 368.780625) rotate(-90) scale(0.14 -0.14)">
      <defs>
       <path id="Verdana-Bold-63" d="M 2359 -94 
Q 1900 -94 1520 15 
Q 1141 125 859 353 
Q 581 581 428 928 
Q 275 1275 275 1741 
Q 275 2231 439 2587 
Q 603 2944 897 3178 
Q 1181 3400 1553 3503 
Q 1925 3606 2325 3606 
Q 2684 3606 2987 3528 
Q 3291 3450 3553 3325 
L 3553 2366 
L 3394 2366 
Q 3328 2422 3236 2497 
Q 3144 2572 3009 2644 
Q 2881 2713 2728 2758 
Q 2575 2803 2372 2803 
Q 1922 2803 1680 2517 
Q 1438 2231 1438 1741 
Q 1438 1234 1686 971 
Q 1934 709 2391 709 
Q 2603 709 2773 757 
Q 2944 806 3056 872 
Q 3163 934 3244 1003 
Q 3325 1072 3394 1138 
L 3553 1138 
L 3553 178 
Q 3288 53 2998 -20 
Q 2709 -94 2359 -94 
z
" transform="scale(0.015625)"/>
       <path id="Verdana-Bold-69" d="M 1656 0 
L 531 0 
L 531 3509 
L 1656 3509 
L 1656 0 
z
M 1688 4009 
L 500 4009 
L 500 4863 
L 1688 4863 
L 1688 4009 
z
" transform="scale(0.015625)"/>
       <path id="Verdana-Bold-76" d="M 4066 3509 
L 2713 0 
L 1438 0 
L 94 3509 
L 1284 3509 
L 2097 1097 
L 2900 3509 
L 4066 3509 
z
" transform="scale(0.015625)"/>
       <path id="Verdana-Bold-50" d="M 4434 3184 
Q 4434 2872 4325 2573 
Q 4216 2275 4013 2072 
Q 3734 1797 3392 1656 
Q 3050 1516 2541 1516 
L 1794 1516 
L 1794 0 
L 594 0 
L 594 4653 
L 2569 4653 
Q 3013 4653 3317 4576 
Q 3622 4500 3856 4347 
Q 4138 4163 4286 3875 
Q 4434 3588 4434 3184 
z
M 3194 3156 
Q 3194 3353 3087 3495 
Q 2981 3638 2841 3694 
Q 2653 3769 2475 3776 
Q 2297 3784 2000 3784 
L 1794 3784 
L 1794 2391 
L 2138 2391 
Q 2444 2391 2642 2428 
Q 2841 2466 2975 2578 
Q 3091 2678 3142 2817 
Q 3194 2956 3194 3156 
z
" transform="scale(0.015625)"/>
      </defs>
      <use xlink:href="#Verdana-Bold-41"/>
      <use xlink:href="#Verdana-Bold-63" x="77.636719"/>
      <use xlink:href="#Verdana-Bold-74" x="136.474609"/>
      <use xlink:href="#Verdana-Bold-69" x="182.03125"/>
      <use xlink:href="#Verdana-Bold-76" x="216.210938"/>
      <use xlink:href="#Verdana-Bold-65" x="281.201172"/>
      <use xlink:href="#Verdana-Bold-20" x="347.607422"/>
      <use xlink:href="#Verdana-Bold-50" x="381.787109"/>
      <use xlink:href="#Verdana-Bold-65" x="455.078125"/>
      <use xlink:href="#Verdana-Bold-72" x="521.484375"/>
      <use xlink:href="#Verdana-Bold-6d" x="571.191406"/>
      <use xlink:href="#Verdana-Bold-69" x="677.001953"/>
      <use xlink:href="#Verdana-Bold-74" x="711.181641"/>
      <use xlink:href="#Verdana-Bold-73" x="756.738281"/>
      <use xlink:href="#Verdana-Bold-20" x="816.064453"/>
      <use xlink:href="#Verdana-Bold-70" x="850.244141"/>
      <use xlink:href="#Verdana-Bold-65" x="920.166016"/>
      <use xlink:href="#Verdana-Bold-72" x="986.572266"/>
      <use xlink:href="#Verdana-Bold-20" x="1036.279297"/>
      <use xlink:href="#Verdana-Bold-6b" x="1070.458984"/>
      <use xlink:href="#Verdana-Bold-6d" x="1137.548828"/>
      <use xlink:href="#Verdana-Bold-b2" x="1243.359375"/>
     </g>
    </g>
   </g>
   <g id="line2d_29">
    <path d="M 111.095483 446.917685 
L 122.352967 444.698065 
L 133.610451 442.478445 
L 144.867935 440.258826 
L 156.125419 438.039206 
L 167.382903 435.819586 
L 178.640387 433.599967 
L 189.89787 431.380347 
L 201.155354 429.160727 
L 212.412838 426.941108 
L 223.670322 424.721488 
L 234.927806 422.501868 
L 246.18529 420.282249 
L 257.442774 418.062629 
L 268.700258 415.843009 
L 279.957742 413.62339 
L 291.215226 411.40377 
L 302.47271 409.18415 
L 313.730194 406.964531 
L 324.987678 404.744911 
L 336.245162 402.525291 
L 347.502645 400.305672 
L 358.760129 398.086052 
L 370.017613 395.866432 
L 381.275097 393.646813 
L 392.532581 391.427193 
L 403.790065 389.207573 
L 415.047549 386.987954 
L 426.305033 384.768334 
L 437.562517 382.548714 
L 448.820001 380.329095 
L 460.077485 378.109475 
L 471.334969 375.889855 
L 482.592453 373.670236 
L 493.849937 371.450616 
L 505.107421 369.230996 
L 516.364904 367.011377 
L 527.622388 364.791757 
L 538.879872 362.572137 
L 550.137356 360.352518 
L 561.39484 358.132898 
L 572.652324 355.913278 
L 583.909808 353.693659 
L 595.167292 351.474039 
L 606.424776 349.254419 
L 617.68226 347.0348 
L 628.939744 344.81518 
L 640.197228 342.59556 
L 651.454712 340.375941 
L 662.712196 338.156321 
L 673.969679 335.936701 
L 685.227163 333.717082 
L 696.484647 331.497462 
L 707.742131 329.277842 
L 718.999615 327.058223 
L 730.257099 324.838603 
L 741.514583 322.618983 
L 752.772067 320.399364 
L 764.029551 318.179744 
L 775.287035 315.960124 
L 786.544519 313.740505 
L 797.802003 311.520885 
L 809.059487 309.301265 
L 820.316971 307.081646 
L 831.574454 304.862026 
L 842.831938 302.642406 
L 854.089422 300.422787 
L 865.346906 298.203167 
L 876.60439 295.983547 
L 887.861874 293.763928 
L 899.119358 291.544308 
L 910.376842 289.324688 
L 921.634326 287.105069 
L 932.89181 284.885449 
L 944.149294 282.665829 
L 955.406778 280.44621 
L 966.664262 278.22659 
L 977.921746 276.00697 
L 989.17923 273.787351 
L 1000.436713 271.567731 
L 1011.694197 269.348111 
L 1022.951681 267.128492 
L 1034.209165 264.908872 
L 1045.466649 262.689252 
L 1056.724133 260.469633 
L 1067.981617 258.250013 
L 1079.239101 256.030393 
L 1090.496585 253.810774 
L 1101.754069 251.591154 
L 1113.011553 249.371534 
L 1124.269037 247.151915 
L 1135.526521 244.932295 
L 1146.784005 242.712675 
L 1158.041488 240.493056 
L 1169.298972 238.273436 
L 1180.556456 236.053816 
L 1191.81394 233.834197 
L 1203.071424 231.614577 
L 1214.328908 229.394957 
L 1225.586392 227.175338 
" clip-path="url(#p710bb0779d)" style="fill: none; stroke: #daa520; stroke-width: 2.25; stroke-linecap: square"/>
   </g>
   <g id="patch_3">
    <path d="M 55.370938 515.7575 
L 55.370938 39.3575 
" style="fill: none; stroke: #000000; stroke-width: 0.8; stroke-linejoin: miter; stroke-linecap: square"/>
   </g>
   <g id="patch_4">
    <path d="M 1281.310938 515.7575 
L 1281.310938 39.3575 
" style="fill: none; stroke: #000000; stroke-width: 0.8; stroke-linejoin: miter; stroke-linecap: square"/>
   </g>
   <g id="patch_5">
    <path d="M 55.370938 515.7575 
L 1281.310937 515.7575 
" style="fill: none; stroke: #000000; stroke-width: 0.8; stroke-linejoin: miter; stroke-linecap: square"/>
   </g>
   <g id="patch_6">
    <path d="M 55.370938 39.3575 
L 1281.310937 39.3575 
" style="fill: none; stroke: #000000; stroke-width: 0.8; stroke-linejoin: miter; stroke-linecap: square"/>
   </g>
   <g id="text_18">
    <g id="patch_7">
     <path d="M 116.667938 106.215688 
L 244.216688 106.215688 
Q 258.216688 106.215688 258.216688 92.215688 
L 258.216688 63.1775 
Q 258.216688 49.1775 244.216688 49.1775 
L 116.667938 49.1775 
Q 102.667938 49.1775 102.667938 63.1775 
L 102.667938 92.215688 
Q 102.667938 106.215688 116.667938 106.215688 
z
" style="fill: #ffffff; stroke: #000000; stroke-linejoin: miter"/>
    </g>
    <!-- Pearson r: 0.47 -->
    <g transform="translate(116.667938 73.815313) scale(0.14 -0.14)">
     <defs>
      <path id="Verdana-50" d="M 3669 3247 
Q 3669 2938 3561 2673 
Q 3453 2409 3259 2216 
Q 3019 1975 2691 1854 
Q 2363 1734 1863 1734 
L 1244 1734 
L 1244 0 
L 625 0 
L 625 4653 
L 1888 4653 
Q 2306 4653 2597 4583 
Q 2888 4513 3113 4363 
Q 3378 4184 3523 3918 
Q 3669 3653 3669 3247 
z
M 3025 3231 
Q 3025 3472 2940 3650 
Q 2856 3828 2684 3941 
Q 2534 4038 2342 4080 
Q 2150 4122 1856 4122 
L 1244 4122 
L 1244 2263 
L 1766 2263 
Q 2141 2263 2375 2330 
Q 2609 2397 2756 2544 
Q 2903 2694 2964 2859 
Q 3025 3025 3025 3231 
z
" transform="scale(0.015625)"/>
      <path id="Verdana-61" d="M 3291 0 
L 2706 0 
L 2706 372 
Q 2628 319 2495 223 
Q 2363 128 2238 72 
Q 2091 0 1900 -48 
Q 1709 -97 1453 -97 
Q 981 -97 653 215 
Q 325 528 325 1013 
Q 325 1409 495 1654 
Q 666 1900 981 2041 
Q 1300 2181 1747 2231 
Q 2194 2281 2706 2306 
L 2706 2397 
Q 2706 2597 2636 2728 
Q 2566 2859 2434 2934 
Q 2309 3006 2134 3031 
Q 1959 3056 1769 3056 
Q 1538 3056 1253 2995 
Q 969 2934 666 2819 
L 634 2819 
L 634 3416 
Q 806 3463 1131 3519 
Q 1456 3575 1772 3575 
Q 2141 3575 2414 3514 
Q 2688 3453 2888 3306 
Q 3084 3163 3187 2934 
Q 3291 2706 3291 2369 
L 3291 0 
z
M 2706 859 
L 2706 1831 
Q 2438 1816 2073 1784 
Q 1709 1753 1497 1694 
Q 1244 1622 1087 1470 
Q 931 1319 931 1053 
Q 931 753 1112 601 
Q 1294 450 1666 450 
Q 1975 450 2231 570 
Q 2488 691 2706 859 
z
" transform="scale(0.015625)"/>
      <path id="Verdana-72" d="M 2756 2850 
L 2725 2850 
Q 2594 2881 2470 2895 
Q 2347 2909 2178 2909 
Q 1906 2909 1653 2789 
Q 1400 2669 1166 2478 
L 1166 0 
L 578 0 
L 578 3491 
L 1166 3491 
L 1166 2975 
Q 1516 3256 1783 3373 
Q 2050 3491 2328 3491 
Q 2481 3491 2550 3483 
Q 2619 3475 2756 3453 
L 2756 2850 
z
" transform="scale(0.015625)"/>
      <path id="Verdana-73" d="M 3072 1006 
Q 3072 528 2676 222 
Q 2281 -84 1597 -84 
Q 1209 -84 886 8 
Q 563 100 344 209 
L 344 869 
L 375 869 
Q 653 659 993 536 
Q 1334 413 1647 413 
Q 2034 413 2253 538 
Q 2472 663 2472 931 
Q 2472 1138 2353 1244 
Q 2234 1350 1897 1425 
Q 1772 1453 1570 1490 
Q 1369 1528 1203 1572 
Q 744 1694 551 1930 
Q 359 2166 359 2509 
Q 359 2725 448 2915 
Q 538 3106 719 3256 
Q 894 3403 1164 3489 
Q 1434 3575 1769 3575 
Q 2081 3575 2401 3498 
Q 2722 3422 2934 3313 
L 2934 2684 
L 2903 2684 
Q 2678 2850 2356 2964 
Q 2034 3078 1725 3078 
Q 1403 3078 1181 2954 
Q 959 2831 959 2588 
Q 959 2372 1094 2263 
Q 1225 2153 1519 2084 
Q 1681 2047 1882 2009 
Q 2084 1972 2219 1941 
Q 2628 1847 2850 1619 
Q 3072 1388 3072 1006 
z
" transform="scale(0.015625)"/>
      <path id="Verdana-6f" d="M 3553 1744 
Q 3553 891 3115 397 
Q 2678 -97 1944 -97 
Q 1203 -97 767 397 
Q 331 891 331 1744 
Q 331 2597 767 3092 
Q 1203 3588 1944 3588 
Q 2678 3588 3115 3092 
Q 3553 2597 3553 1744 
z
M 2947 1744 
Q 2947 2422 2681 2751 
Q 2416 3081 1944 3081 
Q 1466 3081 1202 2751 
Q 938 2422 938 1744 
Q 938 1088 1203 748 
Q 1469 409 1944 409 
Q 2413 409 2680 745 
Q 2947 1081 2947 1744 
z
" transform="scale(0.015625)"/>
      <path id="Verdana-6e" d="M 3497 0 
L 2909 0 
L 2909 1988 
Q 2909 2228 2881 2439 
Q 2853 2650 2778 2769 
Q 2700 2900 2553 2964 
Q 2406 3028 2172 3028 
Q 1931 3028 1668 2909 
Q 1406 2791 1166 2606 
L 1166 0 
L 578 0 
L 578 3491 
L 1166 3491 
L 1166 3103 
Q 1441 3331 1734 3459 
Q 2028 3588 2338 3588 
Q 2903 3588 3200 3247 
Q 3497 2906 3497 2266 
L 3497 0 
z
" transform="scale(0.015625)"/>
      <path id="Verdana-20" transform="scale(0.015625)"/>
      <path id="Verdana-3a" d="M 1828 2600 
L 1081 2600 
L 1081 3491 
L 1828 3491 
L 1828 2600 
z
M 1828 0 
L 1081 0 
L 1081 891 
L 1828 891 
L 1828 0 
z
" transform="scale(0.015625)"/>
     </defs>
     <use xlink:href="#Verdana-50"/>
     <use xlink:href="#Verdana-65" x="57.802734"/>
     <use xlink:href="#Verdana-61" x="117.373047"/>
     <use xlink:href="#Verdana-72" x="177.431641"/>
     <use xlink:href="#Verdana-73" x="220.107422"/>
     <use xlink:href="#Verdana-6f" x="272.207031"/>
     <use xlink:href="#Verdana-6e" x="332.900391"/>
     <use xlink:href="#Verdana-20" x="396.181641"/>
     <use xlink:href="#Verdana-72" x="431.337891"/>
     <use xlink:href="#Verdana-3a" x="474.013672"/>
     <use xlink:href="#Verdana-20" x="519.423828"/>
     <use xlink:href="#Verdana-30" x="554.580078"/>
     <use xlink:href="#Verdana-2e" x="618.154297"/>
     <use xlink:href="#Verdana-34" x="654.53125"/>
     <use xlink:href="#Verdana-37" x="718.105469"/>
    </g>
    <!-- P-value: 7.97e-13 -->
    <g transform="translate(116.667938 89.398188) scale(0.14 -0.14)">
     <defs>
      <path id="Verdana-2d" d="M 2428 1753 
L 478 1753 
L 478 2319 
L 2428 2319 
L 2428 1753 
z
" transform="scale(0.015625)"/>
      <path id="Verdana-76" d="M 3597 3491 
L 2184 0 
L 1594 0 
L 191 3491 
L 828 3491 
L 1909 713 
L 2981 3491 
L 3597 3491 
z
" transform="scale(0.015625)"/>
      <path id="Verdana-6c" d="M 1172 0 
L 584 0 
L 584 4863 
L 1172 4863 
L 1172 0 
z
" transform="scale(0.015625)"/>
      <path id="Verdana-75" d="M 3472 0 
L 2884 0 
L 2884 388 
Q 2588 153 2316 28 
Q 2044 -97 1716 -97 
Q 1166 -97 859 239 
Q 553 575 553 1225 
L 553 3491 
L 1141 3491 
L 1141 1503 
Q 1141 1238 1166 1048 
Q 1191 859 1272 725 
Q 1356 588 1490 525 
Q 1625 463 1881 463 
Q 2109 463 2379 581 
Q 2650 700 2884 884 
L 2884 3491 
L 3472 3491 
L 3472 0 
z
" transform="scale(0.015625)"/>
      <path id="Verdana-39" d="M 3647 2606 
Q 3647 1997 3508 1500 
Q 3369 1003 3088 653 
Q 2803 297 2375 103 
Q 1947 -91 1369 -91 
Q 1206 -91 1062 -73 
Q 919 -56 806 -19 
L 806 578 
L 838 578 
Q 928 531 1093 489 
Q 1259 447 1463 447 
Q 2153 447 2545 861 
Q 2938 1275 3000 2003 
Q 2709 1828 2453 1753 
Q 2197 1678 1894 1678 
Q 1606 1678 1373 1734 
Q 1141 1791 906 1953 
Q 631 2144 492 2437 
Q 353 2731 353 3141 
Q 353 3853 822 4300 
Q 1291 4747 1966 4747 
Q 2303 4747 2590 4642 
Q 2878 4538 3094 4328 
Q 3359 4069 3503 3661 
Q 3647 3253 3647 2606 
z
M 3016 2741 
Q 3016 3225 2916 3519 
Q 2816 3813 2641 3975 
Q 2494 4116 2325 4177 
Q 2156 4238 1959 4238 
Q 1509 4238 1248 3956 
Q 988 3675 988 3166 
Q 988 2869 1072 2681 
Q 1156 2494 1356 2353 
Q 1497 2256 1665 2223 
Q 1834 2191 2041 2191 
Q 2284 2191 2534 2256 
Q 2784 2322 3003 2447 
Q 3006 2513 3011 2577 
Q 3016 2641 3016 2741 
z
" transform="scale(0.015625)"/>
     </defs>
     <use xlink:href="#Verdana-50"/>
     <use xlink:href="#Verdana-2d" x="60.302734"/>
     <use xlink:href="#Verdana-76" x="103.712891"/>
     <use xlink:href="#Verdana-61" x="160.892578"/>
     <use xlink:href="#Verdana-6c" x="220.951172"/>
     <use xlink:href="#Verdana-75" x="248.392578"/>
     <use xlink:href="#Verdana-65" x="311.673828"/>
     <use xlink:href="#Verdana-3a" x="371.244141"/>
     <use xlink:href="#Verdana-20" x="416.654297"/>
     <use xlink:href="#Verdana-37" x="451.810547"/>
     <use xlink:href="#Verdana-2e" x="515.384766"/>
     <use xlink:href="#Verdana-39" x="551.761719"/>
     <use xlink:href="#Verdana-37" x="615.335938"/>
     <use xlink:href="#Verdana-65" x="678.910156"/>
     <use xlink:href="#Verdana-2d" x="738.480469"/>
     <use xlink:href="#Verdana-31" x="783.890625"/>
     <use xlink:href="#Verdana-33" x="847.464844"/>
    </g>
   </g>
   <g id="text_19">
    <!-- Correlation between DOF Assessed Total Value per km² and Permit Density across NTAs -->
    <g transform="translate(272.368437 19.3575) scale(0.16 -0.16)">
     <defs>
      <path id="Verdana-Bold-43" d="M 2697 -91 
Q 2178 -91 1739 62 
Q 1300 216 984 519 
Q 669 822 495 1275 
Q 322 1728 322 2322 
Q 322 2875 487 3325 
Q 653 3775 969 4097 
Q 1272 4406 1720 4575 
Q 2169 4744 2700 4744 
Q 2994 4744 3230 4711 
Q 3466 4678 3666 4625 
Q 3875 4566 4045 4492 
Q 4216 4419 4344 4356 
L 4344 3228 
L 4206 3228 
Q 4119 3303 3986 3406 
Q 3853 3509 3684 3609 
Q 3513 3709 3313 3778 
Q 3113 3847 2884 3847 
Q 2631 3847 2403 3767 
Q 2175 3688 1981 3503 
Q 1797 3325 1683 3031 
Q 1569 2738 1569 2319 
Q 1569 1881 1692 1587 
Q 1816 1294 2003 1125 
Q 2194 953 2428 879 
Q 2663 806 2891 806 
Q 3109 806 3323 872 
Q 3538 938 3719 1050 
Q 3872 1141 4003 1244 
Q 4134 1347 4219 1422 
L 4344 1422 
L 4344 309 
Q 4169 231 4009 162 
Q 3850 94 3675 44 
Q 3447 -22 3247 -56 
Q 3047 -91 2697 -91 
z
" transform="scale(0.015625)"/>
      <path id="Verdana-Bold-6e" d="M 4056 0 
L 2925 0 
L 2925 1741 
Q 2925 1953 2903 2164 
Q 2881 2375 2828 2475 
Q 2766 2591 2645 2644 
Q 2525 2697 2309 2697 
Q 2156 2697 1998 2647 
Q 1841 2597 1656 2488 
L 1656 0 
L 531 0 
L 531 3509 
L 1656 3509 
L 1656 3122 
Q 1956 3356 2232 3481 
Q 2509 3606 2847 3606 
Q 3416 3606 3736 3275 
Q 4056 2944 4056 2284 
L 4056 0 
z
" transform="scale(0.015625)"/>
      <path id="Verdana-Bold-62" d="M 4194 1803 
Q 4194 975 3736 453 
Q 3278 -69 2594 -69 
Q 2300 -69 2078 -6 
Q 1856 56 1656 175 
L 1609 0 
L 531 0 
L 531 4863 
L 1656 4863 
L 1656 3144 
Q 1916 3350 2186 3478 
Q 2456 3606 2809 3606 
Q 3475 3606 3834 3126 
Q 4194 2647 4194 1803 
z
M 3034 1781 
Q 3034 2250 2875 2503 
Q 2716 2756 2306 2756 
Q 2147 2756 1978 2707 
Q 1809 2659 1656 2569 
L 1656 806 
Q 1778 763 1887 747 
Q 1997 731 2150 731 
Q 2597 731 2815 993 
Q 3034 1256 3034 1781 
z
" transform="scale(0.015625)"/>
      <path id="Verdana-Bold-77" d="M 6128 3509 
L 5041 0 
L 3847 0 
L 3131 2366 
L 2428 0 
L 1219 0 
L 141 3509 
L 1322 3509 
L 1922 1091 
L 2672 3509 
L 3669 3509 
L 4381 1091 
L 4972 3509 
L 6128 3509 
z
" transform="scale(0.015625)"/>
      <path id="Verdana-Bold-44" d="M 4991 2322 
Q 4991 1672 4694 1158 
Q 4397 644 3944 369 
Q 3603 163 3197 81 
Q 2791 0 2234 0 
L 594 0 
L 594 4653 
L 2281 4653 
Q 2850 4653 3262 4558 
Q 3675 4463 3956 4288 
Q 4438 3994 4714 3495 
Q 4991 2997 4991 2322 
z
M 3750 2331 
Q 3750 2791 3583 3117 
Q 3416 3444 3053 3628 
Q 2869 3719 2676 3751 
Q 2484 3784 2097 3784 
L 1794 3784 
L 1794 872 
L 2097 872 
Q 2525 872 2725 911 
Q 2925 950 3116 1053 
Q 3444 1241 3597 1555 
Q 3750 1869 3750 2331 
z
" transform="scale(0.015625)"/>
      <path id="Verdana-Bold-4f" d="M 5119 2325 
Q 5119 1213 4481 558 
Q 3844 -97 2719 -97 
Q 1597 -97 959 558 
Q 322 1213 322 2325 
Q 322 3447 959 4098 
Q 1597 4750 2719 4750 
Q 3838 4750 4478 4098 
Q 5119 3447 5119 2325 
z
M 3528 1147 
Q 3703 1359 3787 1648 
Q 3872 1938 3872 2328 
Q 3872 2747 3775 3040 
Q 3678 3334 3522 3516 
Q 3363 3703 3155 3787 
Q 2947 3872 2722 3872 
Q 2494 3872 2292 3790 
Q 2091 3709 1922 3522 
Q 1766 3347 1667 3039 
Q 1569 2731 1569 2325 
Q 1569 1909 1664 1617 
Q 1759 1325 1916 1141 
Q 2072 956 2281 868 
Q 2491 781 2722 781 
Q 2953 781 3162 870 
Q 3372 959 3528 1147 
z
" transform="scale(0.015625)"/>
      <path id="Verdana-Bold-46" d="M 3928 3753 
L 1788 3753 
L 1788 2888 
L 3772 2888 
L 3772 1988 
L 1788 1988 
L 1788 0 
L 594 0 
L 594 4653 
L 3928 4653 
L 3928 3753 
z
" transform="scale(0.015625)"/>
      <path id="Verdana-Bold-79" d="M 2116 1241 
L 2916 3509 
L 4072 3509 
L 2122 -1288 
L 903 -1288 
L 1459 25 
L 94 3509 
L 1275 3509 
L 2116 1241 
z
" transform="scale(0.015625)"/>
      <path id="Verdana-Bold-4e" d="M 4825 0 
L 3669 0 
L 1694 3194 
L 1694 0 
L 594 0 
L 594 4653 
L 2028 4653 
L 3725 1988 
L 3725 4653 
L 4825 4653 
L 4825 0 
z
" transform="scale(0.015625)"/>
     </defs>
     <use xlink:href="#Verdana-Bold-43"/>
     <use xlink:href="#Verdana-Bold-6f" x="72.363281"/>
     <use xlink:href="#Verdana-Bold-72" x="141.015625"/>
     <use xlink:href="#Verdana-Bold-72" x="190.722656"/>
     <use xlink:href="#Verdana-Bold-65" x="240.429688"/>
     <use xlink:href="#Verdana-Bold-6c" x="306.835938"/>
     <use xlink:href="#Verdana-Bold-61" x="341.015625"/>
     <use xlink:href="#Verdana-Bold-74" x="407.8125"/>
     <use xlink:href="#Verdana-Bold-69" x="453.369141"/>
     <use xlink:href="#Verdana-Bold-6f" x="487.548828"/>
     <use xlink:href="#Verdana-Bold-6e" x="556.201172"/>
     <use xlink:href="#Verdana-Bold-20" x="627.441406"/>
     <use xlink:href="#Verdana-Bold-62" x="661.621094"/>
     <use xlink:href="#Verdana-Bold-65" x="731.542969"/>
     <use xlink:href="#Verdana-Bold-74" x="797.949219"/>
     <use xlink:href="#Verdana-Bold-77" x="843.505859"/>
     <use xlink:href="#Verdana-Bold-65" x="941.455078"/>
     <use xlink:href="#Verdana-Bold-65" x="1007.861328"/>
     <use xlink:href="#Verdana-Bold-6e" x="1074.267578"/>
     <use xlink:href="#Verdana-Bold-20" x="1145.507812"/>
     <use xlink:href="#Verdana-Bold-44" x="1179.6875"/>
     <use xlink:href="#Verdana-Bold-4f" x="1262.695312"/>
     <use xlink:href="#Verdana-Bold-46" x="1347.705078"/>
     <use xlink:href="#Verdana-Bold-20" x="1412.744141"/>
     <use xlink:href="#Verdana-Bold-41" x="1446.923828"/>
     <use xlink:href="#Verdana-Bold-73" x="1524.560547"/>
     <use xlink:href="#Verdana-Bold-73" x="1583.886719"/>
     <use xlink:href="#Verdana-Bold-65" x="1643.212891"/>
     <use xlink:href="#Verdana-Bold-73" x="1709.619141"/>
     <use xlink:href="#Verdana-Bold-73" x="1768.945312"/>
     <use xlink:href="#Verdana-Bold-65" x="1828.271484"/>
     <use xlink:href="#Verdana-Bold-64" x="1894.677734"/>
     <use xlink:href="#Verdana-Bold-20" x="1964.599609"/>
     <use xlink:href="#Verdana-Bold-54" x="1998.779297"/>
     <use xlink:href="#Verdana-Bold-6f" x="2066.943359"/>
     <use xlink:href="#Verdana-Bold-74" x="2135.595703"/>
     <use xlink:href="#Verdana-Bold-61" x="2181.152344"/>
     <use xlink:href="#Verdana-Bold-6c" x="2247.949219"/>
     <use xlink:href="#Verdana-Bold-20" x="2282.128906"/>
     <use xlink:href="#Verdana-Bold-56" x="2316.308594"/>
     <use xlink:href="#Verdana-Bold-61" x="2392.675781"/>
     <use xlink:href="#Verdana-Bold-6c" x="2459.472656"/>
     <use xlink:href="#Verdana-Bold-75" x="2493.652344"/>
     <use xlink:href="#Verdana-Bold-65" x="2564.892578"/>
     <use xlink:href="#Verdana-Bold-20" x="2631.298828"/>
     <use xlink:href="#Verdana-Bold-70" x="2665.478516"/>
     <use xlink:href="#Verdana-Bold-65" x="2735.400391"/>
     <use xlink:href="#Verdana-Bold-72" x="2801.806641"/>
     <use xlink:href="#Verdana-Bold-20" x="2851.513672"/>
     <use xlink:href="#Verdana-Bold-6b" x="2885.693359"/>
     <use xlink:href="#Verdana-Bold-6d" x="2952.783203"/>
     <use xlink:href="#Verdana-Bold-b2" x="3058.59375"/>
     <use xlink:href="#Verdana-Bold-20" x="3118.359375"/>
     <use xlink:href="#Verdana-Bold-61" x="3152.539062"/>
     <use xlink:href="#Verdana-Bold-6e" x="3219.335938"/>
     <use xlink:href="#Verdana-Bold-64" x="3290.576172"/>
     <use xlink:href="#Verdana-Bold-20" x="3360.498047"/>
     <use xlink:href="#Verdana-Bold-50" x="3394.677734"/>
     <use xlink:href="#Verdana-Bold-65" x="3467.96875"/>
     <use xlink:href="#Verdana-Bold-72" x="3534.375"/>
     <use xlink:href="#Verdana-Bold-6d" x="3584.082031"/>
     <use xlink:href="#Verdana-Bold-69" x="3689.892578"/>
     <use xlink:href="#Verdana-Bold-74" x="3724.072266"/>
     <use xlink:href="#Verdana-Bold-20" x="3769.628906"/>
     <use xlink:href="#Verdana-Bold-44" x="3803.808594"/>
     <use xlink:href="#Verdana-Bold-65" x="3886.816406"/>
     <use xlink:href="#Verdana-Bold-6e" x="3953.222656"/>
     <use xlink:href="#Verdana-Bold-73" x="4024.462891"/>
     <use xlink:href="#Verdana-Bold-69" x="4083.789062"/>
     <use xlink:href="#Verdana-Bold-74" x="4117.96875"/>
     <use xlink:href="#Verdana-Bold-79" x="4163.525391"/>
     <use xlink:href="#Verdana-Bold-20" x="4228.613281"/>
     <use xlink:href="#Verdana-Bold-61" x="4262.792969"/>
     <use xlink:href="#Verdana-Bold-63" x="4329.589844"/>
     <use xlink:href="#Verdana-Bold-72" x="4388.427734"/>
     <use xlink:href="#Verdana-Bold-6f" x="4438.134766"/>
     <use xlink:href="#Verdana-Bold-73" x="4506.787109"/>
     <use xlink:href="#Verdana-Bold-73" x="4566.113281"/>
     <use xlink:href="#Verdana-Bold-20" x="4625.439453"/>
     <use xlink:href="#Verdana-Bold-4e" x="4659.619141"/>
     <use xlink:href="#Verdana-Bold-54" x="4744.287109"/>
     <use xlink:href="#Verdana-Bold-41" x="4812.451172"/>
     <use xlink:href="#Verdana-Bold-73" x="4890.087891"/>
    </g>
   </g>
  </g>
 </g>
 <defs>
  <clipPath id="p710bb0779d">
   <rect x="55.370938" y="39.3575" width="1225.94" height="476.4"/>
  </clipPath>
 </defs>
</svg>
