<?xml version="1.0" encoding="utf-8" standalone="no"?>
<!DOCTYPE svg PUBLIC "-//W3C//DTD SVG 1.1//EN"
  "http://www.w3.org/Graphics/SVG/1.1/DTD/svg11.dtd">
<svg xmlns:xlink="http://www.w3.org/1999/xlink" width="1288.47875pt" height="568.02375pt" viewBox="0 0 1288.47875 568.02375" xmlns="http://www.w3.org/2000/svg" version="1.1">
 <metadata>
  <rdf:RDF xmlns:dc="http://purl.org/dc/elements/1.1/" xmlns:cc="http://creativecommons.org/ns#" xmlns:rdf="http://www.w3.org/1999/02/22-rdf-syntax-ns#">
   <cc:Work>
    <dc:type rdf:resource="http://purl.org/dc/dcmitype/StillImage"/>
    <dc:date>2024-08-01T11:17:46.532687</dc:date>
    <dc:format>image/svg+xml</dc:format>
    <dc:creator>
     <cc:Agent>
      <dc:title>Matplotlib v3.7.2, https://matplotlib.org/</dc:title>
     </cc:Agent>
    </dc:creator>
   </cc:Work>
  </rdf:RDF>
 </metadata>
 <defs>
  <style type="text/css">*{stroke-linejoin: round; stroke-linecap: butt}</style>
 </defs>
 <g id="figure_1">
  <g id="patch_1">
   <path d="M 0 568.02375 
L 1288.47875 568.02375 
L 1288.47875 0 
L 0 0 
z
" style="fill: #ffffff"/>
  </g>
  <g id="axes_1">
   <g id="patch_2">
    <path d="M 61.72875 515.7575 
L 1281.27875 515.7575 
L 1281.27875 39.3575 
L 61.72875 39.3575 
z
" style="fill: #ffffff"/>
   </g>
   <g id="PathCollection_1">
    <defs>
     <path id="m873ad7c8ed" d="M 0 3 
C 0.795609 3 1.55874 2.683901 2.12132 2.12132 
C 2.683901 1.55874 3 0.795609 3 0 
C 3 -0.795609 2.683901 -1.55874 2.12132 -2.12132 
C 1.55874 -2.683901 0.795609 -3 0 -3 
C -0.795609 -3 -1.55874 -2.683901 -2.12132 -2.12132 
C -2.683901 -1.55874 -3 -0.795609 -3 0 
C -3 0.795609 -2.683901 1.55874 -2.12132 2.12132 
C -1.55874 2.683901 -0.795609 3 0 3 
z
" style="stroke: #ffffff; stroke-opacity: 0.6; stroke-width: 0.5"/>
    </defs>
    <g clip-path="url(#p4caf9e17d9)">
     <use xlink:href="#m873ad7c8ed" x="172.628253" y="366.678186" style="fill: #008080; fill-opacity: 0.6; stroke: #ffffff; stroke-opacity: 0.6; stroke-width: 0.5"/>
     <use xlink:href="#m873ad7c8ed" x="208.897664" y="254.176503" style="fill: #008080; fill-opacity: 0.6; stroke: #ffffff; stroke-opacity: 0.6; stroke-width: 0.5"/>
     <use xlink:href="#m873ad7c8ed" x="164.40199" y="423.332744" style="fill: #008080; fill-opacity: 0.6; stroke: #ffffff; stroke-opacity: 0.6; stroke-width: 0.5"/>
     <use xlink:href="#m873ad7c8ed" x="150.176771" y="395.091883" style="fill: #008080; fill-opacity: 0.6; stroke: #ffffff; stroke-opacity: 0.6; stroke-width: 0.5"/>
     <use xlink:href="#m873ad7c8ed" x="287.012335" y="414.507364" style="fill: #008080; fill-opacity: 0.6; stroke: #ffffff; stroke-opacity: 0.6; stroke-width: 0.5"/>
     <use xlink:href="#m873ad7c8ed" x="277.843142" y="332.830264" style="fill: #008080; fill-opacity: 0.6; stroke: #ffffff; stroke-opacity: 0.6; stroke-width: 0.5"/>
     <use xlink:href="#m873ad7c8ed" x="204.360489" y="383.640888" style="fill: #008080; fill-opacity: 0.6; stroke: #ffffff; stroke-opacity: 0.6; stroke-width: 0.5"/>
     <use xlink:href="#m873ad7c8ed" x="180.933662" y="353.020924" style="fill: #008080; fill-opacity: 0.6; stroke: #ffffff; stroke-opacity: 0.6; stroke-width: 0.5"/>
     <use xlink:href="#m873ad7c8ed" x="161.169366" y="286.348876" style="fill: #008080; fill-opacity: 0.6; stroke: #ffffff; stroke-opacity: 0.6; stroke-width: 0.5"/>
     <use xlink:href="#m873ad7c8ed" x="151.987504" y="358.642966" style="fill: #008080; fill-opacity: 0.6; stroke: #ffffff; stroke-opacity: 0.6; stroke-width: 0.5"/>
     <use xlink:href="#m873ad7c8ed" x="170.954486" y="351.027377" style="fill: #008080; fill-opacity: 0.6; stroke: #ffffff; stroke-opacity: 0.6; stroke-width: 0.5"/>
     <use xlink:href="#m873ad7c8ed" x="148.533889" y="371.623847" style="fill: #008080; fill-opacity: 0.6; stroke: #ffffff; stroke-opacity: 0.6; stroke-width: 0.5"/>
     <use xlink:href="#m873ad7c8ed" x="130.983465" y="445.597394" style="fill: #008080; fill-opacity: 0.6; stroke: #ffffff; stroke-opacity: 0.6; stroke-width: 0.5"/>
     <use xlink:href="#m873ad7c8ed" x="134.878512" y="441.539675" style="fill: #008080; fill-opacity: 0.6; stroke: #ffffff; stroke-opacity: 0.6; stroke-width: 0.5"/>
     <use xlink:href="#m873ad7c8ed" x="132.474749" y="462.928795" style="fill: #008080; fill-opacity: 0.6; stroke: #ffffff; stroke-opacity: 0.6; stroke-width: 0.5"/>
     <use xlink:href="#m873ad7c8ed" x="139.719994" y="329.354441" style="fill: #008080; fill-opacity: 0.6; stroke: #ffffff; stroke-opacity: 0.6; stroke-width: 0.5"/>
     <use xlink:href="#m873ad7c8ed" x="129.191097" y="480.543686" style="fill: #008080; fill-opacity: 0.6; stroke: #ffffff; stroke-opacity: 0.6; stroke-width: 0.5"/>
     <use xlink:href="#m873ad7c8ed" x="160.483232" y="402.439409" style="fill: #008080; fill-opacity: 0.6; stroke: #ffffff; stroke-opacity: 0.6; stroke-width: 0.5"/>
     <use xlink:href="#m873ad7c8ed" x="242.308688" y="403.813163" style="fill: #008080; fill-opacity: 0.6; stroke: #ffffff; stroke-opacity: 0.6; stroke-width: 0.5"/>
     <use xlink:href="#m873ad7c8ed" x="158.111025" y="461.309131" style="fill: #008080; fill-opacity: 0.6; stroke: #ffffff; stroke-opacity: 0.6; stroke-width: 0.5"/>
     <use xlink:href="#m873ad7c8ed" x="149.397017" y="402.584739" style="fill: #008080; fill-opacity: 0.6; stroke: #ffffff; stroke-opacity: 0.6; stroke-width: 0.5"/>
     <use xlink:href="#m873ad7c8ed" x="147.666917" y="412.237094" style="fill: #008080; fill-opacity: 0.6; stroke: #ffffff; stroke-opacity: 0.6; stroke-width: 0.5"/>
     <use xlink:href="#m873ad7c8ed" x="197.126499" y="355.701457" style="fill: #008080; fill-opacity: 0.6; stroke: #ffffff; stroke-opacity: 0.6; stroke-width: 0.5"/>
     <use xlink:href="#m873ad7c8ed" x="158.292241" y="399.29974" style="fill: #008080; fill-opacity: 0.6; stroke: #ffffff; stroke-opacity: 0.6; stroke-width: 0.5"/>
     <use xlink:href="#m873ad7c8ed" x="150.51302" y="454.969748" style="fill: #008080; fill-opacity: 0.6; stroke: #ffffff; stroke-opacity: 0.6; stroke-width: 0.5"/>
     <use xlink:href="#m873ad7c8ed" x="152.761101" y="456.834286" style="fill: #008080; fill-opacity: 0.6; stroke: #ffffff; stroke-opacity: 0.6; stroke-width: 0.5"/>
     <use xlink:href="#m873ad7c8ed" x="139.387094" y="459.623299" style="fill: #008080; fill-opacity: 0.6; stroke: #ffffff; stroke-opacity: 0.6; stroke-width: 0.5"/>
     <use xlink:href="#m873ad7c8ed" x="136.168018" y="453.590028" style="fill: #008080; fill-opacity: 0.6; stroke: #ffffff; stroke-opacity: 0.6; stroke-width: 0.5"/>
     <use xlink:href="#m873ad7c8ed" x="140.10398" y="458.405277" style="fill: #008080; fill-opacity: 0.6; stroke: #ffffff; stroke-opacity: 0.6; stroke-width: 0.5"/>
     <use xlink:href="#m873ad7c8ed" x="134.832522" y="444.66158" style="fill: #008080; fill-opacity: 0.6; stroke: #ffffff; stroke-opacity: 0.6; stroke-width: 0.5"/>
     <use xlink:href="#m873ad7c8ed" x="138.927884" y="462.763843" style="fill: #008080; fill-opacity: 0.6; stroke: #ffffff; stroke-opacity: 0.6; stroke-width: 0.5"/>
     <use xlink:href="#m873ad7c8ed" x="159.628214" y="348.095578" style="fill: #008080; fill-opacity: 0.6; stroke: #ffffff; stroke-opacity: 0.6; stroke-width: 0.5"/>
     <use xlink:href="#m873ad7c8ed" x="147.124493" y="377.037962" style="fill: #008080; fill-opacity: 0.6; stroke: #ffffff; stroke-opacity: 0.6; stroke-width: 0.5"/>
     <use xlink:href="#m873ad7c8ed" x="142.360631" y="445.699898" style="fill: #008080; fill-opacity: 0.6; stroke: #ffffff; stroke-opacity: 0.6; stroke-width: 0.5"/>
     <use xlink:href="#m873ad7c8ed" x="138.012829" y="410.604961" style="fill: #008080; fill-opacity: 0.6; stroke: #ffffff; stroke-opacity: 0.6; stroke-width: 0.5"/>
     <use xlink:href="#m873ad7c8ed" x="133.156275" y="470.584775" style="fill: #008080; fill-opacity: 0.6; stroke: #ffffff; stroke-opacity: 0.6; stroke-width: 0.5"/>
     <use xlink:href="#m873ad7c8ed" x="137.414615" y="405.271625" style="fill: #008080; fill-opacity: 0.6; stroke: #ffffff; stroke-opacity: 0.6; stroke-width: 0.5"/>
     <use xlink:href="#m873ad7c8ed" x="152.71416" y="427.086618" style="fill: #008080; fill-opacity: 0.6; stroke: #ffffff; stroke-opacity: 0.6; stroke-width: 0.5"/>
     <use xlink:href="#m873ad7c8ed" x="129.782492" y="481.480657" style="fill: #008080; fill-opacity: 0.6; stroke: #ffffff; stroke-opacity: 0.6; stroke-width: 0.5"/>
     <use xlink:href="#m873ad7c8ed" x="153.454608" y="435.214185" style="fill: #008080; fill-opacity: 0.6; stroke: #ffffff; stroke-opacity: 0.6; stroke-width: 0.5"/>
     <use xlink:href="#m873ad7c8ed" x="138.965836" y="462.452875" style="fill: #008080; fill-opacity: 0.6; stroke: #ffffff; stroke-opacity: 0.6; stroke-width: 0.5"/>
     <use xlink:href="#m873ad7c8ed" x="138.135385" y="445.06354" style="fill: #008080; fill-opacity: 0.6; stroke: #ffffff; stroke-opacity: 0.6; stroke-width: 0.5"/>
     <use xlink:href="#m873ad7c8ed" x="141.294871" y="382.729787" style="fill: #008080; fill-opacity: 0.6; stroke: #ffffff; stroke-opacity: 0.6; stroke-width: 0.5"/>
     <use xlink:href="#m873ad7c8ed" x="136.292187" y="465.663874" style="fill: #008080; fill-opacity: 0.6; stroke: #ffffff; stroke-opacity: 0.6; stroke-width: 0.5"/>
     <use xlink:href="#m873ad7c8ed" x="132.964566" y="453.274021" style="fill: #008080; fill-opacity: 0.6; stroke: #ffffff; stroke-opacity: 0.6; stroke-width: 0.5"/>
     <use xlink:href="#m873ad7c8ed" x="140.19592" y="386.330334" style="fill: #008080; fill-opacity: 0.6; stroke: #ffffff; stroke-opacity: 0.6; stroke-width: 0.5"/>
     <use xlink:href="#m873ad7c8ed" x="139.168177" y="405.413189" style="fill: #008080; fill-opacity: 0.6; stroke: #ffffff; stroke-opacity: 0.6; stroke-width: 0.5"/>
     <use xlink:href="#m873ad7c8ed" x="152.49239" y="393.217531" style="fill: #008080; fill-opacity: 0.6; stroke: #ffffff; stroke-opacity: 0.6; stroke-width: 0.5"/>
     <use xlink:href="#m873ad7c8ed" x="131.499887" y="449.779597" style="fill: #008080; fill-opacity: 0.6; stroke: #ffffff; stroke-opacity: 0.6; stroke-width: 0.5"/>
     <use xlink:href="#m873ad7c8ed" x="132.260358" y="480.329276" style="fill: #008080; fill-opacity: 0.6; stroke: #ffffff; stroke-opacity: 0.6; stroke-width: 0.5"/>
     <use xlink:href="#m873ad7c8ed" x="138.425448" y="476.363106" style="fill: #008080; fill-opacity: 0.6; stroke: #ffffff; stroke-opacity: 0.6; stroke-width: 0.5"/>
     <use xlink:href="#m873ad7c8ed" x="127.784182" y="480.298722" style="fill: #008080; fill-opacity: 0.6; stroke: #ffffff; stroke-opacity: 0.6; stroke-width: 0.5"/>
     <use xlink:href="#m873ad7c8ed" x="127.792287" y="458.921466" style="fill: #008080; fill-opacity: 0.6; stroke: #ffffff; stroke-opacity: 0.6; stroke-width: 0.5"/>
     <use xlink:href="#m873ad7c8ed" x="127.344313" y="481.263098" style="fill: #008080; fill-opacity: 0.6; stroke: #ffffff; stroke-opacity: 0.6; stroke-width: 0.5"/>
     <use xlink:href="#m873ad7c8ed" x="117.493466" y="489.700198" style="fill: #008080; fill-opacity: 0.6; stroke: #ffffff; stroke-opacity: 0.6; stroke-width: 0.5"/>
     <use xlink:href="#m873ad7c8ed" x="120.594465" y="475.195923" style="fill: #008080; fill-opacity: 0.6; stroke: #ffffff; stroke-opacity: 0.6; stroke-width: 0.5"/>
     <use xlink:href="#m873ad7c8ed" x="146.160816" y="451.789542" style="fill: #008080; fill-opacity: 0.6; stroke: #ffffff; stroke-opacity: 0.6; stroke-width: 0.5"/>
     <use xlink:href="#m873ad7c8ed" x="156.05263" y="398.959674" style="fill: #008080; fill-opacity: 0.6; stroke: #ffffff; stroke-opacity: 0.6; stroke-width: 0.5"/>
     <use xlink:href="#m873ad7c8ed" x="128.935102" y="459.522105" style="fill: #008080; fill-opacity: 0.6; stroke: #ffffff; stroke-opacity: 0.6; stroke-width: 0.5"/>
     <use xlink:href="#m873ad7c8ed" x="147.368397" y="398.342796" style="fill: #008080; fill-opacity: 0.6; stroke: #ffffff; stroke-opacity: 0.6; stroke-width: 0.5"/>
     <use xlink:href="#m873ad7c8ed" x="149.169485" y="412.211335" style="fill: #008080; fill-opacity: 0.6; stroke: #ffffff; stroke-opacity: 0.6; stroke-width: 0.5"/>
     <use xlink:href="#m873ad7c8ed" x="145.900217" y="472.235544" style="fill: #008080; fill-opacity: 0.6; stroke: #ffffff; stroke-opacity: 0.6; stroke-width: 0.5"/>
     <use xlink:href="#m873ad7c8ed" x="137.456654" y="430.638271" style="fill: #008080; fill-opacity: 0.6; stroke: #ffffff; stroke-opacity: 0.6; stroke-width: 0.5"/>
     <use xlink:href="#m873ad7c8ed" x="156.717943" y="432.47657" style="fill: #008080; fill-opacity: 0.6; stroke: #ffffff; stroke-opacity: 0.6; stroke-width: 0.5"/>
     <use xlink:href="#m873ad7c8ed" x="137.775501" y="455.660017" style="fill: #008080; fill-opacity: 0.6; stroke: #ffffff; stroke-opacity: 0.6; stroke-width: 0.5"/>
     <use xlink:href="#m873ad7c8ed" x="150.016405" y="436.244583" style="fill: #008080; fill-opacity: 0.6; stroke: #ffffff; stroke-opacity: 0.6; stroke-width: 0.5"/>
     <use xlink:href="#m873ad7c8ed" x="140.457476" y="448.528088" style="fill: #008080; fill-opacity: 0.6; stroke: #ffffff; stroke-opacity: 0.6; stroke-width: 0.5"/>
     <use xlink:href="#m873ad7c8ed" x="152.248122" y="373.321502" style="fill: #008080; fill-opacity: 0.6; stroke: #ffffff; stroke-opacity: 0.6; stroke-width: 0.5"/>
     <use xlink:href="#m873ad7c8ed" x="162.276513" y="440.86675" style="fill: #008080; fill-opacity: 0.6; stroke: #ffffff; stroke-opacity: 0.6; stroke-width: 0.5"/>
     <use xlink:href="#m873ad7c8ed" x="138.912922" y="456.007232" style="fill: #008080; fill-opacity: 0.6; stroke: #ffffff; stroke-opacity: 0.6; stroke-width: 0.5"/>
     <use xlink:href="#m873ad7c8ed" x="144.807599" y="386.651371" style="fill: #008080; fill-opacity: 0.6; stroke: #ffffff; stroke-opacity: 0.6; stroke-width: 0.5"/>
     <use xlink:href="#m873ad7c8ed" x="153.62676" y="386.948604" style="fill: #008080; fill-opacity: 0.6; stroke: #ffffff; stroke-opacity: 0.6; stroke-width: 0.5"/>
     <use xlink:href="#m873ad7c8ed" x="151.518533" y="451.411422" style="fill: #008080; fill-opacity: 0.6; stroke: #ffffff; stroke-opacity: 0.6; stroke-width: 0.5"/>
     <use xlink:href="#m873ad7c8ed" x="140.594699" y="397.317595" style="fill: #008080; fill-opacity: 0.6; stroke: #ffffff; stroke-opacity: 0.6; stroke-width: 0.5"/>
     <use xlink:href="#m873ad7c8ed" x="148.240262" y="451.494507" style="fill: #008080; fill-opacity: 0.6; stroke: #ffffff; stroke-opacity: 0.6; stroke-width: 0.5"/>
     <use xlink:href="#m873ad7c8ed" x="141.316271" y="406.528124" style="fill: #008080; fill-opacity: 0.6; stroke: #ffffff; stroke-opacity: 0.6; stroke-width: 0.5"/>
     <use xlink:href="#m873ad7c8ed" x="143.201419" y="457.992495" style="fill: #008080; fill-opacity: 0.6; stroke: #ffffff; stroke-opacity: 0.6; stroke-width: 0.5"/>
     <use xlink:href="#m873ad7c8ed" x="132.394475" y="466.105741" style="fill: #008080; fill-opacity: 0.6; stroke: #ffffff; stroke-opacity: 0.6; stroke-width: 0.5"/>
     <use xlink:href="#m873ad7c8ed" x="135.284675" y="461.361427" style="fill: #008080; fill-opacity: 0.6; stroke: #ffffff; stroke-opacity: 0.6; stroke-width: 0.5"/>
     <use xlink:href="#m873ad7c8ed" x="128.240117" y="427.121606" style="fill: #008080; fill-opacity: 0.6; stroke: #ffffff; stroke-opacity: 0.6; stroke-width: 0.5"/>
     <use xlink:href="#m873ad7c8ed" x="129.756208" y="463.805639" style="fill: #008080; fill-opacity: 0.6; stroke: #ffffff; stroke-opacity: 0.6; stroke-width: 0.5"/>
     <use xlink:href="#m873ad7c8ed" x="151.03252" y="439.040863" style="fill: #008080; fill-opacity: 0.6; stroke: #ffffff; stroke-opacity: 0.6; stroke-width: 0.5"/>
     <use xlink:href="#m873ad7c8ed" x="132.807886" y="476.522844" style="fill: #008080; fill-opacity: 0.6; stroke: #ffffff; stroke-opacity: 0.6; stroke-width: 0.5"/>
     <use xlink:href="#m873ad7c8ed" x="124.099334" y="474.466354" style="fill: #008080; fill-opacity: 0.6; stroke: #ffffff; stroke-opacity: 0.6; stroke-width: 0.5"/>
     <use xlink:href="#m873ad7c8ed" x="125.640355" y="469.206674" style="fill: #008080; fill-opacity: 0.6; stroke: #ffffff; stroke-opacity: 0.6; stroke-width: 0.5"/>
     <use xlink:href="#m873ad7c8ed" x="136.740887" y="489.23799" style="fill: #008080; fill-opacity: 0.6; stroke: #ffffff; stroke-opacity: 0.6; stroke-width: 0.5"/>
     <use xlink:href="#m873ad7c8ed" x="133.027056" y="432.724252" style="fill: #008080; fill-opacity: 0.6; stroke: #ffffff; stroke-opacity: 0.6; stroke-width: 0.5"/>
     <use xlink:href="#m873ad7c8ed" x="135.599495" y="466.358064" style="fill: #008080; fill-opacity: 0.6; stroke: #ffffff; stroke-opacity: 0.6; stroke-width: 0.5"/>
     <use xlink:href="#m873ad7c8ed" x="125.071903" y="470.4073" style="fill: #008080; fill-opacity: 0.6; stroke: #ffffff; stroke-opacity: 0.6; stroke-width: 0.5"/>
     <use xlink:href="#m873ad7c8ed" x="136.058806" y="393.469422" style="fill: #008080; fill-opacity: 0.6; stroke: #ffffff; stroke-opacity: 0.6; stroke-width: 0.5"/>
     <use xlink:href="#m873ad7c8ed" x="144.607961" y="481.058339" style="fill: #008080; fill-opacity: 0.6; stroke: #ffffff; stroke-opacity: 0.6; stroke-width: 0.5"/>
     <use xlink:href="#m873ad7c8ed" x="131.650106" y="416.261199" style="fill: #008080; fill-opacity: 0.6; stroke: #ffffff; stroke-opacity: 0.6; stroke-width: 0.5"/>
     <use xlink:href="#m873ad7c8ed" x="125.607696" y="479.935395" style="fill: #008080; fill-opacity: 0.6; stroke: #ffffff; stroke-opacity: 0.6; stroke-width: 0.5"/>
     <use xlink:href="#m873ad7c8ed" x="128.722174" y="443.251629" style="fill: #008080; fill-opacity: 0.6; stroke: #ffffff; stroke-opacity: 0.6; stroke-width: 0.5"/>
     <use xlink:href="#m873ad7c8ed" x="117.162841" y="488.37431" style="fill: #008080; fill-opacity: 0.6; stroke: #ffffff; stroke-opacity: 0.6; stroke-width: 0.5"/>
     <use xlink:href="#m873ad7c8ed" x="120.852701" y="488.30328" style="fill: #008080; fill-opacity: 0.6; stroke: #ffffff; stroke-opacity: 0.6; stroke-width: 0.5"/>
     <use xlink:href="#m873ad7c8ed" x="600.093275" y="399.57727" style="fill: #008080; fill-opacity: 0.6; stroke: #ffffff; stroke-opacity: 0.6; stroke-width: 0.5"/>
     <use xlink:href="#m873ad7c8ed" x="481.852083" y="279.313688" style="fill: #008080; fill-opacity: 0.6; stroke: #ffffff; stroke-opacity: 0.6; stroke-width: 0.5"/>
     <use xlink:href="#m873ad7c8ed" x="136.598353" y="490.347154" style="fill: #008080; fill-opacity: 0.6; stroke: #ffffff; stroke-opacity: 0.6; stroke-width: 0.5"/>
     <use xlink:href="#m873ad7c8ed" x="500.294687" y="157.13302" style="fill: #008080; fill-opacity: 0.6; stroke: #ffffff; stroke-opacity: 0.6; stroke-width: 0.5"/>
     <use xlink:href="#m873ad7c8ed" x="456.527131" y="348.92298" style="fill: #008080; fill-opacity: 0.6; stroke: #ffffff; stroke-opacity: 0.6; stroke-width: 0.5"/>
     <use xlink:href="#m873ad7c8ed" x="343.894802" y="323.867902" style="fill: #008080; fill-opacity: 0.6; stroke: #ffffff; stroke-opacity: 0.6; stroke-width: 0.5"/>
     <use xlink:href="#m873ad7c8ed" x="242.284269" y="410.507622" style="fill: #008080; fill-opacity: 0.6; stroke: #ffffff; stroke-opacity: 0.6; stroke-width: 0.5"/>
     <use xlink:href="#m873ad7c8ed" x="238.114362" y="282.37125" style="fill: #008080; fill-opacity: 0.6; stroke: #ffffff; stroke-opacity: 0.6; stroke-width: 0.5"/>
     <use xlink:href="#m873ad7c8ed" x="280.764228" y="383.154149" style="fill: #008080; fill-opacity: 0.6; stroke: #ffffff; stroke-opacity: 0.6; stroke-width: 0.5"/>
     <use xlink:href="#m873ad7c8ed" x="478.1226" y="353.917423" style="fill: #008080; fill-opacity: 0.6; stroke: #ffffff; stroke-opacity: 0.6; stroke-width: 0.5"/>
     <use xlink:href="#m873ad7c8ed" x="395.708468" y="410.866804" style="fill: #008080; fill-opacity: 0.6; stroke: #ffffff; stroke-opacity: 0.6; stroke-width: 0.5"/>
     <use xlink:href="#m873ad7c8ed" x="719.244293" y="255.895993" style="fill: #008080; fill-opacity: 0.6; stroke: #ffffff; stroke-opacity: 0.6; stroke-width: 0.5"/>
     <use xlink:href="#m873ad7c8ed" x="1225.844659" y="338.539047" style="fill: #008080; fill-opacity: 0.6; stroke: #ffffff; stroke-opacity: 0.6; stroke-width: 0.5"/>
     <use xlink:href="#m873ad7c8ed" x="217.133245" y="484.842256" style="fill: #008080; fill-opacity: 0.6; stroke: #ffffff; stroke-opacity: 0.6; stroke-width: 0.5"/>
     <use xlink:href="#m873ad7c8ed" x="436.292813" y="411.221458" style="fill: #008080; fill-opacity: 0.6; stroke: #ffffff; stroke-opacity: 0.6; stroke-width: 0.5"/>
     <use xlink:href="#m873ad7c8ed" x="492.30011" y="447.819193" style="fill: #008080; fill-opacity: 0.6; stroke: #ffffff; stroke-opacity: 0.6; stroke-width: 0.5"/>
     <use xlink:href="#m873ad7c8ed" x="798.554216" y="451.459961" style="fill: #008080; fill-opacity: 0.6; stroke: #ffffff; stroke-opacity: 0.6; stroke-width: 0.5"/>
     <use xlink:href="#m873ad7c8ed" x="526.07151" y="447.941017" style="fill: #008080; fill-opacity: 0.6; stroke: #ffffff; stroke-opacity: 0.6; stroke-width: 0.5"/>
     <use xlink:href="#m873ad7c8ed" x="343.32518" y="393.604182" style="fill: #008080; fill-opacity: 0.6; stroke: #ffffff; stroke-opacity: 0.6; stroke-width: 0.5"/>
     <use xlink:href="#m873ad7c8ed" x="233.555817" y="473.432731" style="fill: #008080; fill-opacity: 0.6; stroke: #ffffff; stroke-opacity: 0.6; stroke-width: 0.5"/>
     <use xlink:href="#m873ad7c8ed" x="379.571791" y="420.423901" style="fill: #008080; fill-opacity: 0.6; stroke: #ffffff; stroke-opacity: 0.6; stroke-width: 0.5"/>
     <use xlink:href="#m873ad7c8ed" x="639.426866" y="300.756381" style="fill: #008080; fill-opacity: 0.6; stroke: #ffffff; stroke-opacity: 0.6; stroke-width: 0.5"/>
     <use xlink:href="#m873ad7c8ed" x="393.738169" y="448.905954" style="fill: #008080; fill-opacity: 0.6; stroke: #ffffff; stroke-opacity: 0.6; stroke-width: 0.5"/>
     <use xlink:href="#m873ad7c8ed" x="206.504604" y="444.762678" style="fill: #008080; fill-opacity: 0.6; stroke: #ffffff; stroke-opacity: 0.6; stroke-width: 0.5"/>
     <use xlink:href="#m873ad7c8ed" x="200.762653" y="457.788349" style="fill: #008080; fill-opacity: 0.6; stroke: #ffffff; stroke-opacity: 0.6; stroke-width: 0.5"/>
     <use xlink:href="#m873ad7c8ed" x="156.695294" y="419.903153" style="fill: #008080; fill-opacity: 0.6; stroke: #ffffff; stroke-opacity: 0.6; stroke-width: 0.5"/>
     <use xlink:href="#m873ad7c8ed" x="206.747411" y="340.374914" style="fill: #008080; fill-opacity: 0.6; stroke: #ffffff; stroke-opacity: 0.6; stroke-width: 0.5"/>
     <use xlink:href="#m873ad7c8ed" x="178.03903" y="398.837315" style="fill: #008080; fill-opacity: 0.6; stroke: #ffffff; stroke-opacity: 0.6; stroke-width: 0.5"/>
     <use xlink:href="#m873ad7c8ed" x="231.325194" y="433.175923" style="fill: #008080; fill-opacity: 0.6; stroke: #ffffff; stroke-opacity: 0.6; stroke-width: 0.5"/>
     <use xlink:href="#m873ad7c8ed" x="173.840791" y="422.690521" style="fill: #008080; fill-opacity: 0.6; stroke: #ffffff; stroke-opacity: 0.6; stroke-width: 0.5"/>
     <use xlink:href="#m873ad7c8ed" x="191.036947" y="462.472985" style="fill: #008080; fill-opacity: 0.6; stroke: #ffffff; stroke-opacity: 0.6; stroke-width: 0.5"/>
     <use xlink:href="#m873ad7c8ed" x="158.726653" y="453.568319" style="fill: #008080; fill-opacity: 0.6; stroke: #ffffff; stroke-opacity: 0.6; stroke-width: 0.5"/>
     <use xlink:href="#m873ad7c8ed" x="152.933379" y="435.712527" style="fill: #008080; fill-opacity: 0.6; stroke: #ffffff; stroke-opacity: 0.6; stroke-width: 0.5"/>
     <use xlink:href="#m873ad7c8ed" x="124.774708" y="489.428288" style="fill: #008080; fill-opacity: 0.6; stroke: #ffffff; stroke-opacity: 0.6; stroke-width: 0.5"/>
     <use xlink:href="#m873ad7c8ed" x="131.997337" y="470.5491" style="fill: #008080; fill-opacity: 0.6; stroke: #ffffff; stroke-opacity: 0.6; stroke-width: 0.5"/>
     <use xlink:href="#m873ad7c8ed" x="152.157829" y="288.283512" style="fill: #008080; fill-opacity: 0.6; stroke: #ffffff; stroke-opacity: 0.6; stroke-width: 0.5"/>
     <use xlink:href="#m873ad7c8ed" x="169.618439" y="372.68633" style="fill: #008080; fill-opacity: 0.6; stroke: #ffffff; stroke-opacity: 0.6; stroke-width: 0.5"/>
     <use xlink:href="#m873ad7c8ed" x="145.555459" y="446.66703" style="fill: #008080; fill-opacity: 0.6; stroke: #ffffff; stroke-opacity: 0.6; stroke-width: 0.5"/>
     <use xlink:href="#m873ad7c8ed" x="156.231891" y="410.267301" style="fill: #008080; fill-opacity: 0.6; stroke: #ffffff; stroke-opacity: 0.6; stroke-width: 0.5"/>
     <use xlink:href="#m873ad7c8ed" x="150.502454" y="342.090248" style="fill: #008080; fill-opacity: 0.6; stroke: #ffffff; stroke-opacity: 0.6; stroke-width: 0.5"/>
     <use xlink:href="#m873ad7c8ed" x="126.300814" y="416.698548" style="fill: #008080; fill-opacity: 0.6; stroke: #ffffff; stroke-opacity: 0.6; stroke-width: 0.5"/>
     <use xlink:href="#m873ad7c8ed" x="201.007172" y="418.167754" style="fill: #008080; fill-opacity: 0.6; stroke: #ffffff; stroke-opacity: 0.6; stroke-width: 0.5"/>
     <use xlink:href="#m873ad7c8ed" x="142.968664" y="472.271559" style="fill: #008080; fill-opacity: 0.6; stroke: #ffffff; stroke-opacity: 0.6; stroke-width: 0.5"/>
     <use xlink:href="#m873ad7c8ed" x="138.251895" y="446.353822" style="fill: #008080; fill-opacity: 0.6; stroke: #ffffff; stroke-opacity: 0.6; stroke-width: 0.5"/>
     <use xlink:href="#m873ad7c8ed" x="118.055691" y="488.607666" style="fill: #008080; fill-opacity: 0.6; stroke: #ffffff; stroke-opacity: 0.6; stroke-width: 0.5"/>
     <use xlink:href="#m873ad7c8ed" x="145.129597" y="483.464665" style="fill: #008080; fill-opacity: 0.6; stroke: #ffffff; stroke-opacity: 0.6; stroke-width: 0.5"/>
     <use xlink:href="#m873ad7c8ed" x="130.796299" y="459.237108" style="fill: #008080; fill-opacity: 0.6; stroke: #ffffff; stroke-opacity: 0.6; stroke-width: 0.5"/>
     <use xlink:href="#m873ad7c8ed" x="142.871987" y="445.810792" style="fill: #008080; fill-opacity: 0.6; stroke: #ffffff; stroke-opacity: 0.6; stroke-width: 0.5"/>
     <use xlink:href="#m873ad7c8ed" x="151.29886" y="409.221973" style="fill: #008080; fill-opacity: 0.6; stroke: #ffffff; stroke-opacity: 0.6; stroke-width: 0.5"/>
     <use xlink:href="#m873ad7c8ed" x="145.804984" y="444.96016" style="fill: #008080; fill-opacity: 0.6; stroke: #ffffff; stroke-opacity: 0.6; stroke-width: 0.5"/>
     <use xlink:href="#m873ad7c8ed" x="130.969107" y="467.560465" style="fill: #008080; fill-opacity: 0.6; stroke: #ffffff; stroke-opacity: 0.6; stroke-width: 0.5"/>
     <use xlink:href="#m873ad7c8ed" x="141.874428" y="469.477979" style="fill: #008080; fill-opacity: 0.6; stroke: #ffffff; stroke-opacity: 0.6; stroke-width: 0.5"/>
     <use xlink:href="#m873ad7c8ed" x="130.030175" y="483.649262" style="fill: #008080; fill-opacity: 0.6; stroke: #ffffff; stroke-opacity: 0.6; stroke-width: 0.5"/>
     <use xlink:href="#m873ad7c8ed" x="127.942944" y="460.614359" style="fill: #008080; fill-opacity: 0.6; stroke: #ffffff; stroke-opacity: 0.6; stroke-width: 0.5"/>
     <use xlink:href="#m873ad7c8ed" x="145.988785" y="426.871919" style="fill: #008080; fill-opacity: 0.6; stroke: #ffffff; stroke-opacity: 0.6; stroke-width: 0.5"/>
     <use xlink:href="#m873ad7c8ed" x="145.718955" y="470.359964" style="fill: #008080; fill-opacity: 0.6; stroke: #ffffff; stroke-opacity: 0.6; stroke-width: 0.5"/>
     <use xlink:href="#m873ad7c8ed" x="129.473679" y="460.757546" style="fill: #008080; fill-opacity: 0.6; stroke: #ffffff; stroke-opacity: 0.6; stroke-width: 0.5"/>
     <use xlink:href="#m873ad7c8ed" x="124.283674" y="466.822389" style="fill: #008080; fill-opacity: 0.6; stroke: #ffffff; stroke-opacity: 0.6; stroke-width: 0.5"/>
     <use xlink:href="#m873ad7c8ed" x="126.78686" y="480.556714" style="fill: #008080; fill-opacity: 0.6; stroke: #ffffff; stroke-opacity: 0.6; stroke-width: 0.5"/>
     <use xlink:href="#m873ad7c8ed" x="131.022276" y="462.623438" style="fill: #008080; fill-opacity: 0.6; stroke: #ffffff; stroke-opacity: 0.6; stroke-width: 0.5"/>
     <use xlink:href="#m873ad7c8ed" x="128.385836" y="477.014455" style="fill: #008080; fill-opacity: 0.6; stroke: #ffffff; stroke-opacity: 0.6; stroke-width: 0.5"/>
     <use xlink:href="#m873ad7c8ed" x="127.363994" y="482.108224" style="fill: #008080; fill-opacity: 0.6; stroke: #ffffff; stroke-opacity: 0.6; stroke-width: 0.5"/>
     <use xlink:href="#m873ad7c8ed" x="165.612015" y="402.834476" style="fill: #008080; fill-opacity: 0.6; stroke: #ffffff; stroke-opacity: 0.6; stroke-width: 0.5"/>
     <use xlink:href="#m873ad7c8ed" x="134.87622" y="471.700376" style="fill: #008080; fill-opacity: 0.6; stroke: #ffffff; stroke-opacity: 0.6; stroke-width: 0.5"/>
     <use xlink:href="#m873ad7c8ed" x="135.172975" y="484.268255" style="fill: #008080; fill-opacity: 0.6; stroke: #ffffff; stroke-opacity: 0.6; stroke-width: 0.5"/>
     <use xlink:href="#m873ad7c8ed" x="127.491333" y="465.733843" style="fill: #008080; fill-opacity: 0.6; stroke: #ffffff; stroke-opacity: 0.6; stroke-width: 0.5"/>
     <use xlink:href="#m873ad7c8ed" x="124.996993" y="433.917802" style="fill: #008080; fill-opacity: 0.6; stroke: #ffffff; stroke-opacity: 0.6; stroke-width: 0.5"/>
     <use xlink:href="#m873ad7c8ed" x="133.846927" y="461.882217" style="fill: #008080; fill-opacity: 0.6; stroke: #ffffff; stroke-opacity: 0.6; stroke-width: 0.5"/>
     <use xlink:href="#m873ad7c8ed" x="136.803576" y="466.809769" style="fill: #008080; fill-opacity: 0.6; stroke: #ffffff; stroke-opacity: 0.6; stroke-width: 0.5"/>
     <use xlink:href="#m873ad7c8ed" x="130.08117" y="464.753932" style="fill: #008080; fill-opacity: 0.6; stroke: #ffffff; stroke-opacity: 0.6; stroke-width: 0.5"/>
     <use xlink:href="#m873ad7c8ed" x="127.466263" y="444.349389" style="fill: #008080; fill-opacity: 0.6; stroke: #ffffff; stroke-opacity: 0.6; stroke-width: 0.5"/>
     <use xlink:href="#m873ad7c8ed" x="128.943077" y="466.524788" style="fill: #008080; fill-opacity: 0.6; stroke: #ffffff; stroke-opacity: 0.6; stroke-width: 0.5"/>
     <use xlink:href="#m873ad7c8ed" x="128.982453" y="468.485166" style="fill: #008080; fill-opacity: 0.6; stroke: #ffffff; stroke-opacity: 0.6; stroke-width: 0.5"/>
     <use xlink:href="#m873ad7c8ed" x="125.681448" y="471.945122" style="fill: #008080; fill-opacity: 0.6; stroke: #ffffff; stroke-opacity: 0.6; stroke-width: 0.5"/>
     <use xlink:href="#m873ad7c8ed" x="125.3767" y="488.269179" style="fill: #008080; fill-opacity: 0.6; stroke: #ffffff; stroke-opacity: 0.6; stroke-width: 0.5"/>
     <use xlink:href="#m873ad7c8ed" x="122.94553" y="486.390099" style="fill: #008080; fill-opacity: 0.6; stroke: #ffffff; stroke-opacity: 0.6; stroke-width: 0.5"/>
     <use xlink:href="#m873ad7c8ed" x="126.198014" y="463.065062" style="fill: #008080; fill-opacity: 0.6; stroke: #ffffff; stroke-opacity: 0.6; stroke-width: 0.5"/>
     <use xlink:href="#m873ad7c8ed" x="126.722291" y="469.879221" style="fill: #008080; fill-opacity: 0.6; stroke: #ffffff; stroke-opacity: 0.6; stroke-width: 0.5"/>
     <use xlink:href="#m873ad7c8ed" x="124.596138" y="466.516851" style="fill: #008080; fill-opacity: 0.6; stroke: #ffffff; stroke-opacity: 0.6; stroke-width: 0.5"/>
     <use xlink:href="#m873ad7c8ed" x="126.147428" y="474.860862" style="fill: #008080; fill-opacity: 0.6; stroke: #ffffff; stroke-opacity: 0.6; stroke-width: 0.5"/>
     <use xlink:href="#m873ad7c8ed" x="144.688128" y="411.678232" style="fill: #008080; fill-opacity: 0.6; stroke: #ffffff; stroke-opacity: 0.6; stroke-width: 0.5"/>
     <use xlink:href="#m873ad7c8ed" x="124.793652" y="470.84574" style="fill: #008080; fill-opacity: 0.6; stroke: #ffffff; stroke-opacity: 0.6; stroke-width: 0.5"/>
     <use xlink:href="#m873ad7c8ed" x="124.857043" y="465.151239" style="fill: #008080; fill-opacity: 0.6; stroke: #ffffff; stroke-opacity: 0.6; stroke-width: 0.5"/>
     <use xlink:href="#m873ad7c8ed" x="127.122645" y="485.126907" style="fill: #008080; fill-opacity: 0.6; stroke: #ffffff; stroke-opacity: 0.6; stroke-width: 0.5"/>
     <use xlink:href="#m873ad7c8ed" x="122.83214" y="480.43479" style="fill: #008080; fill-opacity: 0.6; stroke: #ffffff; stroke-opacity: 0.6; stroke-width: 0.5"/>
     <use xlink:href="#m873ad7c8ed" x="124.134532" y="450.520765" style="fill: #008080; fill-opacity: 0.6; stroke: #ffffff; stroke-opacity: 0.6; stroke-width: 0.5"/>
     <use xlink:href="#m873ad7c8ed" x="128.728528" y="477.448268" style="fill: #008080; fill-opacity: 0.6; stroke: #ffffff; stroke-opacity: 0.6; stroke-width: 0.5"/>
     <use xlink:href="#m873ad7c8ed" x="125.186508" y="479.572409" style="fill: #008080; fill-opacity: 0.6; stroke: #ffffff; stroke-opacity: 0.6; stroke-width: 0.5"/>
     <use xlink:href="#m873ad7c8ed" x="122.94209" y="478.644775" style="fill: #008080; fill-opacity: 0.6; stroke: #ffffff; stroke-opacity: 0.6; stroke-width: 0.5"/>
     <use xlink:href="#m873ad7c8ed" x="121.146143" y="484.712191" style="fill: #008080; fill-opacity: 0.6; stroke: #ffffff; stroke-opacity: 0.6; stroke-width: 0.5"/>
     <use xlink:href="#m873ad7c8ed" x="121.729783" y="485.03524" style="fill: #008080; fill-opacity: 0.6; stroke: #ffffff; stroke-opacity: 0.6; stroke-width: 0.5"/>
     <use xlink:href="#m873ad7c8ed" x="123.296633" y="492.136881" style="fill: #008080; fill-opacity: 0.6; stroke: #ffffff; stroke-opacity: 0.6; stroke-width: 0.5"/>
     <use xlink:href="#m873ad7c8ed" x="120.698835" y="478.083455" style="fill: #008080; fill-opacity: 0.6; stroke: #ffffff; stroke-opacity: 0.6; stroke-width: 0.5"/>
     <use xlink:href="#m873ad7c8ed" x="126.736318" y="410.291042" style="fill: #008080; fill-opacity: 0.6; stroke: #ffffff; stroke-opacity: 0.6; stroke-width: 0.5"/>
     <use xlink:href="#m873ad7c8ed" x="126.391701" y="457.45691" style="fill: #008080; fill-opacity: 0.6; stroke: #ffffff; stroke-opacity: 0.6; stroke-width: 0.5"/>
     <use xlink:href="#m873ad7c8ed" x="122.190485" y="475.975016" style="fill: #008080; fill-opacity: 0.6; stroke: #ffffff; stroke-opacity: 0.6; stroke-width: 0.5"/>
     <use xlink:href="#m873ad7c8ed" x="139.306568" y="494.102955" style="fill: #008080; fill-opacity: 0.6; stroke: #ffffff; stroke-opacity: 0.6; stroke-width: 0.5"/>
     <use xlink:href="#m873ad7c8ed" x="130.517447" y="447.348983" style="fill: #008080; fill-opacity: 0.6; stroke: #ffffff; stroke-opacity: 0.6; stroke-width: 0.5"/>
     <use xlink:href="#m873ad7c8ed" x="125.381094" y="466.622686" style="fill: #008080; fill-opacity: 0.6; stroke: #ffffff; stroke-opacity: 0.6; stroke-width: 0.5"/>
     <use xlink:href="#m873ad7c8ed" x="123.638815" y="455.900669" style="fill: #008080; fill-opacity: 0.6; stroke: #ffffff; stroke-opacity: 0.6; stroke-width: 0.5"/>
     <use xlink:href="#m873ad7c8ed" x="122.311501" y="462.746832" style="fill: #008080; fill-opacity: 0.6; stroke: #ffffff; stroke-opacity: 0.6; stroke-width: 0.5"/>
     <use xlink:href="#m873ad7c8ed" x="121.356838" y="487.612602" style="fill: #008080; fill-opacity: 0.6; stroke: #ffffff; stroke-opacity: 0.6; stroke-width: 0.5"/>
     <use xlink:href="#m873ad7c8ed" x="122.5855" y="463.35154" style="fill: #008080; fill-opacity: 0.6; stroke: #ffffff; stroke-opacity: 0.6; stroke-width: 0.5"/>
     <use xlink:href="#m873ad7c8ed" x="120.505977" y="482.899084" style="fill: #008080; fill-opacity: 0.6; stroke: #ffffff; stroke-opacity: 0.6; stroke-width: 0.5"/>
     <use xlink:href="#m873ad7c8ed" x="123.111024" y="464.187906" style="fill: #008080; fill-opacity: 0.6; stroke: #ffffff; stroke-opacity: 0.6; stroke-width: 0.5"/>
     <use xlink:href="#m873ad7c8ed" x="122.507924" y="464.519888" style="fill: #008080; fill-opacity: 0.6; stroke: #ffffff; stroke-opacity: 0.6; stroke-width: 0.5"/>
     <use xlink:href="#m873ad7c8ed" x="120.482477" y="490.189886" style="fill: #008080; fill-opacity: 0.6; stroke: #ffffff; stroke-opacity: 0.6; stroke-width: 0.5"/>
     <use xlink:href="#m873ad7c8ed" x="121.932007" y="490.188223" style="fill: #008080; fill-opacity: 0.6; stroke: #ffffff; stroke-opacity: 0.6; stroke-width: 0.5"/>
     <use xlink:href="#m873ad7c8ed" x="120.647313" y="482.759631" style="fill: #008080; fill-opacity: 0.6; stroke: #ffffff; stroke-opacity: 0.6; stroke-width: 0.5"/>
     <use xlink:href="#m873ad7c8ed" x="121.598382" y="489.702305" style="fill: #008080; fill-opacity: 0.6; stroke: #ffffff; stroke-opacity: 0.6; stroke-width: 0.5"/>
     <use xlink:href="#m873ad7c8ed" x="121.633622" y="491.73525" style="fill: #008080; fill-opacity: 0.6; stroke: #ffffff; stroke-opacity: 0.6; stroke-width: 0.5"/>
     <use xlink:href="#m873ad7c8ed" x="119.889334" y="476.248008" style="fill: #008080; fill-opacity: 0.6; stroke: #ffffff; stroke-opacity: 0.6; stroke-width: 0.5"/>
     <use xlink:href="#m873ad7c8ed" x="120.112202" y="477.365147" style="fill: #008080; fill-opacity: 0.6; stroke: #ffffff; stroke-opacity: 0.6; stroke-width: 0.5"/>
     <use xlink:href="#m873ad7c8ed" x="119.120467" y="490.309264" style="fill: #008080; fill-opacity: 0.6; stroke: #ffffff; stroke-opacity: 0.6; stroke-width: 0.5"/>
    </g>
   </g>
   <g id="PolyCollection_1">
    <path d="M 117.162841 441.067747 
L 117.162841 455.428136 
L 128.361647 452.249571 
L 139.560453 449.522329 
L 150.75926 447.145996 
L 161.958066 444.933335 
L 173.156872 442.708596 
L 184.355678 440.759398 
L 195.554485 438.921103 
L 206.753291 437.219861 
L 217.952097 435.338568 
L 229.150903 433.750068 
L 240.34971 432.054033 
L 251.548516 430.527285 
L 262.747322 429.026341 
L 273.946128 427.663449 
L 285.144935 426.101853 
L 296.343741 424.533746 
L 307.542547 423.185134 
L 318.741353 421.72104 
L 329.94016 420.196824 
L 341.138966 418.635252 
L 352.337772 417.04346 
L 363.536578 415.551303 
L 374.735385 414.141251 
L 385.934191 412.752791 
L 397.132997 411.189848 
L 408.331803 409.656236 
L 419.53061 408.3427 
L 430.729416 407.055252 
L 441.928222 405.767804 
L 453.127028 404.424299 
L 464.325834 403.112923 
L 475.524641 401.656774 
L 486.723447 400.265064 
L 497.922253 398.879197 
L 509.121059 397.493329 
L 520.319866 396.104344 
L 531.518672 394.741727 
L 542.717478 393.383518 
L 553.916284 392.02531 
L 565.115091 390.667101 
L 576.313897 389.308892 
L 587.512703 387.906951 
L 598.711509 386.480431 
L 609.910316 385.053912 
L 621.109122 383.627392 
L 632.307928 382.222441 
L 643.506734 380.830252 
L 654.705541 379.414777 
L 665.904347 378.03625 
L 677.103153 376.687712 
L 688.301959 375.3372 
L 699.500766 373.948248 
L 710.699572 372.504551 
L 721.898378 371.114977 
L 733.097184 369.727913 
L 744.295991 368.34085 
L 755.494797 366.953786 
L 766.693603 365.566723 
L 777.892409 364.17966 
L 789.091216 362.792596 
L 800.290022 361.419333 
L 811.488828 360.120006 
L 822.687634 358.82068 
L 833.886441 357.521353 
L 845.085247 356.221731 
L 856.284053 354.9212 
L 867.482859 353.62067 
L 878.681666 352.276258 
L 889.880472 350.98415 
L 901.079278 349.684774 
L 912.278084 348.336166 
L 923.47689 346.987558 
L 934.675697 345.638951 
L 945.874503 344.290343 
L 957.073309 342.940707 
L 968.272115 341.590488 
L 979.470922 340.240269 
L 990.669728 338.889523 
L 1001.868534 337.538403 
L 1013.06734 336.187283 
L 1024.266147 334.836163 
L 1035.464953 333.485043 
L 1046.663759 332.133923 
L 1057.862565 330.746288 
L 1069.061372 329.354902 
L 1080.260178 327.963516 
L 1091.458984 326.57213 
L 1102.65779 325.180744 
L 1113.856597 323.789358 
L 1125.055403 322.397973 
L 1136.254209 321.006587 
L 1147.453015 319.615201 
L 1158.651822 318.223815 
L 1169.850628 316.832429 
L 1181.049434 315.441043 
L 1192.24824 314.049657 
L 1203.447047 312.658271 
L 1214.645853 311.266886 
L 1225.844659 309.8755 
L 1225.844659 61.012045 
L 1225.844659 61.012045 
L 1214.645853 64.974144 
L 1203.447047 68.936242 
L 1192.24824 72.898341 
L 1181.049434 76.860439 
L 1169.850628 80.822537 
L 1158.651822 84.784636 
L 1147.453015 88.746734 
L 1136.254209 92.708833 
L 1125.055403 96.670931 
L 1113.856597 100.633029 
L 1102.65779 104.595128 
L 1091.458984 108.557226 
L 1080.260178 112.519325 
L 1069.061372 116.481423 
L 1057.862565 120.443521 
L 1046.663759 124.40562 
L 1035.464953 128.367718 
L 1024.266147 132.329817 
L 1013.06734 136.291915 
L 1001.868534 140.254013 
L 990.669728 144.216112 
L 979.470922 148.17821 
L 968.272115 152.140309 
L 957.073309 156.102407 
L 945.874503 160.064505 
L 934.675697 164.026604 
L 923.47689 167.988702 
L 912.278084 171.950801 
L 901.079278 175.912899 
L 889.880472 179.874997 
L 878.681666 183.837096 
L 867.482859 187.799194 
L 856.284053 191.761293 
L 845.085247 195.723391 
L 833.886441 199.685489 
L 822.687634 203.647588 
L 811.488828 207.608218 
L 800.290022 211.499195 
L 789.091216 215.391327 
L 777.892409 219.283459 
L 766.693603 223.175592 
L 755.494797 227.067724 
L 744.295991 230.959856 
L 733.097184 234.851988 
L 721.898378 238.74412 
L 710.699572 242.636252 
L 699.500766 246.528384 
L 688.301959 250.420516 
L 677.103153 254.312648 
L 665.904347 258.20478 
L 654.705541 262.096912 
L 643.506734 266.089905 
L 632.307928 270.108869 
L 621.109122 274.130922 
L 609.910316 278.152976 
L 598.711509 282.175029 
L 587.512703 286.197083 
L 576.313897 290.219136 
L 565.115091 294.24119 
L 553.916284 298.264045 
L 542.717478 302.313479 
L 531.518672 306.362914 
L 520.319866 310.412348 
L 509.121059 314.461783 
L 497.922253 318.511217 
L 486.723447 322.390738 
L 475.524641 326.40606 
L 464.325834 330.421383 
L 453.127028 334.436705 
L 441.928222 338.398801 
L 430.729416 342.356875 
L 419.53061 346.314949 
L 408.331803 350.273023 
L 397.132997 354.232598 
L 385.934191 358.162776 
L 374.735385 361.970486 
L 363.536578 365.778195 
L 352.337772 369.848605 
L 341.138966 373.706751 
L 329.94016 377.306408 
L 318.741353 380.963206 
L 307.542547 384.75343 
L 296.343741 388.554062 
L 285.144935 392.593445 
L 273.946128 396.67563 
L 262.747322 400.296121 
L 251.548516 404.089097 
L 240.34971 408.314698 
L 229.150903 412.155378 
L 217.952097 416.306695 
L 206.753291 419.54886 
L 195.554485 423.23804 
L 184.355678 426.95391 
L 173.156872 430.104336 
L 161.958066 432.97726 
L 150.75926 435.075053 
L 139.560453 437.370592 
L 128.361647 439.285254 
L 117.162841 441.067747 
z
" clip-path="url(#p4caf9e17d9)" style="fill: #daa520; fill-opacity: 0.15"/>
   </g>
   <g id="matplotlib.axis_1">
    <g id="xtick_1">
     <g id="line2d_1">
      <path d="M 115.978975 515.7575 
L 115.978975 39.3575 
" clip-path="url(#p4caf9e17d9)" style="fill: none; stroke: #b0b0b0; stroke-width: 0.8; stroke-linecap: square"/>
     </g>
     <g id="line2d_2">
      <defs>
       <path id="m38c91b6859" d="M 0 0 
L 0 3.5 
" style="stroke: #000000; stroke-width: 0.8"/>
      </defs>
      <g>
       <use xlink:href="#m38c91b6859" x="115.978975" y="515.7575" style="stroke: #000000; stroke-width: 0.8"/>
      </g>
     </g>
     <g id="text_1">
      <!-- 0.0 -->
      <g transform="translate(107.802412 530.355937) scale(0.1 -0.1)">
       <defs>
        <path id="Verdana-30" d="M 3647 2328 
Q 3647 1075 3255 489 
Q 2863 -97 2038 -97 
Q 1200 -97 814 497 
Q 428 1091 428 2322 
Q 428 3563 818 4155 
Q 1209 4747 2038 4747 
Q 2875 4747 3261 4145 
Q 3647 3544 3647 2328 
z
M 2825 909 
Q 2934 1163 2973 1505 
Q 3013 1847 3013 2328 
Q 3013 2803 2973 3153 
Q 2934 3503 2822 3747 
Q 2713 3988 2523 4109 
Q 2334 4231 2038 4231 
Q 1744 4231 1551 4109 
Q 1359 3988 1247 3741 
Q 1141 3509 1102 3137 
Q 1063 2766 1063 2322 
Q 1063 1834 1097 1506 
Q 1131 1178 1244 919 
Q 1347 675 1536 547 
Q 1725 419 2038 419 
Q 2331 419 2525 541 
Q 2719 663 2825 909 
z
" transform="scale(0.015625)"/>
        <path id="Verdana-2e" d="M 1538 0 
L 791 0 
L 791 891 
L 1538 891 
L 1538 0 
z
" transform="scale(0.015625)"/>
       </defs>
       <use xlink:href="#Verdana-30"/>
       <use xlink:href="#Verdana-2e" x="63.574219"/>
       <use xlink:href="#Verdana-30" x="99.951172"/>
      </g>
     </g>
    </g>
    <g id="xtick_2">
     <g id="line2d_3">
      <path d="M 298.373931 515.7575 
L 298.373931 39.3575 
" clip-path="url(#p4caf9e17d9)" style="fill: none; stroke: #b0b0b0; stroke-width: 0.8; stroke-linecap: square"/>
     </g>
     <g id="line2d_4">
      <g>
       <use xlink:href="#m38c91b6859" x="298.373931" y="515.7575" style="stroke: #000000; stroke-width: 0.8"/>
      </g>
     </g>
     <g id="text_2">
      <!-- 0.5 -->
      <g transform="translate(290.197369 530.355937) scale(0.1 -0.1)">
       <defs>
        <path id="Verdana-35" d="M 3616 1478 
Q 3616 1153 3497 856 
Q 3378 559 3172 356 
Q 2947 138 2636 20 
Q 2325 -97 1916 -97 
Q 1534 -97 1181 -17 
Q 828 63 584 175 
L 584 834 
L 628 834 
Q 884 672 1228 558 
Q 1572 444 1903 444 
Q 2125 444 2333 506 
Q 2541 569 2703 725 
Q 2841 859 2911 1046 
Q 2981 1234 2981 1481 
Q 2981 1722 2898 1887 
Q 2816 2053 2669 2153 
Q 2506 2272 2273 2320 
Q 2041 2369 1753 2369 
Q 1478 2369 1223 2331 
Q 969 2294 784 2256 
L 784 4653 
L 3584 4653 
L 3584 4106 
L 1388 4106 
L 1388 2869 
Q 1522 2881 1662 2887 
Q 1803 2894 1906 2894 
Q 2284 2894 2568 2830 
Q 2853 2766 3091 2603 
Q 3341 2431 3478 2159 
Q 3616 1888 3616 1478 
z
" transform="scale(0.015625)"/>
       </defs>
       <use xlink:href="#Verdana-30"/>
       <use xlink:href="#Verdana-2e" x="63.574219"/>
       <use xlink:href="#Verdana-35" x="99.951172"/>
      </g>
     </g>
    </g>
    <g id="xtick_3">
     <g id="line2d_5">
      <path d="M 480.768887 515.7575 
L 480.768887 39.3575 
" clip-path="url(#p4caf9e17d9)" style="fill: none; stroke: #b0b0b0; stroke-width: 0.8; stroke-linecap: square"/>
     </g>
     <g id="line2d_6">
      <g>
       <use xlink:href="#m38c91b6859" x="480.768887" y="515.7575" style="stroke: #000000; stroke-width: 0.8"/>
      </g>
     </g>
     <g id="text_3">
      <!-- 1.0 -->
      <g transform="translate(472.592325 530.355937) scale(0.1 -0.1)">
       <defs>
        <path id="Verdana-31" d="M 3388 0 
L 869 0 
L 869 475 
L 1838 475 
L 1838 3594 
L 869 3594 
L 869 4019 
Q 1066 4019 1291 4051 
Q 1516 4084 1631 4147 
Q 1775 4225 1858 4345 
Q 1941 4466 1953 4669 
L 2438 4669 
L 2438 475 
L 3388 475 
L 3388 0 
z
" transform="scale(0.015625)"/>
       </defs>
       <use xlink:href="#Verdana-31"/>
       <use xlink:href="#Verdana-2e" x="63.574219"/>
       <use xlink:href="#Verdana-30" x="99.951172"/>
      </g>
     </g>
    </g>
    <g id="xtick_4">
     <g id="line2d_7">
      <path d="M 663.163844 515.7575 
L 663.163844 39.3575 
" clip-path="url(#p4caf9e17d9)" style="fill: none; stroke: #b0b0b0; stroke-width: 0.8; stroke-linecap: square"/>
     </g>
     <g id="line2d_8">
      <g>
       <use xlink:href="#m38c91b6859" x="663.163844" y="515.7575" style="stroke: #000000; stroke-width: 0.8"/>
      </g>
     </g>
     <g id="text_4">
      <!-- 1.5 -->
      <g transform="translate(654.987281 530.355937) scale(0.1 -0.1)">
       <use xlink:href="#Verdana-31"/>
       <use xlink:href="#Verdana-2e" x="63.574219"/>
       <use xlink:href="#Verdana-35" x="99.951172"/>
      </g>
     </g>
    </g>
    <g id="xtick_5">
     <g id="line2d_9">
      <path d="M 845.5588 515.7575 
L 845.5588 39.3575 
" clip-path="url(#p4caf9e17d9)" style="fill: none; stroke: #b0b0b0; stroke-width: 0.8; stroke-linecap: square"/>
     </g>
     <g id="line2d_10">
      <g>
       <use xlink:href="#m38c91b6859" x="845.5588" y="515.7575" style="stroke: #000000; stroke-width: 0.8"/>
      </g>
     </g>
     <g id="text_5">
      <!-- 2.0 -->
      <g transform="translate(837.382238 530.355937) scale(0.1 -0.1)">
       <defs>
        <path id="Verdana-32" d="M 3653 0 
L 503 0 
L 503 653 
Q 831 934 1161 1215 
Q 1491 1497 1775 1775 
Q 2375 2356 2597 2698 
Q 2819 3041 2819 3438 
Q 2819 3800 2580 4004 
Q 2341 4209 1913 4209 
Q 1628 4209 1297 4109 
Q 966 4009 650 3803 
L 619 3803 
L 619 4459 
Q 841 4569 1211 4659 
Q 1581 4750 1928 4750 
Q 2644 4750 3050 4404 
Q 3456 4059 3456 3469 
Q 3456 3203 3389 2973 
Q 3322 2744 3191 2538 
Q 3069 2344 2905 2156 
Q 2741 1969 2506 1741 
Q 2172 1413 1815 1105 
Q 1459 797 1150 534 
L 3653 534 
L 3653 0 
z
" transform="scale(0.015625)"/>
       </defs>
       <use xlink:href="#Verdana-32"/>
       <use xlink:href="#Verdana-2e" x="63.574219"/>
       <use xlink:href="#Verdana-30" x="99.951172"/>
      </g>
     </g>
    </g>
    <g id="xtick_6">
     <g id="line2d_11">
      <path d="M 1027.953756 515.7575 
L 1027.953756 39.3575 
" clip-path="url(#p4caf9e17d9)" style="fill: none; stroke: #b0b0b0; stroke-width: 0.8; stroke-linecap: square"/>
     </g>
     <g id="line2d_12">
      <g>
       <use xlink:href="#m38c91b6859" x="1027.953756" y="515.7575" style="stroke: #000000; stroke-width: 0.8"/>
      </g>
     </g>
     <g id="text_6">
      <!-- 2.5 -->
      <g transform="translate(1019.777194 530.355937) scale(0.1 -0.1)">
       <use xlink:href="#Verdana-32"/>
       <use xlink:href="#Verdana-2e" x="63.574219"/>
       <use xlink:href="#Verdana-35" x="99.951172"/>
      </g>
     </g>
    </g>
    <g id="xtick_7">
     <g id="line2d_13">
      <path d="M 1210.348713 515.7575 
L 1210.348713 39.3575 
" clip-path="url(#p4caf9e17d9)" style="fill: none; stroke: #b0b0b0; stroke-width: 0.8; stroke-linecap: square"/>
     </g>
     <g id="line2d_14">
      <g>
       <use xlink:href="#m38c91b6859" x="1210.348713" y="515.7575" style="stroke: #000000; stroke-width: 0.8"/>
      </g>
     </g>
     <g id="text_7">
      <!-- 3.0 -->
      <g transform="translate(1202.17215 530.355937) scale(0.1 -0.1)">
       <defs>
        <path id="Verdana-33" d="M 3244 2241 
Q 3394 2106 3491 1903 
Q 3588 1700 3588 1378 
Q 3588 1059 3472 793 
Q 3356 528 3147 331 
Q 2913 113 2595 8 
Q 2278 -97 1900 -97 
Q 1513 -97 1138 -4 
Q 763 88 522 197 
L 522 850 
L 569 850 
Q 834 675 1193 559 
Q 1553 444 1888 444 
Q 2084 444 2306 509 
Q 2528 575 2666 703 
Q 2809 841 2879 1006 
Q 2950 1172 2950 1425 
Q 2950 1675 2870 1839 
Q 2791 2003 2650 2097 
Q 2509 2194 2309 2230 
Q 2109 2266 1878 2266 
L 1597 2266 
L 1597 2784 
L 1816 2784 
Q 2291 2784 2573 2982 
Q 2856 3181 2856 3563 
Q 2856 3731 2784 3857 
Q 2713 3984 2584 4066 
Q 2450 4147 2297 4178 
Q 2144 4209 1950 4209 
Q 1653 4209 1318 4103 
Q 984 3997 688 3803 
L 656 3803 
L 656 4456 
Q 878 4566 1248 4658 
Q 1619 4750 1966 4750 
Q 2306 4750 2565 4687 
Q 2825 4625 3034 4488 
Q 3259 4338 3375 4125 
Q 3491 3913 3491 3628 
Q 3491 3241 3217 2952 
Q 2944 2663 2572 2588 
L 2572 2544 
Q 2722 2519 2915 2439 
Q 3109 2359 3244 2241 
z
" transform="scale(0.015625)"/>
       </defs>
       <use xlink:href="#Verdana-33"/>
       <use xlink:href="#Verdana-2e" x="63.574219"/>
       <use xlink:href="#Verdana-30" x="99.951172"/>
      </g>
     </g>
    </g>
    <g id="text_8">
     <!-- Assessed Total Value per mi -->
     <g transform="translate(556.801094 558.00625) scale(0.14 -0.14)">
      <defs>
       <path id="Verdana-Bold-41" d="M 4894 0 
L 3653 0 
L 3331 941 
L 1606 941 
L 1284 0 
L 75 0 
L 1794 4653 
L 3175 4653 
L 4894 0 
z
M 3041 1794 
L 2469 3463 
L 1897 1794 
L 3041 1794 
z
" transform="scale(0.015625)"/>
       <path id="Verdana-Bold-73" d="M 3581 1113 
Q 3581 569 3093 236 
Q 2606 -97 1759 -97 
Q 1291 -97 909 -9 
Q 528 78 297 184 
L 297 1109 
L 400 1109 
Q 484 1050 595 979 
Q 706 909 909 828 
Q 1084 756 1306 704 
Q 1528 653 1781 653 
Q 2113 653 2272 726 
Q 2431 800 2431 944 
Q 2431 1072 2337 1130 
Q 2244 1188 1981 1241 
Q 1856 1269 1642 1301 
Q 1428 1334 1253 1381 
Q 775 1506 544 1770 
Q 313 2034 313 2428 
Q 313 2934 792 3270 
Q 1272 3606 2103 3606 
Q 2497 3606 2858 3526 
Q 3219 3447 3422 3356 
L 3422 2469 
L 3325 2469 
Q 3075 2641 2754 2748 
Q 2434 2856 2106 2856 
Q 1834 2856 1648 2781 
Q 1463 2706 1463 2569 
Q 1463 2444 1547 2378 
Q 1631 2313 1944 2247 
Q 2116 2213 2314 2180 
Q 2513 2147 2713 2097 
Q 3156 1981 3368 1732 
Q 3581 1484 3581 1113 
z
" transform="scale(0.015625)"/>
       <path id="Verdana-Bold-65" d="M 3988 1547 
L 1413 1547 
Q 1438 1134 1727 915 
Q 2016 697 2578 697 
Q 2934 697 3268 825 
Q 3603 953 3797 1100 
L 3922 1100 
L 3922 197 
Q 3541 44 3203 -25 
Q 2866 -94 2456 -94 
Q 1400 -94 837 381 
Q 275 856 275 1734 
Q 275 2603 808 3111 
Q 1341 3619 2269 3619 
Q 3125 3619 3556 3186 
Q 3988 2753 3988 1941 
L 3988 1547 
z
M 2869 2206 
Q 2859 2559 2693 2737 
Q 2528 2916 2178 2916 
Q 1853 2916 1643 2747 
Q 1434 2578 1409 2206 
L 2869 2206 
z
" transform="scale(0.015625)"/>
       <path id="Verdana-Bold-64" d="M 3944 0 
L 2819 0 
L 2819 366 
Q 2528 128 2275 15 
Q 2022 -97 1691 -97 
Q 1050 -97 665 397 
Q 281 891 281 1728 
Q 281 2175 411 2520 
Q 541 2866 766 3113 
Q 978 3347 1281 3476 
Q 1584 3606 1888 3606 
Q 2203 3606 2404 3539 
Q 2606 3472 2819 3369 
L 2819 4863 
L 3944 4863 
L 3944 0 
z
M 2819 969 
L 2819 2691 
Q 2700 2741 2569 2762 
Q 2438 2784 2328 2784 
Q 1884 2784 1662 2507 
Q 1441 2231 1441 1741 
Q 1441 1225 1619 992 
Q 1797 759 2191 759 
Q 2344 759 2516 817 
Q 2688 875 2819 969 
z
" transform="scale(0.015625)"/>
       <path id="Verdana-Bold-20" transform="scale(0.015625)"/>
       <path id="Verdana-Bold-54" d="M 4234 3753 
L 2781 3753 
L 2781 0 
L 1581 0 
L 1581 3753 
L 128 3753 
L 128 4653 
L 4234 4653 
L 4234 3753 
z
" transform="scale(0.015625)"/>
       <path id="Verdana-Bold-6f" d="M 4119 1753 
Q 4119 888 3614 389 
Q 3109 -109 2197 -109 
Q 1284 -109 779 389 
Q 275 888 275 1753 
Q 275 2625 783 3122 
Q 1291 3619 2197 3619 
Q 3116 3619 3617 3119 
Q 4119 2619 4119 1753 
z
M 2734 900 
Q 2844 1034 2898 1223 
Q 2953 1413 2953 1747 
Q 2953 2056 2897 2265 
Q 2841 2475 2741 2600 
Q 2641 2728 2500 2781 
Q 2359 2834 2197 2834 
Q 2034 2834 1907 2790 
Q 1781 2747 1666 2616 
Q 1563 2494 1502 2281 
Q 1441 2069 1441 1747 
Q 1441 1459 1494 1248 
Q 1547 1038 1650 909 
Q 1750 788 1889 731 
Q 2028 675 2206 675 
Q 2359 675 2498 726 
Q 2638 778 2734 900 
z
" transform="scale(0.015625)"/>
       <path id="Verdana-Bold-74" d="M 2775 31 
Q 2594 -16 2391 -42 
Q 2188 -69 1894 -69 
Q 1238 -69 917 197 
Q 597 463 597 1106 
L 597 2747 
L 134 2747 
L 134 3509 
L 597 3509 
L 597 4513 
L 1722 4513 
L 1722 3509 
L 2775 3509 
L 2775 2747 
L 1722 2747 
L 1722 1503 
Q 1722 1319 1725 1181 
Q 1728 1044 1775 934 
Q 1819 825 1930 761 
Q 2041 697 2253 697 
Q 2341 697 2483 734 
Q 2625 772 2681 803 
L 2775 803 
L 2775 31 
z
" transform="scale(0.015625)"/>
       <path id="Verdana-Bold-61" d="M 2656 916 
L 2656 1647 
Q 2428 1628 2162 1595 
Q 1897 1563 1759 1519 
Q 1591 1466 1502 1364 
Q 1413 1263 1413 1097 
Q 1413 988 1431 919 
Q 1450 850 1525 788 
Q 1597 725 1697 695 
Q 1797 666 2009 666 
Q 2178 666 2351 734 
Q 2525 803 2656 916 
z
M 2656 372 
Q 2566 303 2431 206 
Q 2297 109 2178 53 
Q 2013 -22 1834 -58 
Q 1656 -94 1444 -94 
Q 944 -94 606 215 
Q 269 525 269 1006 
Q 269 1391 441 1634 
Q 613 1878 928 2019 
Q 1241 2159 1703 2218 
Q 2166 2278 2663 2306 
L 2663 2325 
Q 2663 2616 2425 2727 
Q 2188 2838 1725 2838 
Q 1447 2838 1131 2739 
Q 816 2641 678 2588 
L 575 2588 
L 575 3434 
Q 753 3481 1154 3545 
Q 1556 3609 1959 3609 
Q 2919 3609 3345 3314 
Q 3772 3019 3772 2388 
L 3772 0 
L 2656 0 
L 2656 372 
z
" transform="scale(0.015625)"/>
       <path id="Verdana-Bold-6c" d="M 1656 0 
L 531 0 
L 531 4863 
L 1656 4863 
L 1656 0 
z
" transform="scale(0.015625)"/>
       <path id="Verdana-Bold-56" d="M 4813 4653 
L 3116 0 
L 1772 0 
L 75 4653 
L 1334 4653 
L 2459 1384 
L 3584 4653 
L 4813 4653 
z
" transform="scale(0.015625)"/>
       <path id="Verdana-Bold-75" d="M 4028 0 
L 2903 0 
L 2903 388 
Q 2591 150 2331 26 
Q 2072 -97 1713 -97 
Q 1131 -97 817 237 
Q 503 572 503 1225 
L 503 3509 
L 1634 3509 
L 1634 1769 
Q 1634 1503 1651 1326 
Q 1669 1150 1731 1034 
Q 1791 919 1911 866 
Q 2031 813 2247 813 
Q 2391 813 2566 866 
Q 2741 919 2903 1022 
L 2903 3509 
L 4028 3509 
L 4028 0 
z
" transform="scale(0.015625)"/>
       <path id="Verdana-Bold-70" d="M 4194 1803 
Q 4194 1369 4061 1012 
Q 3928 656 3713 425 
Q 3488 181 3203 56 
Q 2919 -69 2594 -69 
Q 2294 -69 2084 -5 
Q 1875 59 1656 175 
L 1656 -1288 
L 531 -1288 
L 531 3509 
L 1656 3509 
L 1656 3144 
Q 1916 3350 2186 3478 
Q 2456 3606 2809 3606 
Q 3466 3606 3830 3125 
Q 4194 2644 4194 1803 
z
M 3034 1781 
Q 3034 2294 2859 2525 
Q 2684 2756 2306 2756 
Q 2147 2756 1978 2707 
Q 1809 2659 1656 2569 
L 1656 803 
Q 1769 759 1897 746 
Q 2025 734 2150 734 
Q 2597 734 2815 995 
Q 3034 1256 3034 1781 
z
" transform="scale(0.015625)"/>
       <path id="Verdana-Bold-72" d="M 3075 2438 
L 2975 2438 
Q 2903 2463 2743 2475 
Q 2584 2488 2478 2488 
Q 2238 2488 2053 2456 
Q 1869 2425 1656 2350 
L 1656 0 
L 531 0 
L 531 3509 
L 1656 3509 
L 1656 2994 
Q 2028 3313 2303 3417 
Q 2578 3522 2809 3522 
Q 2869 3522 2944 3519 
Q 3019 3516 3075 3509 
L 3075 2438 
z
" transform="scale(0.015625)"/>
       <path id="Verdana-Bold-6d" d="M 3963 2488 
L 3963 0 
L 2831 0 
L 2831 1753 
Q 2831 2009 2818 2189 
Q 2806 2369 2750 2481 
Q 2694 2594 2580 2645 
Q 2466 2697 2259 2697 
Q 2094 2697 1937 2630 
Q 1781 2563 1656 2488 
L 1656 0 
L 531 0 
L 531 3509 
L 1656 3509 
L 1656 3122 
Q 1947 3350 2212 3478 
Q 2478 3606 2800 3606 
Q 3147 3606 3412 3451 
Q 3678 3297 3828 2997 
Q 4166 3281 4484 3443 
Q 4803 3606 5109 3606 
Q 5678 3606 5973 3265 
Q 6269 2925 6269 2284 
L 6269 0 
L 5138 0 
L 5138 1753 
Q 5138 2013 5127 2191 
Q 5116 2369 5059 2481 
Q 5006 2594 4890 2645 
Q 4775 2697 4566 2697 
Q 4425 2697 4290 2648 
Q 4156 2600 3963 2488 
z
" transform="scale(0.015625)"/>
       <path id="Verdana-Bold-69" d="M 1656 0 
L 531 0 
L 531 3509 
L 1656 3509 
L 1656 0 
z
M 1688 4009 
L 500 4009 
L 500 4863 
L 1688 4863 
L 1688 4009 
z
" transform="scale(0.015625)"/>
       <path id="Verdana-Bold-b2" d="M 3241 1769 
L 719 1769 
L 719 2359 
Q 934 2488 1168 2638 
Q 1403 2788 1566 2916 
Q 1916 3188 2002 3352 
Q 2088 3516 2088 3684 
Q 2088 3869 1961 3967 
Q 1834 4066 1588 4066 
Q 1409 4066 1195 3991 
Q 981 3916 809 3816 
L 738 3816 
L 738 4556 
Q 941 4628 1239 4687 
Q 1538 4747 1838 4747 
Q 2416 4747 2730 4519 
Q 3044 4291 3044 3853 
Q 3044 3600 2934 3369 
Q 2825 3138 2450 2809 
Q 2344 2716 2189 2605 
Q 2034 2494 1922 2413 
L 3241 2413 
L 3241 1769 
z
" transform="scale(0.015625)"/>
      </defs>
      <use xlink:href="#Verdana-Bold-41"/>
      <use xlink:href="#Verdana-Bold-73" x="77.636719"/>
      <use xlink:href="#Verdana-Bold-73" x="136.962891"/>
      <use xlink:href="#Verdana-Bold-65" x="196.289062"/>
      <use xlink:href="#Verdana-Bold-73" x="262.695312"/>
      <use xlink:href="#Verdana-Bold-73" x="322.021484"/>
      <use xlink:href="#Verdana-Bold-65" x="381.347656"/>
      <use xlink:href="#Verdana-Bold-64" x="447.753906"/>
      <use xlink:href="#Verdana-Bold-20" x="517.675781"/>
      <use xlink:href="#Verdana-Bold-54" x="551.855469"/>
      <use xlink:href="#Verdana-Bold-6f" x="620.019531"/>
      <use xlink:href="#Verdana-Bold-74" x="688.671875"/>
      <use xlink:href="#Verdana-Bold-61" x="734.228516"/>
      <use xlink:href="#Verdana-Bold-6c" x="801.025391"/>
      <use xlink:href="#Verdana-Bold-20" x="835.205078"/>
      <use xlink:href="#Verdana-Bold-56" x="869.384766"/>
      <use xlink:href="#Verdana-Bold-61" x="945.751953"/>
      <use xlink:href="#Verdana-Bold-6c" x="1012.548828"/>
      <use xlink:href="#Verdana-Bold-75" x="1046.728516"/>
      <use xlink:href="#Verdana-Bold-65" x="1117.96875"/>
      <use xlink:href="#Verdana-Bold-20" x="1184.375"/>
      <use xlink:href="#Verdana-Bold-70" x="1218.554688"/>
      <use xlink:href="#Verdana-Bold-65" x="1288.476562"/>
      <use xlink:href="#Verdana-Bold-72" x="1354.882812"/>
      <use xlink:href="#Verdana-Bold-20" x="1404.589844"/>
      <use xlink:href="#Verdana-Bold-6d" x="1438.769531"/>
      <use xlink:href="#Verdana-Bold-69" x="1544.580078"/>
      <use xlink:href="#Verdana-Bold-b2" x="1578.759766"/>
     </g>
    </g>
    <g id="text_9">
     <!-- 1e10 -->
     <g transform="translate(1256.2475 542.966875) scale(0.1 -0.1)">
      <defs>
       <path id="Verdana-65" d="M 3500 1684 
L 928 1684 
Q 928 1363 1025 1123 
Q 1122 884 1291 731 
Q 1453 581 1676 506 
Q 1900 431 2169 431 
Q 2525 431 2886 573 
Q 3247 716 3400 853 
L 3431 853 
L 3431 213 
Q 3134 88 2825 3 
Q 2516 -81 2175 -81 
Q 1306 -81 818 389 
Q 331 859 331 1725 
Q 331 2581 798 3084 
Q 1266 3588 2028 3588 
Q 2734 3588 3117 3175 
Q 3500 2763 3500 2003 
L 3500 1684 
z
M 2928 2134 
Q 2925 2597 2695 2850 
Q 2466 3103 1997 3103 
Q 1525 3103 1245 2825 
Q 966 2547 928 2134 
L 2928 2134 
z
" transform="scale(0.015625)"/>
      </defs>
      <use xlink:href="#Verdana-31"/>
      <use xlink:href="#Verdana-65" x="63.574219"/>
      <use xlink:href="#Verdana-31" x="123.144531"/>
      <use xlink:href="#Verdana-30" x="186.71875"/>
     </g>
    </g>
   </g>
   <g id="matplotlib.axis_2">
    <g id="ytick_1">
     <g id="line2d_15">
      <path d="M 61.72875 495.143113 
L 1281.27875 495.143113 
" clip-path="url(#p4caf9e17d9)" style="fill: none; stroke: #b0b0b0; stroke-width: 0.8; stroke-linecap: square"/>
     </g>
     <g id="line2d_16">
      <defs>
       <path id="mc86340eb3a" d="M 0 0 
L -3.5 0 
" style="stroke: #000000; stroke-width: 0.8"/>
      </defs>
      <g>
       <use xlink:href="#mc86340eb3a" x="61.72875" y="495.143113" style="stroke: #000000; stroke-width: 0.8"/>
      </g>
     </g>
     <g id="text_10">
      <!-- 0 -->
      <g transform="translate(48.370938 498.942332) scale(0.1 -0.1)">
       <use xlink:href="#Verdana-30"/>
      </g>
     </g>
    </g>
    <g id="ytick_2">
     <g id="line2d_17">
      <path d="M 61.72875 423.315897 
L 1281.27875 423.315897 
" clip-path="url(#p4caf9e17d9)" style="fill: none; stroke: #b0b0b0; stroke-width: 0.8; stroke-linecap: square"/>
     </g>
     <g id="line2d_18">
      <g>
       <use xlink:href="#mc86340eb3a" x="61.72875" y="423.315897" style="stroke: #000000; stroke-width: 0.8"/>
      </g>
     </g>
     <g id="text_11">
      <!-- 20 -->
      <g transform="translate(42.013125 427.115116) scale(0.1 -0.1)">
       <use xlink:href="#Verdana-32"/>
       <use xlink:href="#Verdana-30" x="63.574219"/>
      </g>
     </g>
    </g>
    <g id="ytick_3">
     <g id="line2d_19">
      <path d="M 61.72875 351.488681 
L 1281.27875 351.488681 
" clip-path="url(#p4caf9e17d9)" style="fill: none; stroke: #b0b0b0; stroke-width: 0.8; stroke-linecap: square"/>
     </g>
     <g id="line2d_20">
      <g>
       <use xlink:href="#mc86340eb3a" x="61.72875" y="351.488681" style="stroke: #000000; stroke-width: 0.8"/>
      </g>
     </g>
     <g id="text_12">
      <!-- 40 -->
      <g transform="translate(42.013125 355.2879) scale(0.1 -0.1)">
       <defs>
        <path id="Verdana-34" d="M 3759 1309 
L 3069 1309 
L 3069 0 
L 2469 0 
L 2469 1309 
L 241 1309 
L 241 2028 
L 2494 4653 
L 3069 4653 
L 3069 1809 
L 3759 1809 
L 3759 1309 
z
M 2469 1809 
L 2469 3909 
L 666 1809 
L 2469 1809 
z
" transform="scale(0.015625)"/>
       </defs>
       <use xlink:href="#Verdana-34"/>
       <use xlink:href="#Verdana-30" x="63.574219"/>
      </g>
     </g>
    </g>
    <g id="ytick_4">
     <g id="line2d_21">
      <path d="M 61.72875 279.661465 
L 1281.27875 279.661465 
" clip-path="url(#p4caf9e17d9)" style="fill: none; stroke: #b0b0b0; stroke-width: 0.8; stroke-linecap: square"/>
     </g>
     <g id="line2d_22">
      <g>
       <use xlink:href="#mc86340eb3a" x="61.72875" y="279.661465" style="stroke: #000000; stroke-width: 0.8"/>
      </g>
     </g>
     <g id="text_13">
      <!-- 60 -->
      <g transform="translate(42.013125 283.460684) scale(0.1 -0.1)">
       <defs>
        <path id="Verdana-36" d="M 3722 1509 
Q 3722 800 3255 351 
Q 2788 -97 2109 -97 
Q 1766 -97 1484 9 
Q 1203 116 988 325 
Q 719 584 573 1012 
Q 428 1441 428 2044 
Q 428 2663 561 3141 
Q 694 3619 984 3991 
Q 1259 4344 1693 4542 
Q 2128 4741 2706 4741 
Q 2891 4741 3016 4725 
Q 3141 4709 3269 4669 
L 3269 4072 
L 3238 4072 
Q 3150 4119 2973 4161 
Q 2797 4203 2613 4203 
Q 1941 4203 1541 3783 
Q 1141 3363 1075 2647 
Q 1338 2806 1592 2889 
Q 1847 2972 2181 2972 
Q 2478 2972 2704 2917 
Q 2931 2863 3169 2697 
Q 3444 2506 3583 2215 
Q 3722 1925 3722 1509 
z
M 3088 1484 
Q 3088 1775 3002 1965 
Q 2916 2156 2719 2297 
Q 2575 2397 2400 2428 
Q 2225 2459 2034 2459 
Q 1769 2459 1541 2396 
Q 1313 2334 1072 2203 
Q 1066 2134 1062 2070 
Q 1059 2006 1059 1909 
Q 1059 1416 1161 1130 
Q 1263 844 1441 678 
Q 1584 541 1751 477 
Q 1919 413 2116 413 
Q 2569 413 2828 689 
Q 3088 966 3088 1484 
z
" transform="scale(0.015625)"/>
       </defs>
       <use xlink:href="#Verdana-36"/>
       <use xlink:href="#Verdana-30" x="63.574219"/>
      </g>
     </g>
    </g>
    <g id="ytick_5">
     <g id="line2d_23">
      <path d="M 61.72875 207.834249 
L 1281.27875 207.834249 
" clip-path="url(#p4caf9e17d9)" style="fill: none; stroke: #b0b0b0; stroke-width: 0.8; stroke-linecap: square"/>
     </g>
     <g id="line2d_24">
      <g>
       <use xlink:href="#mc86340eb3a" x="61.72875" y="207.834249" style="stroke: #000000; stroke-width: 0.8"/>
      </g>
     </g>
     <g id="text_14">
      <!-- 80 -->
      <g transform="translate(42.013125 211.633468) scale(0.1 -0.1)">
       <defs>
        <path id="Verdana-38" d="M 3688 1297 
Q 3688 694 3217 294 
Q 2747 -106 2034 -106 
Q 1278 -106 829 284 
Q 381 675 381 1284 
Q 381 1672 606 1986 
Q 831 2300 1241 2484 
L 1241 2503 
Q 866 2703 686 2940 
Q 506 3178 506 3534 
Q 506 4059 937 4409 
Q 1369 4759 2034 4759 
Q 2731 4759 3147 4425 
Q 3563 4091 3563 3575 
Q 3563 3259 3366 2954 
Q 3169 2650 2788 2478 
L 2788 2459 
Q 3225 2272 3456 1997 
Q 3688 1722 3688 1297 
z
M 2947 3569 
Q 2947 3903 2689 4101 
Q 2431 4300 2031 4300 
Q 1638 4300 1386 4112 
Q 1134 3925 1134 3606 
Q 1134 3381 1261 3217 
Q 1388 3053 1644 2925 
Q 1759 2869 1976 2778 
Q 2194 2688 2400 2628 
Q 2709 2834 2828 3056 
Q 2947 3278 2947 3569 
z
M 3044 1238 
Q 3044 1525 2917 1698 
Q 2791 1872 2422 2047 
Q 2275 2116 2100 2175 
Q 1925 2234 1634 2341 
Q 1353 2188 1183 1925 
Q 1013 1663 1013 1331 
Q 1013 909 1303 634 
Q 1594 359 2041 359 
Q 2497 359 2770 593 
Q 3044 828 3044 1238 
z
" transform="scale(0.015625)"/>
       </defs>
       <use xlink:href="#Verdana-38"/>
       <use xlink:href="#Verdana-30" x="63.574219"/>
      </g>
     </g>
    </g>
    <g id="ytick_6">
     <g id="line2d_25">
      <path d="M 61.72875 136.007033 
L 1281.27875 136.007033 
" clip-path="url(#p4caf9e17d9)" style="fill: none; stroke: #b0b0b0; stroke-width: 0.8; stroke-linecap: square"/>
     </g>
     <g id="line2d_26">
      <g>
       <use xlink:href="#mc86340eb3a" x="61.72875" y="136.007033" style="stroke: #000000; stroke-width: 0.8"/>
      </g>
     </g>
     <g id="text_15">
      <!-- 100 -->
      <g transform="translate(35.655313 139.806252) scale(0.1 -0.1)">
       <use xlink:href="#Verdana-31"/>
       <use xlink:href="#Verdana-30" x="63.574219"/>
       <use xlink:href="#Verdana-30" x="127.148438"/>
      </g>
     </g>
    </g>
    <g id="ytick_7">
     <g id="line2d_27">
      <path d="M 61.72875 64.179817 
L 1281.27875 64.179817 
" clip-path="url(#p4caf9e17d9)" style="fill: none; stroke: #b0b0b0; stroke-width: 0.8; stroke-linecap: square"/>
     </g>
     <g id="line2d_28">
      <g>
       <use xlink:href="#mc86340eb3a" x="61.72875" y="64.179817" style="stroke: #000000; stroke-width: 0.8"/>
      </g>
     </g>
     <g id="text_16">
      <!-- 120 -->
      <g transform="translate(35.655313 67.979036) scale(0.1 -0.1)">
       <use xlink:href="#Verdana-31"/>
       <use xlink:href="#Verdana-32" x="63.574219"/>
       <use xlink:href="#Verdana-30" x="127.148438"/>
      </g>
     </g>
    </g>
    <g id="text_17">
     <!-- Active Permits per mi -->
     <g transform="translate(17.837813 366.477188) rotate(-90) scale(0.14 -0.14)">
      <defs>
       <path id="Verdana-Bold-63" d="M 2359 -94 
Q 1900 -94 1520 15 
Q 1141 125 859 353 
Q 581 581 428 928 
Q 275 1275 275 1741 
Q 275 2231 439 2587 
Q 603 2944 897 3178 
Q 1181 3400 1553 3503 
Q 1925 3606 2325 3606 
Q 2684 3606 2987 3528 
Q 3291 3450 3553 3325 
L 3553 2366 
L 3394 2366 
Q 3328 2422 3236 2497 
Q 3144 2572 3009 2644 
Q 2881 2713 2728 2758 
Q 2575 2803 2372 2803 
Q 1922 2803 1680 2517 
Q 1438 2231 1438 1741 
Q 1438 1234 1686 971 
Q 1934 709 2391 709 
Q 2603 709 2773 757 
Q 2944 806 3056 872 
Q 3163 934 3244 1003 
Q 3325 1072 3394 1138 
L 3553 1138 
L 3553 178 
Q 3288 53 2998 -20 
Q 2709 -94 2359 -94 
z
" transform="scale(0.015625)"/>
       <path id="Verdana-Bold-76" d="M 4066 3509 
L 2713 0 
L 1438 0 
L 94 3509 
L 1284 3509 
L 2097 1097 
L 2900 3509 
L 4066 3509 
z
" transform="scale(0.015625)"/>
       <path id="Verdana-Bold-50" d="M 4434 3184 
Q 4434 2872 4325 2573 
Q 4216 2275 4013 2072 
Q 3734 1797 3392 1656 
Q 3050 1516 2541 1516 
L 1794 1516 
L 1794 0 
L 594 0 
L 594 4653 
L 2569 4653 
Q 3013 4653 3317 4576 
Q 3622 4500 3856 4347 
Q 4138 4163 4286 3875 
Q 4434 3588 4434 3184 
z
M 3194 3156 
Q 3194 3353 3087 3495 
Q 2981 3638 2841 3694 
Q 2653 3769 2475 3776 
Q 2297 3784 2000 3784 
L 1794 3784 
L 1794 2391 
L 2138 2391 
Q 2444 2391 2642 2428 
Q 2841 2466 2975 2578 
Q 3091 2678 3142 2817 
Q 3194 2956 3194 3156 
z
" transform="scale(0.015625)"/>
      </defs>
      <use xlink:href="#Verdana-Bold-41"/>
      <use xlink:href="#Verdana-Bold-63" x="77.636719"/>
      <use xlink:href="#Verdana-Bold-74" x="136.474609"/>
      <use xlink:href="#Verdana-Bold-69" x="182.03125"/>
      <use xlink:href="#Verdana-Bold-76" x="216.210938"/>
      <use xlink:href="#Verdana-Bold-65" x="281.201172"/>
      <use xlink:href="#Verdana-Bold-20" x="347.607422"/>
      <use xlink:href="#Verdana-Bold-50" x="381.787109"/>
      <use xlink:href="#Verdana-Bold-65" x="455.078125"/>
      <use xlink:href="#Verdana-Bold-72" x="521.484375"/>
      <use xlink:href="#Verdana-Bold-6d" x="571.191406"/>
      <use xlink:href="#Verdana-Bold-69" x="677.001953"/>
      <use xlink:href="#Verdana-Bold-74" x="711.181641"/>
      <use xlink:href="#Verdana-Bold-73" x="756.738281"/>
      <use xlink:href="#Verdana-Bold-20" x="816.064453"/>
      <use xlink:href="#Verdana-Bold-70" x="850.244141"/>
      <use xlink:href="#Verdana-Bold-65" x="920.166016"/>
      <use xlink:href="#Verdana-Bold-72" x="986.572266"/>
      <use xlink:href="#Verdana-Bold-20" x="1036.279297"/>
      <use xlink:href="#Verdana-Bold-6d" x="1070.458984"/>
      <use xlink:href="#Verdana-Bold-69" x="1176.269531"/>
      <use xlink:href="#Verdana-Bold-b2" x="1210.449219"/>
     </g>
    </g>
   </g>
   <g id="line2d_29">
    <path d="M 117.162841 447.502256 
L 128.361647 445.310986 
L 139.560453 443.119716 
L 150.75926 440.928446 
L 161.958066 438.737176 
L 173.156872 436.545906 
L 184.355678 434.354636 
L 195.554485 432.163366 
L 206.753291 429.972096 
L 217.952097 427.780826 
L 229.150903 425.589555 
L 240.34971 423.398285 
L 251.548516 421.207015 
L 262.747322 419.015745 
L 273.946128 416.824475 
L 285.144935 414.633205 
L 296.343741 412.441935 
L 307.542547 410.250665 
L 318.741353 408.059395 
L 329.94016 405.868125 
L 341.138966 403.676854 
L 352.337772 401.485584 
L 363.536578 399.294314 
L 374.735385 397.103044 
L 385.934191 394.911774 
L 397.132997 392.720504 
L 408.331803 390.529234 
L 419.53061 388.337964 
L 430.729416 386.146694 
L 441.928222 383.955424 
L 453.127028 381.764153 
L 464.325834 379.572883 
L 475.524641 377.381613 
L 486.723447 375.190343 
L 497.922253 372.999073 
L 509.121059 370.807803 
L 520.319866 368.616533 
L 531.518672 366.425263 
L 542.717478 364.233993 
L 553.916284 362.042723 
L 565.115091 359.851452 
L 576.313897 357.660182 
L 587.512703 355.468912 
L 598.711509 353.277642 
L 609.910316 351.086372 
L 621.109122 348.895102 
L 632.307928 346.703832 
L 643.506734 344.512562 
L 654.705541 342.321292 
L 665.904347 340.130022 
L 677.103153 337.938751 
L 688.301959 335.747481 
L 699.500766 333.556211 
L 710.699572 331.364941 
L 721.898378 329.173671 
L 733.097184 326.982401 
L 744.295991 324.791131 
L 755.494797 322.599861 
L 766.693603 320.408591 
L 777.892409 318.217321 
L 789.091216 316.02605 
L 800.290022 313.83478 
L 811.488828 311.64351 
L 822.687634 309.45224 
L 833.886441 307.26097 
L 845.085247 305.0697 
L 856.284053 302.87843 
L 867.482859 300.68716 
L 878.681666 298.49589 
L 889.880472 296.304619 
L 901.079278 294.113349 
L 912.278084 291.922079 
L 923.47689 289.730809 
L 934.675697 287.539539 
L 945.874503 285.348269 
L 957.073309 283.156999 
L 968.272115 280.965729 
L 979.470922 278.774459 
L 990.669728 276.583189 
L 1001.868534 274.391918 
L 1013.06734 272.200648 
L 1024.266147 270.009378 
L 1035.464953 267.818108 
L 1046.663759 265.626838 
L 1057.862565 263.435568 
L 1069.061372 261.244298 
L 1080.260178 259.053028 
L 1091.458984 256.861758 
L 1102.65779 254.670488 
L 1113.856597 252.479217 
L 1125.055403 250.287947 
L 1136.254209 248.096677 
L 1147.453015 245.905407 
L 1158.651822 243.714137 
L 1169.850628 241.522867 
L 1181.049434 239.331597 
L 1192.24824 237.140327 
L 1203.447047 234.949057 
L 1214.645853 232.757787 
L 1225.844659 230.566516 
" clip-path="url(#p4caf9e17d9)" style="fill: none; stroke: #daa520; stroke-width: 2.25; stroke-linecap: square"/>
   </g>
   <g id="patch_3">
    <path d="M 61.72875 515.7575 
L 61.72875 39.3575 
" style="fill: none; stroke: #000000; stroke-width: 0.8; stroke-linejoin: miter; stroke-linecap: square"/>
   </g>
   <g id="patch_4">
    <path d="M 1281.27875 515.7575 
L 1281.27875 39.3575 
" style="fill: none; stroke: #000000; stroke-width: 0.8; stroke-linejoin: miter; stroke-linecap: square"/>
   </g>
   <g id="patch_5">
    <path d="M 61.72875 515.7575 
L 1281.27875 515.7575 
" style="fill: none; stroke: #000000; stroke-width: 0.8; stroke-linejoin: miter; stroke-linecap: square"/>
   </g>
   <g id="patch_6">
    <path d="M 61.72875 39.3575 
L 1281.27875 39.3575 
" style="fill: none; stroke: #000000; stroke-width: 0.8; stroke-linejoin: miter; stroke-linecap: square"/>
   </g>
   <g id="text_18">
    <g id="patch_7">
     <path d="M 122.70625 106.215688 
L 250.255 106.215688 
Q 264.255 106.215688 264.255 92.215688 
L 264.255 63.1775 
Q 264.255 49.1775 250.255 49.1775 
L 122.70625 49.1775 
Q 108.70625 49.1775 108.70625 63.1775 
L 108.70625 92.215688 
Q 108.70625 106.215688 122.70625 106.215688 
z
" style="fill: #ffffff; stroke: #000000; stroke-linejoin: miter"/>
    </g>
    <!-- Pearson r: 0.47 -->
    <g transform="translate(122.70625 73.815313) scale(0.14 -0.14)">
     <defs>
      <path id="Verdana-50" d="M 3669 3247 
Q 3669 2938 3561 2673 
Q 3453 2409 3259 2216 
Q 3019 1975 2691 1854 
Q 2363 1734 1863 1734 
L 1244 1734 
L 1244 0 
L 625 0 
L 625 4653 
L 1888 4653 
Q 2306 4653 2597 4583 
Q 2888 4513 3113 4363 
Q 3378 4184 3523 3918 
Q 3669 3653 3669 3247 
z
M 3025 3231 
Q 3025 3472 2940 3650 
Q 2856 3828 2684 3941 
Q 2534 4038 2342 4080 
Q 2150 4122 1856 4122 
L 1244 4122 
L 1244 2263 
L 1766 2263 
Q 2141 2263 2375 2330 
Q 2609 2397 2756 2544 
Q 2903 2694 2964 2859 
Q 3025 3025 3025 3231 
z
" transform="scale(0.015625)"/>
      <path id="Verdana-61" d="M 3291 0 
L 2706 0 
L 2706 372 
Q 2628 319 2495 223 
Q 2363 128 2238 72 
Q 2091 0 1900 -48 
Q 1709 -97 1453 -97 
Q 981 -97 653 215 
Q 325 528 325 1013 
Q 325 1409 495 1654 
Q 666 1900 981 2041 
Q 1300 2181 1747 2231 
Q 2194 2281 2706 2306 
L 2706 2397 
Q 2706 2597 2636 2728 
Q 2566 2859 2434 2934 
Q 2309 3006 2134 3031 
Q 1959 3056 1769 3056 
Q 1538 3056 1253 2995 
Q 969 2934 666 2819 
L 634 2819 
L 634 3416 
Q 806 3463 1131 3519 
Q 1456 3575 1772 3575 
Q 2141 3575 2414 3514 
Q 2688 3453 2888 3306 
Q 3084 3163 3187 2934 
Q 3291 2706 3291 2369 
L 3291 0 
z
M 2706 859 
L 2706 1831 
Q 2438 1816 2073 1784 
Q 1709 1753 1497 1694 
Q 1244 1622 1087 1470 
Q 931 1319 931 1053 
Q 931 753 1112 601 
Q 1294 450 1666 450 
Q 1975 450 2231 570 
Q 2488 691 2706 859 
z
" transform="scale(0.015625)"/>
      <path id="Verdana-72" d="M 2756 2850 
L 2725 2850 
Q 2594 2881 2470 2895 
Q 2347 2909 2178 2909 
Q 1906 2909 1653 2789 
Q 1400 2669 1166 2478 
L 1166 0 
L 578 0 
L 578 3491 
L 1166 3491 
L 1166 2975 
Q 1516 3256 1783 3373 
Q 2050 3491 2328 3491 
Q 2481 3491 2550 3483 
Q 2619 3475 2756 3453 
L 2756 2850 
z
" transform="scale(0.015625)"/>
      <path id="Verdana-73" d="M 3072 1006 
Q 3072 528 2676 222 
Q 2281 -84 1597 -84 
Q 1209 -84 886 8 
Q 563 100 344 209 
L 344 869 
L 375 869 
Q 653 659 993 536 
Q 1334 413 1647 413 
Q 2034 413 2253 538 
Q 2472 663 2472 931 
Q 2472 1138 2353 1244 
Q 2234 1350 1897 1425 
Q 1772 1453 1570 1490 
Q 1369 1528 1203 1572 
Q 744 1694 551 1930 
Q 359 2166 359 2509 
Q 359 2725 448 2915 
Q 538 3106 719 3256 
Q 894 3403 1164 3489 
Q 1434 3575 1769 3575 
Q 2081 3575 2401 3498 
Q 2722 3422 2934 3313 
L 2934 2684 
L 2903 2684 
Q 2678 2850 2356 2964 
Q 2034 3078 1725 3078 
Q 1403 3078 1181 2954 
Q 959 2831 959 2588 
Q 959 2372 1094 2263 
Q 1225 2153 1519 2084 
Q 1681 2047 1882 2009 
Q 2084 1972 2219 1941 
Q 2628 1847 2850 1619 
Q 3072 1388 3072 1006 
z
" transform="scale(0.015625)"/>
      <path id="Verdana-6f" d="M 3553 1744 
Q 3553 891 3115 397 
Q 2678 -97 1944 -97 
Q 1203 -97 767 397 
Q 331 891 331 1744 
Q 331 2597 767 3092 
Q 1203 3588 1944 3588 
Q 2678 3588 3115 3092 
Q 3553 2597 3553 1744 
z
M 2947 1744 
Q 2947 2422 2681 2751 
Q 2416 3081 1944 3081 
Q 1466 3081 1202 2751 
Q 938 2422 938 1744 
Q 938 1088 1203 748 
Q 1469 409 1944 409 
Q 2413 409 2680 745 
Q 2947 1081 2947 1744 
z
" transform="scale(0.015625)"/>
      <path id="Verdana-6e" d="M 3497 0 
L 2909 0 
L 2909 1988 
Q 2909 2228 2881 2439 
Q 2853 2650 2778 2769 
Q 2700 2900 2553 2964 
Q 2406 3028 2172 3028 
Q 1931 3028 1668 2909 
Q 1406 2791 1166 2606 
L 1166 0 
L 578 0 
L 578 3491 
L 1166 3491 
L 1166 3103 
Q 1441 3331 1734 3459 
Q 2028 3588 2338 3588 
Q 2903 3588 3200 3247 
Q 3497 2906 3497 2266 
L 3497 0 
z
" transform="scale(0.015625)"/>
      <path id="Verdana-20" transform="scale(0.015625)"/>
      <path id="Verdana-3a" d="M 1828 2600 
L 1081 2600 
L 1081 3491 
L 1828 3491 
L 1828 2600 
z
M 1828 0 
L 1081 0 
L 1081 891 
L 1828 891 
L 1828 0 
z
" transform="scale(0.015625)"/>
      <path id="Verdana-37" d="M 3666 3956 
L 1559 0 
L 891 0 
L 3131 4106 
L 481 4106 
L 481 4653 
L 3666 4653 
L 3666 3956 
z
" transform="scale(0.015625)"/>
     </defs>
     <use xlink:href="#Verdana-50"/>
     <use xlink:href="#Verdana-65" x="57.802734"/>
     <use xlink:href="#Verdana-61" x="117.373047"/>
     <use xlink:href="#Verdana-72" x="177.431641"/>
     <use xlink:href="#Verdana-73" x="220.107422"/>
     <use xlink:href="#Verdana-6f" x="272.207031"/>
     <use xlink:href="#Verdana-6e" x="332.900391"/>
     <use xlink:href="#Verdana-20" x="396.181641"/>
     <use xlink:href="#Verdana-72" x="431.337891"/>
     <use xlink:href="#Verdana-3a" x="474.013672"/>
     <use xlink:href="#Verdana-20" x="519.423828"/>
     <use xlink:href="#Verdana-30" x="554.580078"/>
     <use xlink:href="#Verdana-2e" x="618.154297"/>
     <use xlink:href="#Verdana-34" x="654.53125"/>
     <use xlink:href="#Verdana-37" x="718.105469"/>
    </g>
    <!-- P-value: 8.11e-13 -->
    <g transform="translate(122.70625 89.398188) scale(0.14 -0.14)">
     <defs>
      <path id="Verdana-2d" d="M 2428 1753 
L 478 1753 
L 478 2319 
L 2428 2319 
L 2428 1753 
z
" transform="scale(0.015625)"/>
      <path id="Verdana-76" d="M 3597 3491 
L 2184 0 
L 1594 0 
L 191 3491 
L 828 3491 
L 1909 713 
L 2981 3491 
L 3597 3491 
z
" transform="scale(0.015625)"/>
      <path id="Verdana-6c" d="M 1172 0 
L 584 0 
L 584 4863 
L 1172 4863 
L 1172 0 
z
" transform="scale(0.015625)"/>
      <path id="Verdana-75" d="M 3472 0 
L 2884 0 
L 2884 388 
Q 2588 153 2316 28 
Q 2044 -97 1716 -97 
Q 1166 -97 859 239 
Q 553 575 553 1225 
L 553 3491 
L 1141 3491 
L 1141 1503 
Q 1141 1238 1166 1048 
Q 1191 859 1272 725 
Q 1356 588 1490 525 
Q 1625 463 1881 463 
Q 2109 463 2379 581 
Q 2650 700 2884 884 
L 2884 3491 
L 3472 3491 
L 3472 0 
z
" transform="scale(0.015625)"/>
     </defs>
     <use xlink:href="#Verdana-50"/>
     <use xlink:href="#Verdana-2d" x="60.302734"/>
     <use xlink:href="#Verdana-76" x="103.712891"/>
     <use xlink:href="#Verdana-61" x="160.892578"/>
     <use xlink:href="#Verdana-6c" x="220.951172"/>
     <use xlink:href="#Verdana-75" x="248.392578"/>
     <use xlink:href="#Verdana-65" x="311.673828"/>
     <use xlink:href="#Verdana-3a" x="371.244141"/>
     <use xlink:href="#Verdana-20" x="416.654297"/>
     <use xlink:href="#Verdana-38" x="451.810547"/>
     <use xlink:href="#Verdana-2e" x="515.384766"/>
     <use xlink:href="#Verdana-31" x="551.761719"/>
     <use xlink:href="#Verdana-31" x="615.335938"/>
     <use xlink:href="#Verdana-65" x="678.910156"/>
     <use xlink:href="#Verdana-2d" x="738.480469"/>
     <use xlink:href="#Verdana-31" x="783.890625"/>
     <use xlink:href="#Verdana-33" x="847.464844"/>
    </g>
   </g>
   <g id="text_19">
    <!-- Correlation between DOF Assessed Total Value per mi and Permit Density across NTAs -->
    <g transform="translate(278.16375 19.3575) scale(0.16 -0.16)">
     <defs>
      <path id="Verdana-Bold-43" d="M 2697 -91 
Q 2178 -91 1739 62 
Q 1300 216 984 519 
Q 669 822 495 1275 
Q 322 1728 322 2322 
Q 322 2875 487 3325 
Q 653 3775 969 4097 
Q 1272 4406 1720 4575 
Q 2169 4744 2700 4744 
Q 2994 4744 3230 4711 
Q 3466 4678 3666 4625 
Q 3875 4566 4045 4492 
Q 4216 4419 4344 4356 
L 4344 3228 
L 4206 3228 
Q 4119 3303 3986 3406 
Q 3853 3509 3684 3609 
Q 3513 3709 3313 3778 
Q 3113 3847 2884 3847 
Q 2631 3847 2403 3767 
Q 2175 3688 1981 3503 
Q 1797 3325 1683 3031 
Q 1569 2738 1569 2319 
Q 1569 1881 1692 1587 
Q 1816 1294 2003 1125 
Q 2194 953 2428 879 
Q 2663 806 2891 806 
Q 3109 806 3323 872 
Q 3538 938 3719 1050 
Q 3872 1141 4003 1244 
Q 4134 1347 4219 1422 
L 4344 1422 
L 4344 309 
Q 4169 231 4009 162 
Q 3850 94 3675 44 
Q 3447 -22 3247 -56 
Q 3047 -91 2697 -91 
z
" transform="scale(0.015625)"/>
      <path id="Verdana-Bold-6e" d="M 4056 0 
L 2925 0 
L 2925 1741 
Q 2925 1953 2903 2164 
Q 2881 2375 2828 2475 
Q 2766 2591 2645 2644 
Q 2525 2697 2309 2697 
Q 2156 2697 1998 2647 
Q 1841 2597 1656 2488 
L 1656 0 
L 531 0 
L 531 3509 
L 1656 3509 
L 1656 3122 
Q 1956 3356 2232 3481 
Q 2509 3606 2847 3606 
Q 3416 3606 3736 3275 
Q 4056 2944 4056 2284 
L 4056 0 
z
" transform="scale(0.015625)"/>
      <path id="Verdana-Bold-62" d="M 4194 1803 
Q 4194 975 3736 453 
Q 3278 -69 2594 -69 
Q 2300 -69 2078 -6 
Q 1856 56 1656 175 
L 1609 0 
L 531 0 
L 531 4863 
L 1656 4863 
L 1656 3144 
Q 1916 3350 2186 3478 
Q 2456 3606 2809 3606 
Q 3475 3606 3834 3126 
Q 4194 2647 4194 1803 
z
M 3034 1781 
Q 3034 2250 2875 2503 
Q 2716 2756 2306 2756 
Q 2147 2756 1978 2707 
Q 1809 2659 1656 2569 
L 1656 806 
Q 1778 763 1887 747 
Q 1997 731 2150 731 
Q 2597 731 2815 993 
Q 3034 1256 3034 1781 
z
" transform="scale(0.015625)"/>
      <path id="Verdana-Bold-77" d="M 6128 3509 
L 5041 0 
L 3847 0 
L 3131 2366 
L 2428 0 
L 1219 0 
L 141 3509 
L 1322 3509 
L 1922 1091 
L 2672 3509 
L 3669 3509 
L 4381 1091 
L 4972 3509 
L 6128 3509 
z
" transform="scale(0.015625)"/>
      <path id="Verdana-Bold-44" d="M 4991 2322 
Q 4991 1672 4694 1158 
Q 4397 644 3944 369 
Q 3603 163 3197 81 
Q 2791 0 2234 0 
L 594 0 
L 594 4653 
L 2281 4653 
Q 2850 4653 3262 4558 
Q 3675 4463 3956 4288 
Q 4438 3994 4714 3495 
Q 4991 2997 4991 2322 
z
M 3750 2331 
Q 3750 2791 3583 3117 
Q 3416 3444 3053 3628 
Q 2869 3719 2676 3751 
Q 2484 3784 2097 3784 
L 1794 3784 
L 1794 872 
L 2097 872 
Q 2525 872 2725 911 
Q 2925 950 3116 1053 
Q 3444 1241 3597 1555 
Q 3750 1869 3750 2331 
z
" transform="scale(0.015625)"/>
      <path id="Verdana-Bold-4f" d="M 5119 2325 
Q 5119 1213 4481 558 
Q 3844 -97 2719 -97 
Q 1597 -97 959 558 
Q 322 1213 322 2325 
Q 322 3447 959 4098 
Q 1597 4750 2719 4750 
Q 3838 4750 4478 4098 
Q 5119 3447 5119 2325 
z
M 3528 1147 
Q 3703 1359 3787 1648 
Q 3872 1938 3872 2328 
Q 3872 2747 3775 3040 
Q 3678 3334 3522 3516 
Q 3363 3703 3155 3787 
Q 2947 3872 2722 3872 
Q 2494 3872 2292 3790 
Q 2091 3709 1922 3522 
Q 1766 3347 1667 3039 
Q 1569 2731 1569 2325 
Q 1569 1909 1664 1617 
Q 1759 1325 1916 1141 
Q 2072 956 2281 868 
Q 2491 781 2722 781 
Q 2953 781 3162 870 
Q 3372 959 3528 1147 
z
" transform="scale(0.015625)"/>
      <path id="Verdana-Bold-46" d="M 3928 3753 
L 1788 3753 
L 1788 2888 
L 3772 2888 
L 3772 1988 
L 1788 1988 
L 1788 0 
L 594 0 
L 594 4653 
L 3928 4653 
L 3928 3753 
z
" transform="scale(0.015625)"/>
      <path id="Verdana-Bold-79" d="M 2116 1241 
L 2916 3509 
L 4072 3509 
L 2122 -1288 
L 903 -1288 
L 1459 25 
L 94 3509 
L 1275 3509 
L 2116 1241 
z
" transform="scale(0.015625)"/>
      <path id="Verdana-Bold-4e" d="M 4825 0 
L 3669 0 
L 1694 3194 
L 1694 0 
L 594 0 
L 594 4653 
L 2028 4653 
L 3725 1988 
L 3725 4653 
L 4825 4653 
L 4825 0 
z
" transform="scale(0.015625)"/>
     </defs>
     <use xlink:href="#Verdana-Bold-43"/>
     <use xlink:href="#Verdana-Bold-6f" x="72.363281"/>
     <use xlink:href="#Verdana-Bold-72" x="141.015625"/>
     <use xlink:href="#Verdana-Bold-72" x="190.722656"/>
     <use xlink:href="#Verdana-Bold-65" x="240.429688"/>
     <use xlink:href="#Verdana-Bold-6c" x="306.835938"/>
     <use xlink:href="#Verdana-Bold-61" x="341.015625"/>
     <use xlink:href="#Verdana-Bold-74" x="407.8125"/>
     <use xlink:href="#Verdana-Bold-69" x="453.369141"/>
     <use xlink:href="#Verdana-Bold-6f" x="487.548828"/>
     <use xlink:href="#Verdana-Bold-6e" x="556.201172"/>
     <use xlink:href="#Verdana-Bold-20" x="627.441406"/>
     <use xlink:href="#Verdana-Bold-62" x="661.621094"/>
     <use xlink:href="#Verdana-Bold-65" x="731.542969"/>
     <use xlink:href="#Verdana-Bold-74" x="797.949219"/>
     <use xlink:href="#Verdana-Bold-77" x="843.505859"/>
     <use xlink:href="#Verdana-Bold-65" x="941.455078"/>
     <use xlink:href="#Verdana-Bold-65" x="1007.861328"/>
     <use xlink:href="#Verdana-Bold-6e" x="1074.267578"/>
     <use xlink:href="#Verdana-Bold-20" x="1145.507812"/>
     <use xlink:href="#Verdana-Bold-44" x="1179.6875"/>
     <use xlink:href="#Verdana-Bold-4f" x="1262.695312"/>
     <use xlink:href="#Verdana-Bold-46" x="1347.705078"/>
     <use xlink:href="#Verdana-Bold-20" x="1412.744141"/>
     <use xlink:href="#Verdana-Bold-41" x="1446.923828"/>
     <use xlink:href="#Verdana-Bold-73" x="1524.560547"/>
     <use xlink:href="#Verdana-Bold-73" x="1583.886719"/>
     <use xlink:href="#Verdana-Bold-65" x="1643.212891"/>
     <use xlink:href="#Verdana-Bold-73" x="1709.619141"/>
     <use xlink:href="#Verdana-Bold-73" x="1768.945312"/>
     <use xlink:href="#Verdana-Bold-65" x="1828.271484"/>
     <use xlink:href="#Verdana-Bold-64" x="1894.677734"/>
     <use xlink:href="#Verdana-Bold-20" x="1964.599609"/>
     <use xlink:href="#Verdana-Bold-54" x="1998.779297"/>
     <use xlink:href="#Verdana-Bold-6f" x="2066.943359"/>
     <use xlink:href="#Verdana-Bold-74" x="2135.595703"/>
     <use xlink:href="#Verdana-Bold-61" x="2181.152344"/>
     <use xlink:href="#Verdana-Bold-6c" x="2247.949219"/>
     <use xlink:href="#Verdana-Bold-20" x="2282.128906"/>
     <use xlink:href="#Verdana-Bold-56" x="2316.308594"/>
     <use xlink:href="#Verdana-Bold-61" x="2392.675781"/>
     <use xlink:href="#Verdana-Bold-6c" x="2459.472656"/>
     <use xlink:href="#Verdana-Bold-75" x="2493.652344"/>
     <use xlink:href="#Verdana-Bold-65" x="2564.892578"/>
     <use xlink:href="#Verdana-Bold-20" x="2631.298828"/>
     <use xlink:href="#Verdana-Bold-70" x="2665.478516"/>
     <use xlink:href="#Verdana-Bold-65" x="2735.400391"/>
     <use xlink:href="#Verdana-Bold-72" x="2801.806641"/>
     <use xlink:href="#Verdana-Bold-20" x="2851.513672"/>
     <use xlink:href="#Verdana-Bold-6d" x="2885.693359"/>
     <use xlink:href="#Verdana-Bold-69" x="2991.503906"/>
     <use xlink:href="#Verdana-Bold-b2" x="3025.683594"/>
     <use xlink:href="#Verdana-Bold-20" x="3085.449219"/>
     <use xlink:href="#Verdana-Bold-61" x="3119.628906"/>
     <use xlink:href="#Verdana-Bold-6e" x="3186.425781"/>
     <use xlink:href="#Verdana-Bold-64" x="3257.666016"/>
     <use xlink:href="#Verdana-Bold-20" x="3327.587891"/>
     <use xlink:href="#Verdana-Bold-50" x="3361.767578"/>
     <use xlink:href="#Verdana-Bold-65" x="3435.058594"/>
     <use xlink:href="#Verdana-Bold-72" x="3501.464844"/>
     <use xlink:href="#Verdana-Bold-6d" x="3551.171875"/>
     <use xlink:href="#Verdana-Bold-69" x="3656.982422"/>
     <use xlink:href="#Verdana-Bold-74" x="3691.162109"/>
     <use xlink:href="#Verdana-Bold-20" x="3736.71875"/>
     <use xlink:href="#Verdana-Bold-44" x="3770.898438"/>
     <use xlink:href="#Verdana-Bold-65" x="3853.90625"/>
     <use xlink:href="#Verdana-Bold-6e" x="3920.3125"/>
     <use xlink:href="#Verdana-Bold-73" x="3991.552734"/>
     <use xlink:href="#Verdana-Bold-69" x="4050.878906"/>
     <use xlink:href="#Verdana-Bold-74" x="4085.058594"/>
     <use xlink:href="#Verdana-Bold-79" x="4130.615234"/>
     <use xlink:href="#Verdana-Bold-20" x="4195.703125"/>
     <use xlink:href="#Verdana-Bold-61" x="4229.882812"/>
     <use xlink:href="#Verdana-Bold-63" x="4296.679688"/>
     <use xlink:href="#Verdana-Bold-72" x="4355.517578"/>
     <use xlink:href="#Verdana-Bold-6f" x="4405.224609"/>
     <use xlink:href="#Verdana-Bold-73" x="4473.876953"/>
     <use xlink:href="#Verdana-Bold-73" x="4533.203125"/>
     <use xlink:href="#Verdana-Bold-20" x="4592.529297"/>
     <use xlink:href="#Verdana-Bold-4e" x="4626.708984"/>
     <use xlink:href="#Verdana-Bold-54" x="4711.376953"/>
     <use xlink:href="#Verdana-Bold-41" x="4779.541016"/>
     <use xlink:href="#Verdana-Bold-73" x="4857.177734"/>
    </g>
   </g>
  </g>
 </g>
 <defs>
  <clipPath id="p4caf9e17d9">
   <rect x="61.72875" y="39.3575" width="1219.55" height="476.4"/>
  </clipPath>
 </defs>
</svg>
